<?xml version="1.0" encoding="utf-8"?>
<!-- Generator: Adobe Illustrator 27.1.0, SVG Export Plug-In . SVG Version: 6.00 Build 0)  -->
<svg version="1.1" id="Layer_1" xmlns="http://www.w3.org/2000/svg" xmlns:xlink="http://www.w3.org/1999/xlink" x="0px" y="0px"
	 viewBox="0 0 3895.1 802" style="enable-background:new 0 0 3895.1 802;" xml:space="preserve">
<style type="text/css">
	.st0{fill:#7A9108;}
	.st1{fill:#FFFFFF;}
	.st2{fill:#708507;}
	.st3{fill:#96B30A;}
</style>
<g>
	<g>
		<path class="st0" d="M1326,278l-15.2,81.3c-20.5-9.7-40.9-17-61.2-22.1s-39.4-7.5-57.6-7.4c-20.6,0.1-36.5,2.8-47.8,8.3
			c-11.2,5.4-16.8,13-16.7,23c0,5.9,3.2,10.5,9.4,14c6.2,3.5,18.5,7.1,36.9,11l19,3.4c42.3,8.8,72,20.3,89,34.4s25.6,33.7,25.7,58.8
			c0.2,38-14.7,67.7-44.4,89.2s-71.4,32.2-124.9,32.4c-22.4,0.1-45.3-1.6-68.7-5c-23.4-3.4-47.3-8.6-71.7-15.6l15.4-82.1
			c19,11.1,39.2,19.3,60.7,25c21.5,5.6,43.7,8.3,66.2,8.3c22.1-0.1,38.6-2.8,49.6-8.1s16.6-13,16.6-23.1c0-7-3.2-12.5-9.4-16.3
			s-19.2-7.8-38.7-11.9l-19-3.4c-37.4-7.6-64.1-19.1-80.2-34.2c-16-15.1-24.1-36.1-24.2-63.1c-0.1-36.5,13.5-64.6,41.1-84.3
			c27.5-19.8,66.9-29.8,118.1-30c22.4-0.1,44.5,1.3,66.2,4.3C1282.1,267.5,1304,272,1326,278z"/>
		<path class="st0" d="M1689.8,396.6L1651.6,596l-104.9,0.4l32.4-170.8c2.3-11.2,4-20.6,5.4-28.2c1.2-7.7,1.8-13.8,1.8-18.3
			c0-12.5-3.5-22.1-10.5-28.9c-6.9-6.8-16.8-10.2-29.4-10.1c-21.6,0.1-40.2,8.6-55.6,25.5s-26.1,40.2-32.1,70.1l-31,161.1
			l-104.9,0.4l86.6-455l105.3-0.4l-33.6,175.5c19.2-19,38.6-33,58-42.3c19.4-9.2,39.8-13.9,61.1-14c30.2-0.1,53.5,7.7,69.9,23.5
			c16.4,15.7,24.7,38,24.8,66.5c0,6.2-0.4,13.2-1.2,20.7C1692.8,379.3,1691.4,387.6,1689.8,396.6z"/>
		<path class="st0" d="M2058.4,405.7l-35.9,186.9l-104.6,0.4l8.6-48.6c-17,19.6-35.1,33.9-54.2,43.3c-19.1,9.3-39.8,14-62.2,14.1
			c-31,0.1-55.6-7.8-73.9-23.9c-18.3-16-27.5-37.7-27.6-64.9c-0.2-41.6,15.8-73.6,48.1-95.9c32.2-22.2,78.6-33.5,139.4-33.7
			l61.7-0.2l1.1-8.2c0.5-2.7,0.9-4.7,1-5.8c0.1-1.1,0.2-2.2,0.2-3.3c0-12.8-6.2-22.5-18.4-29c-12.2-6.5-30.3-9.7-54.3-9.6
			c-21.6,0.1-42.5,2.4-62.8,6.9c-20.2,4.6-39.8,11.3-58.7,20.4l15.6-79.9c21.8-5.5,44.1-9.8,67-12.7c22.9-2.9,46.6-4.4,71.2-4.5
			c48.5-0.2,84.6,8.1,108.2,24.6c23.6,16.6,35.5,41.9,35.7,76c0,6.6-0.4,13.9-1.2,21.8C2061.4,388,2060.1,396.6,2058.4,405.7z
			 M1895.1,445.8c-26.1,0.1-45.9,4.2-59.1,12.3c-13.4,8.2-19.9,20.1-19.9,35.8c0,11.9,4,21.3,11.9,28c7.9,6.9,18.8,10.2,32.6,10.1
			c21.4-0.1,39.4-6.6,53.7-19.6c14.4-13,24-31.3,28.7-54.9l2.3-12L1895.1,445.8z"/>
		<path class="st0" d="M2352.8,356.3c-7.2-4-15.2-7.1-24-9.2s-18.3-3.2-28.4-3.2c-26.7,0.1-48.8,8.8-66.4,26
			c-17.6,17.2-29.4,42-35.5,74.3l-29.3,150.9l-104.9,0.4l62.6-327.5l105.3-0.4l-11.2,56.1c13.8-20.6,31-36.6,51.7-47.7
			c20.7-11.1,43.8-16.7,69.1-16.8c3.7,0,7.9,0.2,12.6,0.5c4.7,0.4,10.2,1,16.7,1.7L2352.8,356.3z"/>
		<path class="st0" d="M2700.8,438.8l-3.4,16.7l-245,0.9c0,1.1-0.1,2.9-0.3,5.1c-0.2,2.3-0.3,4-0.3,5.1c0.1,21.3,6.5,37.1,19.3,47.5
			c12.8,10.5,32,15.6,57.5,15.6c22-0.1,45.2-3.4,69.7-10.2c24.4-6.7,50.1-16.6,76.9-29.8l-15.8,81.3c-25.5,9.4-50.9,16.5-76.1,21.2
			s-50.9,7-77,7.1c-51,0.2-90.5-11.5-118.3-35c-27.9-23.5-41.8-56.8-42-99.8c-0.1-25,4.2-49.1,13-72.7c8.8-23.5,21.6-45.1,38.5-64.6
			c19.9-23.5,43.9-41.3,71.9-53.5c27.9-12.1,59-18.3,93-18.5c44.2-0.2,79.4,11.5,105.5,35s39.2,55.2,39.4,95.2
			c0,7.8-0.4,16.1-1.5,24.7C2704.6,419,2703.1,428.5,2700.8,438.8z M2601.8,391.2c0.6-2.5,1.1-5.1,1.3-7.7c0.3-2.6,0.4-5.3,0.4-7.7
			c-0.1-15.6-4.7-27.9-14.1-37.1c-9.4-9.1-22.1-13.7-38-13.6c-20.5,0.1-37.9,5.7-52.1,17c-14.3,11.2-25.2,27.9-32.7,49.6
			L2601.8,391.2z"/>
		<path class="st0" d="M2824.2,543.6l-9.5,47.4l-104.9,0.4l86.7-455.1l105.2-0.4l-33.6,175.5c15.9-19.2,32.6-33.3,50.1-42.4
			s36.6-13.7,57.5-13.8c36.8-0.1,66,11.5,87.5,34.8c21.5,23.3,32.3,55.1,32.5,95.4c0.1,25.1-3.6,49.6-11,73.5s-18.1,45.4-32.1,65
			c-17.7,24.6-37.6,43.3-59.8,56.1c-22.3,12.7-46.1,19.2-71.7,19.2c-22.4,0.1-41.5-4.4-57.2-13.4
			C2848.3,576.7,2835.1,562.6,2824.2,543.6z M2933.4,331.3c-26.9,0.1-48.9,12.6-65.8,37.5c-17,24.9-25.4,57.2-25.2,97
			c0.1,17.9,4.9,32,14.6,42.2s23.1,15.3,40.2,15.2c26.4-0.1,48.1-12.4,65.1-36.9s25.6-55.9,25.4-94c-0.1-19.9-4.7-35.1-14.1-45.4
			C2964.4,336.4,2950.9,331.2,2933.4,331.3z"/>
		<path class="st0" d="M3452.8,399.6l-35.9,186.9l-104.6,0.4l8.6-48.6c-17,19.5-35.1,34-54.2,43.3c-19.1,9.3-39.8,14.1-62.2,14.1
			c-31,0.1-55.6-7.8-73.9-23.9c-18.3-16-27.4-37.6-27.6-64.9c-0.2-41.7,15.9-73.6,48.1-95.9s78.6-33.4,139.4-33.7l61.7-0.2l1.1-8.2
			c0.5-2.7,0.9-4.7,1-5.9c0.1-1.1,0.2-2.2,0.2-3.3c-0.1-12.8-6.2-22.5-18.4-29s-30.3-9.7-54.2-9.6c-21.6,0.1-42.5,2.4-62.8,6.9
			c-20.2,4.6-39.8,11.3-58.7,20.4l15.5-79.9c21.8-5.5,44.2-9.8,67-12.7c22.9-2.9,46.6-4.4,71.2-4.5c48.5-0.2,84.6,8.1,108.2,24.6
			c23.6,16.6,35.5,41.9,35.7,76c0,6.6-0.4,13.9-1.2,21.8C3455.8,381.8,3454.4,390.3,3452.8,399.6z M3289.6,439.5
			c-26.1,0.1-45.9,4.2-59.1,12.3c-13.3,8.2-19.9,20.1-19.9,35.8c0,11.9,4,21.3,11.9,28c7.9,6.9,18.8,10.2,32.6,10.1
			c21.4-0.1,39.4-6.6,53.7-19.6c14.4-13,24-31.3,28.7-54.9l2.3-11.9L3289.6,439.5z"/>
		<path class="st0" d="M3474.4,259.4l98.8-0.4l45.8,226.7l115.3-227.2l111.9-0.4l-206,359.1c-23,40.4-44.4,66.9-64,79.6
			c-19.7,12.7-45.1,19-76.2,19.2l-63.4,0.3l10.5-68.7l33-0.1c17.1-0.1,30.4-3,39.9-8.8c9.4-5.8,17.8-15.9,25.2-30.3l9.6-17.6
			L3474.4,259.4z"/>
	</g>
	<circle class="st1" cx="493.4" cy="401" r="444.6"/>
	<g>
		<path class="st2" d="M445.1,566c-12.7,0-25.5-0.9-37.8-1.7c-3.7-0.3-7.5-0.5-11.2-0.7c-38.5-2.3-78.4-9-115.4-19.2
			c-42.7-11.8-80-27.8-110.8-47.5c-4.7-2.9-9.7-6.3-15.7-10.7c-16.8-14.6-27.3-34.5-29.7-56.3c-0.2-2.7-0.5-5.4-0.6-8.2
			c-0.4-7.7-0.6-14.3-0.6-20.5c0-98.9,38.5-191.8,108.4-261.7C301.7,69.5,394.6,30.9,493.4,30.9c98.3,0,190.7,38,260.3,107.1
			l3.7,3.7c4.5,5.5,5.9,11.7,3.8,17.1c-2.4,6.7-9.8,10.9-19.2,10.9c0,0,0,0,0,0c-3,0-6.1-0.4-9.1-1.3l-0.1,0
			c-1.9-0.8-3.8-1.6-5.6-2.2c-37.7-14.2-79.5-24-124.3-29.1c-17.6-2-36.9-2.9-60.7-2.9h-8.8c-26.6,0.1-51.5,1.9-73.9,5.3
			c-45.4,7.1-83,21.1-111.6,41.7c-42.8,30.6-64.5,75-64.4,132c0,0.8,0,1.6,0.1,2.3c0,0.8,0.1,1.5,0.1,2.2
			c1,39.8,13.7,71.5,37.6,94.1c25.1,23.7,67.5,41.7,125.9,53.6l29.9,5.3c30.9,6.4,51.5,12.7,61.3,18.9c10.2,6.2,15.3,15.2,15.3,26.7
			c0,16.3-9,28.9-26.8,37.4c-9.8,4.7-22.5,8.1-37.8,10.2C474.3,565.4,459.5,566,445.1,566z"/>
		<path class="st3" d="M493.4,771.1c-51.3,0-100.9-10.3-147.5-30.6c-45-19.6-85.2-47.6-119.4-83.3c-2.4-2.4-4.7-4.9-7-7.4l-0.4-0.5
			l-0.1-0.1c-3-4.9-3.6-10.1-1.9-14.7c2.5-6.5,9.7-10.5,18.7-10.5c2.7,0,5.6,0.4,8.4,1.1l0.1,0l0.1,0c1.6,0.7,3.1,1.3,4.7,2
			c1.5,0.6,3,1.3,4.6,1.9c66.5,27.7,137,44.3,188.5,44.3c1,0,2,0,2.9,0c23.4-0.3,42.8-1.2,61.1-2.9c55.3-6.5,100.9-22.5,135.4-47.4
			c46-33.2,69.4-79.7,69.5-138.2v-1.6c-0.1-39.1-13.6-70-40-91.8c-26.8-22.1-73.8-40.3-139.8-53.9l-29.9-5.3
			c-29.6-6.1-48.7-11.8-58.5-17.4c-10.2-5.7-15.4-13.4-15.4-23c-0.1-16.1,8.9-28.7,26.9-37.3c9.8-4.8,22.2-8.3,36.6-10.5
			c15.9-1.6,31.8-2.5,47.4-2.6h3.9c25,0,70.2,3.8,122.2,14.5c41.8,8.6,102.2,24.7,152.3,52.9c2.6,1.4,5.2,3,7.7,4.5l1.5,0.9
			c21.4,14.4,35.1,38.2,36.6,63.9c0.1,0.5,0.1,0.9,0.1,1.4c0.3,7,0.7,14.2,0.7,21.5c0,98.9-38.5,191.8-108.4,261.7
			C685.2,732.5,592.3,771.1,493.4,771.1z"/>
	</g>
</g>
</svg>
