<?xml version="1.0" encoding="utf-8"?>
<!-- Generator: Adobe Illustrator 25.2.2, SVG Export Plug-In . SVG Version: 6.00 Build 0)  -->
<svg version="1.1"
	 id="svg2" xmlns:cc="http://creativecommons.org/ns#" xmlns:dc="http://purl.org/dc/elements/1.1/" xmlns:inkscape="http://www.inkscape.org/namespaces/inkscape" xmlns:ns1="http://sozi.baierouge.fr" xmlns:rdf="http://www.w3.org/1999/02/22-rdf-syntax-ns#" xmlns:sodipodi="http://sodipodi.sourceforge.net/DTD/sodipodi-0.dtd" xmlns:svg="http://www.w3.org/2000/svg"
	 xmlns="http://www.w3.org/2000/svg" xmlns:xlink="http://www.w3.org/1999/xlink" x="0px" y="0px" viewBox="0 0 300 299"
	 style="enable-background:new 0 0 300 299;" xml:space="preserve">
<style type="text/css">
	.st0{fill:#FFFFFF;}
	.st1{fill:#FFCC00;}
	.st2{fill:#CCCCCC;}
</style>
<g id="layer1" transform="translate(0 -652.36)">
	<g id="g3882" transform="matrix(1.2576 0 0 1.2587 -346.14 459.83)">
		<path id="path3822" d="M367.1,323.5c-42.1-1.7-73.2-0.7-70.5,8.3c-0.1,2.7,0.5,5.3,3.8,7.3c-3.9,4.5-5.9,9.3,0.3,15.2
			c-3.4,7.1-0.7,10.9,5.3,12.6c0.2,6.3,3.4,10.3,11.6,10.6c5.5,7.4,12.9,8.7,22.5,3.3c20.3,7.6,33.3-25.2,35.1-33.3
			c8.5-4.4,15.5-8.4,28.3-13.6l49.5-16.2c19.5-10.6,23.3-42,25.8-50.3c3.5-8.6,12.8-2.9,20.7-0.8c-4.7-14.8-8.6-25.9-10.6-27.3
			c-10.1-8.7-13.6-7-17.9-6.6c4.3-26.2,6.5-46,2-45.5c-4.6,0.1-6.3,4.1-7.6,8.8c-3.6-0.1-6.3-3.5-15.7,18.4
			c-3.7,1.6-7.5,2.7-9.8,14.1c-3.7,0.6-7.1,2.9-8.8,12.9c-3.9,0-6.4,7.4-9.1,13.9c-8.4-0.2-12.4-6.6-17.7-11.1
			c-9.5-16.5-15.5-24.3-21-30.8c-17-12.9-39.2-21.8-57.2-31.7c-16.7-9.2-26-19.5-34.4-21.8c-0.7,2-8.6,6,11.9,26
			c-0.7,4.6-3.1,7.9,7.8,21c-1.9,6.1,2.6,13.2,10.1,20.7c-2,7.6,5.2,13.3,12.4,18.9c-1.8,7.4,4.6,12.7,12.9,17.4
			c2.9,6.4,6.1,12.5,13.6,14.9c2.8,7.8,7,9.5,11.1,11.4c1.1,5.2,5.5,7.7,10.6,9.6C376.4,310.6,372.1,315.7,367.1,323.5L367.1,323.5z
			"/>
		<path id="path3818" class="st0" d="M294.3,164.5c39.2,29.6,52.3,32.7,72.8,43.4c4.5,2.3,11.9,8.2,16.1,13.1
			c11.4,12.8,16.6,33.7,34.3,38.2c33.4,5.1,32.2-22.6,58.6-23.9c18.5,6.6,15.1,19.1,20.4,29.3c-6.9-3.5-8.6-5.3-6.9-9.3
			c-8.5,4.5-11.7,8.9-12.3,9.4c-4.1,4.4-9.7,34.3-17.5,40.2c-25,29.3-52.5,13.3-93.5,45.6c-0.2,0.8,6.6-2.9,6.3-2.1
			c-7.7,23.7-22.7,29-27.8,30.4c4.6-5.2,11.2-8.8,12.9-16.4c-12.5,12.3-25.1,24.9-35.7,14.6c24.4-8.6,30.4-15.9,35.7-23.2
			c-32.4,23.2-43.1,22.1-47.5,13.9c15.7-2.3,28.4-6.2,34.6-13.2c-20.8,6.6-43.6,15-40.4,1.4c15.9,0.4,29.7-4,43.6-8.2
			c-21,1.4-54.6,11-45-7.5c16.1,2.1,31.3,1.9,45.4-0.7c-23.9,0.2-49.4,1-47.9-8.6c0.7-4.4,39.1,0.5,61.2,1.7c1.2,0.1-1.3,10-0.2,10
			c4.6-12.4,15.8-31.5,22.2-42.1c8.5,1.3,13.3-0.5,17.9-2.5c-10.9,1.1-20.8,0.9-25-6.1c8.9,0.5,16.4,0,20-2.9
			c-12.6,1.9-24.2,1.8-30.7-8.2c7.4,2.1,14.8,3.4,22.1,1.4c-13.8-2.4-28.1-3.7-37.1-15.7c9.8,2.9,19.6,6,30,4.3
			c-20.9-3.6-37.9-9.1-42.1-20.7c7.4,3.5,15.2,5.2,23.2,5.4c-18.9-4.2-31.7-12.4-37.1-25.4c11.6,6.5,20.7,9.2,28.9,10.4
			c-24.4-10.3-39.1-20.4-39.3-30c7.2,6.3,15,10.2,23.6,11.1c-16.6-7.7-29.2-17.4-31.1-32.5c8.6,6.3,17.2,12.7,27.1,15.7
			C303.1,182.8,293.6,171.1,294.3,164.5L294.3,164.5z"/>
		<path id="path3829" d="M479.8,249.8c0,1.7-1.3,3-2.9,3c-1.6,0-2.9-1.4-2.9-3s1.3-3,2.9-3C478.5,246.7,479.8,248.1,479.8,249.8z"/>
		<path id="path3831" class="st1" d="M482.5,261.6c4.2-3.7,7.8-5.9,9.5-11l6.4,15.6C494.2,263.7,489.6,261.7,482.5,261.6
			L482.5,261.6z"/>
		<path id="path3820" class="st0" d="M426.1,255.6c0-5.4,2-7.5,3.9-9.6l2.6,6.4c0.9-7.4,1.5-16.6,5.6-18.9
			c-1.3,4.6-0.3,9.3,1.8,13.9c1-15.9,3.2-28,8.9-27.9c-3.2,5.9-2.2,13.2-1.4,20.4c3.9-18.5,7.9-36.4,15.7-40.4l-4.3,17.5
			c4-7.7,8.4-18,11.8-22.1c2.6,0.9,2.2,11.5-3.2,38.6C452.1,237.9,447.2,256.7,426.1,255.6L426.1,255.6z"/>
		<path id="path3837" class="st2" d="M313.9,210.6c7.7,6.8,13.4,10.6,40.4,15c9.9,2.7,17.8,5.3,32.4,32.4c3,4.8,22.9,19.2,40.8,18.3
			c-3.6,10.2-9.7,17.3-18.9,20.4c-22.1,3.6-29.5,0.4-32.1-5c7.5,1.1,14.3,0.2,20.4-2.5c-12.4,1-24.9,2.4-30.4-8.2
			c6,2.4,13.7,2.8,22.5,1.8c-15.2-2.9-30.9-5.2-38.2-16.4c11,4.9,21.1,6,30.7,4.6c-17-4.7-37.8-6.1-43.2-21.1
			c10.1,5.8,17,5.5,23.6,5.5c-11.3-3.2-30.2-7.6-37.1-25.2c8.1,4.8,17.9,8,28.9,10C336.5,232,316.1,225.2,313.9,210.6L313.9,210.6z
			 M475.7,265.8c-10.2,10.3-18.3,32.3-27.3,39.5c-8.7,7.7-28.8,13.2-50.2,18.6c-6.6,2.6-21.1,8.5-31.4,21.6c-4.9,13.3-11.4,25-22,33
			c5.2-0.3,19.9-5.8,27.5-29.8l-6.2,1.6c10.2-6.6,18.6-11.6,27.4-16.2c12.7-5.7,23.5-6.5,35.2-9.6c12.5-3.8,23.1-10.1,31.2-19.6
			C468.3,294.4,470.8,279,475.7,265.8L475.7,265.8z M321.6,376.6c2,1.9,3.6,2.7,5,3.5c11.7-6.3,20.7-12.9,26.2-20.6
			C341.6,368.7,331,375,321.6,376.6L321.6,376.6z M309.6,367.2c0.7,1.7,1.1,3.5,3.6,4.3c26.1-7.1,25.1-10.9,31.5-16.5
			C335.3,362.4,322.9,366.6,309.6,367.2L309.6,367.2z M304.5,355.8c-1,1.5-0.6,3.4,0,4.8c18.1,0.2,29.6-6.1,41.2-12
			C331,352.9,316.3,357.1,304.5,355.8L304.5,355.8z M302.9,340.2c-1.9,1.8-2.2,4-1.8,6.4c15.1,0.1,30.2-0.2,44.8-6.2
			C331.7,341.4,317.5,343.3,302.9,340.2L302.9,340.2z M459.1,237.4c4.5-12.2,8.1-27.6,11.9-42.4c3.3,1.9-0.2,21.7-2.9,38.8
			C465.3,234.7,462.8,235.2,459.1,237.4L459.1,237.4z"/>
	</g>
</g>
</svg>
