<?xml version="1.0" encoding="utf-8"?>
<!-- Generator: Adobe Illustrator 25.2.3, SVG Export Plug-In . SVG Version: 6.00 Build 0)  -->
<svg version="1.1" id="Layer_1" xmlns="http://www.w3.org/2000/svg" xmlns:xlink="http://www.w3.org/1999/xlink" x="0px" y="0px"
	 viewBox="0 0 735.7 689" style="enable-background:new 0 0 735.7 689;" xml:space="preserve">
<style type="text/css">
	.st0{fill:#C61E59;}
	.st1{fill:#FFFFFF;}
	.st2{fill:none;}
	.st3{fill:#150E0B;}
	.st4{fill:#120F0C;}
	.st5{fill:#0F1417;}
	.st6{fill:#121111;}
	.st7{fill:#080808;}
	.st8{fill:#1B1917;}
	.st9{fill:#2C2722;}
	.st10{fill:#5F95A3;}
	.st11{fill:#5E95A1;}
	.st12{fill:#F94EA3;}
	.st13{fill:#E74B9C;}
	.st14{fill:#884401;}
	.st15{fill:#FECA98;}
	.st16{fill:#FECB06;}
	.st17{fill:#71B7EF;}
	.st18{fill:#70B6ED;}
	.st19{fill:#292207;}
	.st20{fill:#F1F1F0;}
	.st21{fill:#F0C695;}
	.st22{fill:#2B2B1F;}
	.st23{fill:#F4C796;}
	.st24{fill:#2F1F20;}
	.st25{fill:#6DB1E4;}
	.st26{fill:#CDB188;}
	.st27{fill:#4ECAF8;}
	.st28{fill:#48BCDF;}
	.st29{fill:#FBFCFB;}
	.st30{fill:#6DB0E2;}
	.st31{fill:#FACA99;}
	.st32{fill:#272625;}
	.st33{fill:#07090B;}
	.st34{fill:#F8C997;}
	.st35{fill:#0B0909;}
	.st36{fill:#110E0C;}
	.st37{fill:#F1C595;}
	.st38{fill:#F9FCFC;}
	.st39{fill:#E8F6F9;}
	.st40{fill:#332E31;}
	.st41{fill:#7F2352;}
	.st42{fill:#3D3339;}
	.st43{fill:#D37C10;}
	.st44{fill:#F995C7;}
	.st45{fill:#D40B6F;}
	.st46{fill:#0D0D0D;}
	.st47{fill:#FAC998;}
	.st48{fill:#F695C6;}
	.st49{fill:#F594C5;}
	.st50{fill:#882B5B;}
	.st51{fill:#211E1B;}
	.st52{fill:#1B1715;}
	.st53{fill:#0F0C0A;}
	.st54{fill:#14110E;}
	.st55{fill:#FBFBFB;}
	.st56{opacity:0.8;fill:#FCFAFC;}
</style>
<circle class="st1" cx="386.4" cy="301.4" r="280.3"/>
<g>
	<circle class="st2" cx="386.4" cy="301.4" r="364.9"/>
	<path class="st0" d="M74.3,397.3c5.9,3.4,10.1,8.9,12.7,16.3c0.9,2.5,1.4,5.2,1.6,7.8l-3.2,0.4c-0.5-4.4-1.1-7.5-1.8-9.5
		c-2.2-6.2-5.7-10.5-10.5-13.1c-4.9-2.5-10-2.8-15.3-1c-6.7,2.3-11,6-13,11c-2,5-1.7,11.1,0.8,18.4c0.5,1.4,1,2.6,1.4,3.6
		c0.5,1,1.1,2.1,1.9,3.5c1.7-0.8,4.5-1.9,8.4-3.2c1.1-0.4,2.5-0.9,4.2-1.7l2.6-1l1.3,3.7c-0.9,0.2-3.1,0.9-6.6,2
		c-3.5,1.1-6.3,2-8.5,2.8c-1,0.4-1.7,0.6-2,0.7c-1.8-2.1-3.5-5.4-5.1-9.9c-2.8-7.9-3-14.8-0.8-20.5c2.2-5.7,6.7-9.7,13.4-12.1
		C62.2,393.3,68.4,393.9,74.3,397.3z"/>
	<path class="st0" d="M60.5,465.7c9.2-4.3,16.3-7.6,21.2-10.1c5.7-2.9,11.9-6.3,18.5-10.2l1.8,3.6c-5,2.2-11.3,5.3-19,9.2
		c-6.8,3.5-13.7,7.2-20.8,11.1L60.5,465.7z"/>
	<path class="st0" d="M109.5,503.3c-5.2,0.7-10.2,1.7-15,2.8c-4.8,1.1-7.6,2-8.5,2.6l-1.9-2.8c1.6-1.1,4.5-4.9,8.6-11.3
		s7.9-12.7,11.4-18.8c3.4-6.1,5.6-9.5,6.5-10.1l2.3,3.3c-1.4,0.9-5.3,6.8-11.6,17.4c-6.4,10.7-10.7,16.9-12.8,18.8l0.1,0.1
		c0.9-0.6,2.8-1.3,5.8-1.9c3-0.7,8.3-1.6,16-2.9l5.7-0.9c5.6-0.9,9.5-1.6,11.6-2c2.2-0.4,3.5-0.8,4-1.2l2,3c-0.5,0.3-1.7,0.7-3.7,1
		c-2,0.3-5.5,0.9-10.5,1.5L109.5,503.3z"/>
	<path class="st0" d="M113,543.3l5.4-4.7c5.2-4.5,9.3-8.1,12.2-10.9c3-2.9,6.2-6,9.6-9.5c3.4-3.5,5.1-5.3,5.3-5.5l18.5,19.6
		l-2.1,1.8c-3.7-4.2-9-10-15.9-17.2c-3.6,3.6-7.8,7.6-12.6,12.1c5.5,5.8,9.9,10.2,13.2,13.3l-2.2,2.1c-4-4.6-8.2-9.2-12.6-13.9
		l-5.5,5.2c-3.6,3.4-6.5,6.2-8.8,8.6c6.4,6.8,12.4,12.9,18,18.3l-2.3,2L113,543.3z"/>
	<path class="st0" d="M189.7,589.5c-4.6,2.9-8,5.1-10.3,6.8c-2.3,1.6-3.6,2.8-4,3.4l-3.4-2.2c0.4-0.6,7.3-4.9,20.6-12.7
		c13.3-7.9,20.4-12.4,21.2-13.7l3.6,2.3c-0.7,1.1-1.8,9.3-3.2,24.5s-2.4,23.3-3.1,24.4l-3.3-2.1c0.8-1.3,1.8-7.1,2.9-17.4
		L189.7,589.5z M214,574.6l-0.3-0.2c-0.4,0.6-7.7,5.1-22,13.6l19.2,12.2c1.1-8.7,1.8-15.1,2.2-19.1
		C213.4,577.1,213.7,574.9,214,574.6z"/>
	<path class="st0" d="M270.6,633.1l-2.1,6.6c-0.6,1.9-1.1,3.3-1.4,4.1c8.9,2.9,16.9,5.4,24,7.5l-1,2.6l-26.9-8.8
		c2.3-6.5,4.8-13.9,7.6-22.3c1.3-3.9,2.5-7.6,3.5-10.9c1.1-3.4,2-6.5,2.7-9.3l3.7,1.2c-2,4.8-4.4,11.4-7.2,19.9
		C272.8,626.2,271.8,629.3,270.6,633.1z"/>
	<path class="st0" d="M315.1,659.3c2.3-9.9,4-17.6,5.1-23c1.2-6.3,2.3-13.2,3.4-20.9l3.9,0.8c-1.3,5.3-2.8,12.2-4.4,20.6
		c-1.4,7.5-2.8,15.3-4,23.2L315.1,659.3z"/>
	<path class="st0" d="M377.7,624.5c-5.6-0.5-9.2-0.8-10.9-0.9c-0.6,5.3-1.1,11.5-1.6,18.5c-0.5,7.5-0.9,15.3-1.2,23.6l-4-0.3
		c1-9.5,1.8-17.3,2.2-23.4c0.2-3.2,0.4-6.2,0.5-8.8c0.1-2.7,0.2-5.9,0.2-9.8c-2-0.1-5-0.3-8.9-0.4l-7.5-0.3l0.2-2.9l36.7,2.4
		l-0.3,2.8L377.7,624.5z"/>
	<path class="st0" d="M425.5,622.2c-5.6,0.3-9.2,0.6-10.9,0.7c0.2,5.4,0.5,11.5,1.1,18.5c0.6,7.4,1.3,15.3,2.3,23.5l-3.9,0.3
		c-0.4-9.6-0.8-17.4-1.3-23.5c-0.3-3.2-0.5-6.1-0.8-8.8c-0.3-2.7-0.7-5.9-1.2-9.7c-2,0.2-5,0.5-8.9,0.9l-7.5,0.8l-0.2-2.9l36.7-2.9
		l0.1,2.8L425.5,622.2z"/>
	<path class="st0" d="M458.9,645.1l1.6,6.8c0.4,1.9,0.8,3.3,0.9,4.2c9.1-2.1,17.2-4.1,24.4-6l0.5,2.8l-27.6,6.4
		c-1.3-6.7-3-14.4-5-23c-0.9-4-1.8-7.8-2.6-11.2c-0.8-3.4-1.6-6.5-2.4-9.3l3.8-0.9c0.7,5.1,2.1,12,4.1,20.7
		C457.2,638.1,457.9,641.3,458.9,645.1z"/>
	<path class="st0" d="M510.6,644.8l-2.4-6.8c-2.3-6.5-4.1-11.6-5.6-15.4c-1.5-3.9-3.3-8-5.3-12.4c-2-4.4-3.1-6.7-3.2-7l25.1-10
		l0.9,2.7c-5.3,1.9-12.6,4.7-21.9,8.4c2,4.7,4.2,10,6.6,16.1c7.4-2.9,13.2-5.4,17.3-7.3l1.1,2.9c-5.7,2-11.5,4.2-17.5,6.6l2.8,7
		c1.8,4.6,3.4,8.4,4.7,11.4c8.7-3.5,16.6-6.8,23.6-10l1,2.9L510.6,644.8z"/>
	<path class="st0" d="M557.3,617c0.3-0.9,1-1.7,2-2.3c1-0.6,1.9-0.7,2.6-0.5c0.7,0.3,1.3,0.8,1.7,1.7c0.5,0.9,0.6,1.9,0.3,2.9
		c-0.3,1-0.9,1.8-1.9,2.4c-1,0.5-1.8,0.7-2.6,0.4c-0.7-0.3-1.3-0.8-1.8-1.6C557.1,618.9,557,618,557.3,617z"/>
	<path class="st0" d="M586.9,599.1c0.2-1,0.8-1.8,1.8-2.5c1-0.7,1.8-0.9,2.5-0.7c0.7,0.2,1.3,0.7,1.9,1.5c0.6,0.8,0.8,1.8,0.6,2.8
		c-0.2,1-0.8,1.9-1.7,2.5c-0.9,0.6-1.8,0.8-2.5,0.6s-1.4-0.7-1.9-1.5C586.9,601,586.7,600,586.9,599.1z"/>
	<path class="st0" d="M614.6,578.3c0.1-1,0.6-1.9,1.6-2.6s1.7-1.1,2.5-0.9c0.7,0.1,1.4,0.6,2,1.3c0.7,0.8,0.9,1.7,0.9,2.8
		c-0.1,1.1-0.6,2-1.5,2.7c-0.9,0.7-1.7,1-2.5,0.8c-0.8-0.2-1.5-0.6-2-1.3C614.8,580.2,614.5,579.3,614.6,578.3z"/>
</g>
<g>
	<path class="st3" d="M476.5,157.5c-5.1,4.4-10.8,7.9-16.8,11.1c-13.8,7.2-28.2,12.2-43.7,14.1c-4,0.5-6.9,1.4-5.3,6.5
		c0.9,2.8-0.7,4.9-3.5,5.6c-3.2,0.9-4.5,3.2-5.4,6c-2.8,8.6-5.9,17-8.4,25.7c-0.7,2.3-0.6,5.5-4.1,6.1c-1.4-0.6-1.3-1.7-0.8-2.8
		c2.7-11,6.7-21.6,10.4-32.3c0.9-2.6,1.5-4.4-1.2-6.8c-3.3-2.9-2.4-6.6,1.7-8c4.4-1.4,4.6-3.3,3.3-7.3c-7.3-22.4-10.3-45.2-4.4-68.5
		c2.9-11.5,8.2-21.9,15.5-31.1c15-19.1,36.5-23.8,58.4-13c4.6,2.3,9,5,13,8.2c20.3,15.9,24.9,38.6,12.4,61.3
		c-0.1,0.1-0.2,0.2-0.2,0.3C492.2,144.9,482.6,152.2,476.5,157.5z"/>
	<path class="st4" d="M293.4,482.3c-0.4,1.2,1.4,5.4-1.2,5.1c-13.7-0.2-15.3,0.5-19.4-0.6c-2.2-0.6-4-2.4-3.4-1.2
		c-1.5,1.5,5.9,0.1,6.3,6c-8.8,7.3-8.8-4-10.3-4.3c-3.4-0.8-6.9-0.9-10.3-0.5c-1.7,0.2-3.8,0.2-4.5,2.1c-0.7,1.8,1.7,2.4,2.3,3.8
		c0.2,0.5,0.1,0.9-0.2,1.3c-2.2,0.5-4.1-0.4-5.8-1.6c-6.1-16.9-11-34.1-13.3-51.9c-2.9-21.8-2.2-43.5,0.9-65.1
		c0.5-3.2,0.3-6.3-0.3-9.5c-1.5-7-2.5-14.2-2.7-21.9c-3.2,2.2-6.7,3.2-8.1,7c-0.9,2.3-3,3.9-5.4,4.5c-3.3,0.7-3.6,2.6-3.5,5.5
		c0.5,18-1.6,35.5-8.9,52.1c-0.7,1.6-0.9,3.9-3.3,4.3c-1.4-1.6,0.1-2.7,0.6-3.8c7.9-17,9.7-35,9.3-53.5c0-3-1.4-3.2-3.8-3.3
		c-4.4-0.2-8-2.3-9-6.6c-1.2-5-1.7-10.2,2.3-14.5c0.6-0.7,1.6-1.5,2.4-1.5c7.1,0,4.6-4.4,3.9-8.1c-4-18.9-11.3-36.7-19.2-54.2
		c-2.9-6.4-5.7-12.9-7.1-19.8c-0.3-1.1-0.8-2.3,1.1-2.3c2.6,7.4,5.2,14.8,8.5,22c8.9,18.9,16.4,38.3,20,59c0.5,2.7,1.1,3.2,3.8,2.6
		c4.7-1.1,7.2,1,9.4,7.4c1,2.9,1.8,2.8,3.7,0.8c2.2-2.3,3.5-4.7,3.5-8.1c0.1-10.8,2.5-21.3,6.3-31.4c1.4-3.7,4.1-7.2,2.2-11.7
		c-0.8-1.9,0.6-4,1.9-5.7c1.7-2.1,3.3-4.3,5.1-6.6c-14.1-4.8-26.7-11.8-36.8-22.5c-23.4-24.8-30.1-54.1-18.7-85.8
		c11.5-32,35.1-50.9,69.6-54.8c15.7-1.8,30.7,0.5,44.8,7.7c2.7,1.4,4.9,1,7.3-0.1c3.2-1.5,6.4-3.1,9-5.5c3.1-2.8,4.3-1.3,5.1,1.8
		c1,4-0.2,7.7-2.3,11c-2.1,3.4-0.7,4.5,2.4,5.1c3.5,0.7,7.1,1.1,10.4-0.6c4.3-2.1,5.2,0.4,5.5,3.6c0.7,6.7-2.9,11.5-7.6,15.7
		c-0.7,1.7-1.9,3-3.3,4.1c-10.3,8.4-21.9,13.3-35.4,12.2c-3-0.2-5.6,0.3-8.3,1.6c-17.9,9.1-28.1,24.2-33.5,43.1
		c-1,3.4-1.6,6.9-2.7,10.2c-0.4,1.3-0.8,3.1-2.6,3.1c-1.9,0-2-1.8-2.2-3.2c-0.5-3.7-1.6-7.2-6-7.5c-2.8-0.2-4.6,4.2-4,9.2
		c0.6,4,1.5,7.9,3.9,11.2c2.8,3.8,5.1,4.5,9.4,2.8c1.2-0.5,2.5-1.4,3.5-0.1c1.1,1.4,0,2.8-1,3.8c-2.5,2.4-3.6,5.6-4.8,8.8
		c-2,5.5-4.7,10.5-9.5,14.2c-2.6,2-1.9,3.2,0.7,4.4c5.6,2.4,11.5,4.1,17.5,5c2.4,0.4,4.8,0.5,6.8,2.1c0.1,3-3.7,1.5-4.2,3.7
		c-0.7,2.9-0.2,5.8-0.4,8.6c-0.4,5.3-2.2,7.4-7.5,8.3c-2.7,0.4-3.8,1.8-4.4,4.2c-2.8,12.2-6.3,24.2-12,35.3c-1.4,2.8-1.3,6-0.9,9
		c0.6,5.7,1.5,11.4,2.6,17.1c0.5,2.3,1.4,4.3,3.7,5.2c16.7,6.6,32.9,7.5,48.4-3.3c2-1.4,3.2-3.7,5.5-4.5c3.9,3.2,1,5.1-1.3,7.1
		c-14.3,11.8-30.4,13.2-47.6,8c-1.5-0.5-3.1-1-4.6-1.5c-2.6-1-3.8-0.1-4.2,2.7c-0.7,4.9-1.3,9.9-1.7,14.8c-2.1,26.1,0.3,51.8,7.5,77
		c0.9,3.2,1.7,6.5,2.9,9.7c0.6,1.4,0.9,3.4,3.1,3.1c2.1-0.3,2.7-2.2,2.8-4c0-4.5,0.6-8.9,1.2-13.4c0.7-5.7,1.5-11.4,2.8-17.1
		c0.3-1.4,0.8-2.8,2.2-3.5c1.9,0.1,1.9,1.6,2.2,2.9c-0.6,8.9-2.6,17.6-3.3,26.5c-0.1,1.6-0.5,3.2-0.3,4.8c0.2,1.5,0.8,2.8,2.7,2.8
		c1.7,0,2-1.3,2.1-2.6c0.1-1.1,0-2.2,0.1-3.3c0.2-1.3,0.4-2.7,2-3.2c1.4,0,1.9,1,2.3,2.1c0.6,1.8,1.6,2.7,3.6,2.2
		c1.8-0.5,2.5-1.8,2.6-3.6c0.1-2.9,0.4-5.7,0.8-8.6c1.7-12.4,4.9-24.5,9.7-36.1c5.2-12.5,8.5-25.5,10-38.9c0.2-2,0.4-4.2,2.4-5.5
		c3.2,1.8,1.5,4.9,2,7.5c-0.8,13.1-4.6,25.5-9.3,37.6c-4.1,10.8-8,21.6-9.5,33.1c-0.2,1.3-0.4,2.5-0.4,3.8c-0.5,9.1-0.5,9,8.3,11.3
		C289.5,478,292.8,478.4,293.4,482.3z"/>
	<path class="st5" d="M182.7,249.5c-0.9,0.5-1,1.4-1.1,2.3c-5-13.4-7.6-27.4-10.5-41.3c-0.7-3.3-0.5-6.9-5.4-7.6
		c-2.9-0.4-1.6-3.1-0.6-4.7c2.3-3.9,1.3-5.8-2.7-7.9c-19.4-10.2-36.5-23.1-47.5-42.8c-4.8-8.7-7.7-17.9-9-27.7
		c-2.7-21.7,8.7-39,30.1-46c5.7-1.8,11.4-3.1,17.4-3.2c22.3-0.6,39.4,13.5,43.1,35.6c4.3,25.8-2,49.3-15.6,71.1
		c-2.5,4.1-5.2,8.1-8.2,11.8c-2,2.5-1.7,3.5,1.1,4.9c6,3.1,6,4,0.6,8.3c-1.7,1.4-1.9,2.5-1.5,4.4c2.4,12.9,5.4,25.7,9,38.3
		C182.1,246.3,182.3,247.9,182.7,249.5z"/>
	<path class="st6" d="M343.4,170.5c10.6,29.3,6.6,56.3-12.9,80.7c-10.7,13.4-24.4,22.4-41.2,26.5c-0.4,0.1-0.8,0.5-1.2,0.7
		c7.8,10.4,7.9,11.1,2.3,14.3c-0.9-0.7-3,0.5-2.9-1.8c3.4-3.8,3.2-4.4-2-9.4c0.2,1.9,1.3,3.2,1.9,4.6c0.6,1.5,1.5,2.9,0.5,4.5
		c-0.5,0.5-0.7,1.2-1.4,1.4c-2.8-0.9-3-3.7-4.3-5.7c-1.3-2-1.7-4.8-4.5-5.7c-1-0.4-2.4-0.4-2.5-1.7c-0.1-1.4,1.4-1.5,2.4-1.7
		c0.7-0.2,1.5-0.5,2.2-0.7c11.6-2.2,22.5-6.3,32.4-12.9c2.1-1.4,4.2-2.9,6.4-5.1c-5.4-0.3-9.4-2.8-12.4-6.9c-2.9-4-4.4-8.5-4.4-13.5
		c0-5.4,1.2-6.3,6.3-4.8c4.9,1.5,9.8,3.1,15.1,1.6c4.8-1.3,8.7-3.9,12.2-7.4c1-1,2.3-2.1,3.8-1.4c1.8,0.9,1.4,2.6,0.8,4.2
		c6.4-18,7.2-36.2,1.9-54.7c-0.3-1.1-0.5-2.2-0.3-3.3C341.7,171.4,342,170.2,343.4,170.5z"/>
	<path class="st7" d="M286.4,292.1c0.4-0.5,0.9-0.9,1.3-1.4l0,0c0.3,1.5,2.2,0.9,2.7,2.1c-1.3,1.1-0.9,2.3-0.2,3.5
		c3.7,6.7,6.7,13.8,11.1,20.2c6.6,9.5,16.5,13.1,27.7,9.8c12.1-3.6,20.5-12.2,28.7-21c1.5-1.6,3-3.2,4.6-4.9
		c0.8-0.3,1.3-1.4,2.4-1.1c2.4,1.4,4.2,3.4,5.9,5.5c-0.5,1.4-1.7,1.5-3,1.5c-3.1-1.1-5,0.3-6.9,2.7c-7.3,8.9-16.1,16-26.7,20.7
		c-15.1,6.6-30.1,1.4-37.6-12.9c-1.2-2.6-4.7-3.3-5.3-6.4C289.2,304.2,285.8,298.7,286.4,292.1z"/>
	<path class="st8" d="M364.6,299.5c-0.8,0.3-1.6,0.6-2.4,0.8c-0.6-5.6-0.6-11.2,2.6-16.2c1.8-2.8,4.2-4.7,7.6-3.7
		c3.1,0.9,3.7-0.3,4.2-3c2.5-14.8,6.2-29.4,10.2-43.9c0.4-1.5,1.1-3,1.6-4.5c0.2,0.9,0.3,1.8,1.3,2.3c1.5,2,0.5,4-0.1,5.9
		c-3.9,12.7-6.5,25.7-9,38.8c-0.3,1.5-1.5,3.3,1.8,3.6c7.1,0.7,10.5,4.7,11.2,12c0.6,7.1-2.1,11.2-8.8,13.4
		c-0.6,0.2-1.2,0.3-1.9,0.4c-1.3,0.1-2.5-0.2-3.6-1.1c-4.2-3.2-3.8-8.9-7.1-12.7c-1.5-1.7,1.1-2.4,2.6-2.8c0.9-0.2,2.2,0,2.3-1.3
		c0.1-1.3-1.1-1.8-2.1-2.3c-3.7-1.9-6.8-0.2-8.5,4.1C365.2,292.7,366.8,296.4,364.6,299.5z"/>
	<path class="st9" d="M343.4,170.5c-0.9,0.5-1,1.4-1.2,2.3c-2.1-0.4-2.3-2.3-3-3.8c-2-4.4-3.9-8.9-7.2-12.6c1.3-1,2.6-2.1,3.8-3.1
		c0.7,4.4,4.1,7.4,5.6,11.4C342,166.7,343.4,168.4,343.4,170.5z"/>
	<path class="st10" d="M252.9,493c-1-0.5-2.1-0.8-3-1.5c-2.3-1.8-2.6-3.3,0.6-4.8c4.8-2.4,9.7-1.3,14.5-0.7c1.7,0.2,6.8,3.1,8.5,3.4
		c1.6,2.7-0.7,3.4-3.2,3.4C264.5,494,258.7,493.6,252.9,493z"/>
	<path class="st11" d="M270.2,484.4c-1.5-0.2-3.7,0.1-3.6-2.1c0-1.9,2.2-1.5,3.4-1.7c5.9-1.2,11.7-0.8,17.5,0.7
		c2.1,0.5,4.1,1.1,4,3.9C284.4,484.8,277.2,486.2,270.2,484.4z"/>
	<path class="st4" d="M252.9,493c5.8-0.1,11.6-0.1,17.4-0.2c-2.6,2.4-5.6,0.9-8.5,1.1c-3,0.2-6,0-9,0
		C252.8,493.5,252.9,493.2,252.9,493z"/>
	<path class="st12" d="M477.6,151.5c-19.7,16.9-42.8,25.1-68.1,28.3c-2,0.2-3-0.4-3.5-2.2c-8.7-27.2-12.5-54.6-1-82
		c3.7-8.9,8.9-16.9,15.8-23.7c8.1-8.1,17.1-11.8,31.8-11.7c16.3,1,31.8,9.5,42.8,25.5c9.3,13.5,7.4,35.2-2.2,48.6
		C489,140.3,482.7,147.1,477.6,151.5z"/>
	<path class="st13" d="M407,189.1c0.2,2.6-1.6,2.1-2.8,2c-2.6-0.1-5.5-1.2-5.6-3.8c-0.1-3,3.6-3.5,5.6-3.5
		C406.8,183.9,406,187.4,407,189.1z"/>
	<path class="st14" d="M324.6,118.1c1.5,4.6-0.1,8.2-2.3,11.6c-2.1,3.3-1.3,5.2,2.4,6.3c4.2,1.3,8.4,2.3,12.7,0.6
		c3.5-1.4,4,0.6,3.7,3.2c-0.4,4-2.3,7.5-5.1,10.1c-10,9.4-21.4,16.9-35.8,15.7c-11-0.9-18.7,4.7-26.1,11
		c-11.5,9.7-18.7,22.2-22.4,36.7c-1,3.9-2.1,5-5.1,1.4c-2-2.5-4.8-2.7-7.5-1.6c-2.7,1-4.4,3.4-4.6,6.3c-0.7,10.2,0.3,19.7,10.6,25.2
		c1.6,0.8,1.8,1.9,1.4,3.6c-1.1,4.2-2.6,8.3-5.2,11.8c-5.9,7.9-10.6,8.5-18.7,2.7c-38-27.3-44.5-79.9-15.5-116.8
		c22.9-29.1,66.9-37.2,96.9-21.9c4.7,2.4,8.7,1.2,12.7-1C319.5,121.6,321.9,119.8,324.6,118.1z"/>
	<path class="st15" d="M331.9,156.4c2.5-0.7,2.9,1.4,3.7,2.8c2.3,4.5,4.4,9.1,6.6,13.6c4.9,15.9,6.2,32,1.8,48.2
		c-1.2,4.3-2.7,8.5-4.9,12.5c-1.5-2.4,2.2-5.4-0.5-6.5c-1.8-0.8-3.1,2.7-4.8,4.1c-8,6.8-16.8,6.8-26.2,3.6c-5.1-1.8-5.2-1.7-4.8,3.9
		c0.2,3.4,1.1,6.6,2.6,9.7c3.6,7.2,7.7,9.3,17.1,8.3c-12.1,12.3-26.6,18.1-42.6,21c-2.7,0.3-5.1,1.2-7.7,1.9c-2.5,0.7-5.4,1-7.7-1
		c-10.5-1.2-20.8-3.1-30.6-9.2c9.3-4.7,13.5-12.5,15.5-21.8c0.7-3.2,5.1-3.4,5.4-6.8c-1-1.2-1.8-0.4-2.4,0.3
		c-3.1,3.5-6.2,2.5-9.2-0.1c-5-4.3-8-15.1-5.9-21.3c0.9-2.6,2.5-5,5.5-4.1c3.5,1,6,3.7,6.5,7.5c0.2,1.3-0.9,2.7,0.5,4.3
		c1.9-1.1,1.7-2.9,2.1-4.5c3.5-16.5,9.9-31.4,22.7-43c4.8-4.4,10.2-7.7,16-10.5c1.7-0.8,3.2-1,5.1-0.8
		C309.5,169.8,321.3,165,331.9,156.4z"/>
	<path class="st16" d="M258.6,444.8c-3,11.2-4.2,22.6-4.9,34.1c-0.1,2.4-0.4,4.2-3,5.3c-2.7,1.1-3.8,1-4.8-2
		c-11.8-34.8-14.5-70.4-9.1-106.7c0.6-3.8,2.4-2.7,4.6-1.9c11.9,4.4,24.1,6.7,36.6,2.8c5.7-1.8,11-4.4,15.3-8.7c2-0.8,2.6,0.5,2.8,2
		c0.7,4.8,1.1,9.7-0.9,14.4c-1.6,17.4-6.3,33.9-12.8,50c-5,12.5-8.5,25.6-8,39.3c0.2,4.9-2.7,4.3-5.6,5c-3.7,0.8-3.3-1.8-3.6-4
		c-0.1-0.6-0.4-1.2-0.6-1.8c-1.1-0.7-1.2-1.8-1.3-2.9c-1.2-12.4-1.5-24.9,0.2-37.3c0.9-6.4,3.9-12.2,6.5-18c2.6-6,6-11.7,9.2-16.9
		c-2.1,3-4,6.7-6,10.3c-2,3.6-3.9,7.4-5.3,11.3c-1.5,4.1-3.3,8-4.4,12.2c-0.9,3.3-1.8,6.5-2.9,9.7
		C260,442.3,259.8,443.8,258.6,444.8z"/>
	<path class="st17" d="M286.4,292.1c1.9,6,3.9,12,5.8,18c2,6.2,3.7,12.4,4,18.9c0.8,9.3,0.3,18.7,0.3,28c0,1.7-0.1,3.5-1.3,5
		c-0.6,1.9-2,3.3-3.5,4.5c-16.6,13-35.2,11.1-52.7,3.7c-1.8-0.8-2-2.3-2.3-3.9c-0.9-5.8-2-11.7-2.7-17.5c-0.7-5.1,0-9.9,2.6-14.7
		c5.5-10.2,7.9-21.6,10.4-32.8c0.6-2.7,1.4-3.7,4.4-3.5c4.7,0.3,7.2-2.1,7.5-6.8c0.2-3.5-0.1-7-0.1-10.6c6.8-1.4,6.9-1.4,9.1,4.5
		c0.9,2.4,2,4.7,3.5,6.8c1.4,1.9,2.9,4.6,5.6,3.2c2.2-1.1,1.5-3.9,0.8-6.1c-0.5-1.5-0.9-3.1-1.6-4.5c-1.5-3.2-0.5-4.8,3-4.9
		C282.9,282.9,283.7,288.1,286.4,292.1z"/>
	<path class="st18" d="M256.7,286.8c-0.2,2.5,0.7,5.6-1.8,7.8c-2.2,2-8.7,0.9-11.4-1.9c-2.5-2.6-1.1-5.1,0.5-7.3
		c1.7-2.3,3.4-4.8,5.7-6.4C253.3,276.6,256.7,280.2,256.7,286.8z"/>
	<path class="st19" d="M258.6,444.8c-0.1-1.4,0-2.8,1-3.9c2.2,0.9,2.3-0.9,2.5-2.2c0.3-2.4,0.6-4.9,0.3-7.4
		c3.5-13.1,9.5-25,16.9-36.3c0.6-0.8,1.2-2.5,2.4-1.7c1.6,1,0,2.2-0.5,3.2c-1.5,2.5-3,4.9-4.6,7.3c-13,19.6-14.5,41.5-12.3,64
		c0.2,1.6,0.2,3.2,0.2,4.8c-1.3,0.7-1,2.1-1.3,3.3c-2.4-1-1.9-3-1.6-4.9c2-2.4,1.2-5.2,1.3-6.9c-0.2-1.6-1.1-0.7-0.5-1.1
		c0.2-0.1,0.4,0,0.4,0.3c0,1.9,0.8,4-0.6,5.8c-2.3-0.9-2-3.1-2-4.9c0-3.9-0.3-7.9,0.2-11.8c0.2-1.5,0.5-3.2-0.7-4.5
		C259.5,446.8,259.8,445.5,258.6,444.8z"/>
	<path class="st20" d="M259.8,447.9c2.9-1.5,1.4,1.1,1.5,1.8c0.2,6.5-0.2,13,1.2,19.4c0.8,0.5,0.6,1.1,0.2,1.8
		c-0.3,1.8-0.1,3.5,0.7,5.1c0,0.8,0.3,1.6,0,2.4c-0.5,1.7,2.8,4.8-1.6,4.9c-3.1,0-6.7,0.7-6-5C256.8,468,258.4,458,259.8,447.9z"/>
	<path class="st21" d="M218.3,338.8c-1.9,0.3-1.9,1.6-2.4,2.5c-0.8,1.4-1.7,3.3-3.5,2.4c-1.9-0.8-0.8-2.9-0.5-4.3
		c0.4-2.3,1.4-4.3,4.2-4.5c2.6-0.2,4.1,1.2,5.3,3.4c2.4,4.6,1.8,10.5-1.7,13.2c-1.5,1.1-3.7,3.4-5.2,1.2c-1.1-1.7-1.9-4.7,0.6-6.9
		C218.2,342.9,218.1,342.7,218.3,338.8z"/>
	<path class="st22" d="M295.2,362c0.3-11.2,0.5-22.4,0-33.6c1.6-1.8-1.1-4.4,1.1-6.1c1,2.5,1.2,5.2,0.9,7.8
		c-1.3,6.1-0.3,12.3-0.6,18.5c-0.1,2.4,0,4.7-0.1,7.1c0.5-8.5-0.7-17.1,0.6-25.6c1.5,6.6,1.2,13.4,0.7,20c-0.9,12,0.3,23.9-0.7,35.9
		c-0.2,2-0.6,4.1-0.9,6.1c-0.9-2.6,0.9-5.6-1.1-8c0-4.3,0-8.5-0.2-12.8c-0.1-1.3,0.9-3.4-1.8-3.6C295.6,366.4,297.6,365,295.2,362z"
		/>
	<path class="st23" d="M209.4,342.5c0.5,2.3,1.2,5.9-2.6,8.8c-2.4,1.8-3.8,1.4-4.8-1c-1.6-3.6-1.6-7.5-0.2-11.2
		c0.9-2.4,2.8-4,5.6-3.5C210.8,336.4,209.4,339,209.4,342.5z"/>
	<path class="st24" d="M279.2,279.5c-2.4,0.6-3.5,1.4-2.1,4.2c1.2,2.4,1.9,5.1,2.4,7.7c0.4,2,0.1,4.4-2.1,5.4
		c-2.1,0.9-3.7-0.5-5.1-1.9c-2.6-2.5-4.8-5.5-5.3-8.9c-0.8-5.4-3.7-6.4-8.2-5.6c1.3-2.4,4.3,0,5.7-2.1c5.1-0.3,10.3-0.6,15.4-0.8
		c-0.9,1.3-2.6,0.5-3.7,1.2C276.9,279.8,278.2,279,279.2,279.5z"/>
	<path class="st25" d="M233.8,330.4c1.2-12.7,3.8-24,9.6-35.2C244.7,300.7,238.3,323.9,233.8,330.4z"/>
	<path class="st26" d="M207.7,354.2c0.9-1.9,1.9-3,3.2-3.9C212,354.2,212,354.2,207.7,354.2z"/>
	<path class="st27" d="M195.4,122c-0.2,25.3-10,47-25.3,66.6c-1.1,1.4-2,2.3-4,1.3c-21.2-11.2-40.2-24.7-51-47.1
		c-5.5-11.4-8.9-23.5-6.8-36.3c2.7-16.2,13.8-25.1,28.2-30.5c7.7-2.9,15.9-3.9,24.1-3c19.2,2,30,18.1,33.1,31.8
		C195.1,110.4,195.4,116.2,195.4,122z"/>
	<path class="st28" d="M169.6,201.4c-1.3-0.3-3.2,0-2.6-1.9c0.6-1.8,0.5-4.8,3-4.8c1.8,0,4.9,1.2,4.9,3
		C174.8,200.4,171.9,201.1,169.6,201.4z"/>
	<path class="st29" d="M335.9,233c-1.8,7.2-4.7,13.4-10,18.1c-6.5,5.8-13.6,4.5-18-3c-0.6-1-1.1-2-1.4-3c-0.7-2.6-2.7-5.6-0.9-7.7
		c1.2-1.5,4,0.7,6.2,1.2C320.4,240.3,325.6,239.2,335.9,233z"/>
	<path class="st30" d="M287.7,290.7c-1.6-3.6-3.1-7.2-4.7-10.9c3.3,0.1,8.8,5.3,8.6,8.2C291.5,290.5,290.1,291.4,287.7,290.7
		C287.7,290.7,287.7,290.7,287.7,290.7z"/>
	<path class="st31" d="M364.6,299.5c-0.1-4.3-0.6-8.6,1.6-12.7c1.2-2.2,2.4-4.3,5.3-4c3,0.3,5.7,1.3,7.4,3.9
		c1.4,2.2,0.6,3.6-2.3,3.4c-1.4-0.1-2.8-1-4.6,0.3c6.4,2.1,3.2,9.6,7.9,12.7c-2.8,2.8-6,3.4-9.5,1.2
		C367.1,304.3,366.1,301.6,364.6,299.5z"/>
	<path class="st32" d="M370.3,304.3c3.2-0.2,6.4-0.1,9.5-1.2c0.7,1.4,2.1,1.1,3.3,1.3c-0.1,0.1-0.2,0.3-0.4,0.3
		c-7.5,0.5-8,5.6-8.2,11.5c-0.7,19.4,0.2,38.7,4.1,57.8c1.3,6.2,2.7,12.3,4.8,18.3c0.4,1.2,1.5,2.8,0,3.4c-2.2,0.8-1.9-1.8-2.2-2.8
		c-6.5-19.6-9.2-39.8-9.3-60.3c0-6.2-0.1-12.5,0.5-18.7c0.4-4.5,0-7.6-5-8.5C368.4,305,369.6,305.5,370.3,304.3z"/>
	<path class="st33" d="M296.4,322.3c-0.8,1.9,0.7,4.3-1.1,6.1c-1-6.1-2-12.2-3-18.3c0.1,3.3,4.9,2.5,4.9,5.7c-1-0.5-1.8-0.7-1.5,0.9
		C295.9,318.7,296.1,320.5,296.4,322.3z"/>
	<path class="st34" d="M390.1,291.9c0,2.9-0.3,4.8-1.2,6.5c-1.7,3.2-5,4.1-7.6,2c-2.7-2.1-3.8-5.1-1.4-7.8c1.9-2.1,2.4-4,1.4-6.4
		c-1.4-3.5,1.3-3.1,3-2.7C389.1,284.7,389.5,288.9,390.1,291.9z"/>
	<path class="st35" d="M311.1,211.4c-0.2,2.4-0.2,5.3-3.1,5.4c-3.7,0.1-4.4-3.3-4.6-6.1c-0.2-2.4,0.2-5.5,3.3-5.4
		C310.3,205.3,310.6,208.8,311.1,211.4z"/>
	<path class="st36" d="M334.8,201.9c0.5-2.3,0.3-5.3,3.2-5.3c3.6,0,4.4,3.2,4.6,6.1c0.2,2.4-0.1,5.4-3.2,5.4
		C335.7,208,335.5,204.5,334.8,201.9z"/>
	<path class="st4" d="M262.4,431.3c1.9,3.3,1.2,6.7,0.3,10.1c-0.3,1.1-1.3,2-2.5,1.6c-0.4-0.1-0.4-1.4-0.6-2.1
		C260.1,437.5,261.1,434.4,262.4,431.3z"/>
	<path class="st4" d="M262.5,470.8c-0.1-0.6-0.1-1.2-0.2-1.8c0.1-2.3,0.2-4.6,0.4-6.9C263.2,465.1,264.3,468.1,262.5,470.8z"/>
	<path class="st33" d="M297.3,330.2c0,8.9,0,17.8,0,26.7C297,348,294.9,339.1,297.3,330.2C297.3,330.2,297.3,330.2,297.3,330.2z"/>
	<path class="st37" d="M277.2,291.5c0,1.1,0.2,2.2-0.7,2.7c-1.2,0.7-2.1-0.4-2.8-1.2c-2.5-2.6-4.2-5.6-5.1-9
		c-0.3-1.1-1.1-2.8,0.5-3.3c1.5-0.4,3.6-1,4.7,1.1C275.4,284.9,276.9,288,277.2,291.5z"/>
	<path class="st38" d="M165,125.5c-3.6-10-6.8-18.9-10-27.8c-0.4-1.2-0.3-2.6,1-3.4c1.3-0.9,2.7-0.7,4,0.2c2,1.5,3.3,3.4,4.3,5.6
		C167.7,107.9,169.4,115.8,165,125.5z"/>
	<path class="st39" d="M171.1,132c-0.2,1.9-1.2,3-3.2,2.9c-2.1-0.1-3.4-1.4-3.3-3.4c0-2,1.4-3.3,3.4-3.2
		C170.1,128.6,171,130.1,171.1,132z"/>
</g>
<g>
	<path class="st3" d="M525.7,184.4c-0.2,0.4,16.3-8.1,15.9-7c3.3-1.2,6.1-2.1,8.2-4.5c26.1-29.2,71.5-28.6,100.4-3.3
		c33.7,29.6,43,80.4,20.8,117.1c-6.5,10.8-15,19.9-25.3,27.2c-9.1,6.4-19.1,9.9-30.5,8c-5.2-0.9-9.3-3.5-11-8.7
		c-0.9-2.8-1.9-3.5-4.4-1.7c-1.1,0.8-2.4,1.3-3.9,2.1c3.4,2.9,6.6,5.4,9.7,8.2c17.7,16.2,29.6,36.2,37.1,58.8
		c3.4,10.1,9.6,16.7,19.6,19.8c3.7,1.1,3.2,2.4,0.9,4.5c-9.6,8.6-19.7,16.3-31.4,21.8c-2.6,1.2-3.6,2.8-4,5.5
		c-1.4,9.4-2.4,18.7,0.2,28c2.1,7.7,6.3,13.6,14.5,15.8c6.7,3.2,13.7,2.6,20.7,2c3.4-0.3,6.9-1,10.2,0.5c-0.3,3.9-3.8,1.6-5.5,3
		c-0.5,0.1-1,0.2-1.6,0.2c-7-1-14,0.2-21-1.1c-11.1-1.8-17.6-8.8-20.7-19.2c-2.6-8.6-2-17.3-0.8-26.1c0.2-1.6,1-3.2,0.2-5.2
		c-8.5,2.7-17.1,4.9-26.1,4.9c-2.2,0-2.2,1.7-2.7,3.1c-4.3,12.2-6.9,24.5-5.1,37.5c0.2,0.4,0.4,0.8,0.3,1.3c-0.2,1.2,0.8,3-0.9,3.5
		c-1.4,0.4-2.2-1.1-2.9-2.2c-0.5-0.9-0.9-1.8-1.2-2.8c-1.4-11.8,0.1-23.3,3.8-34.6c0.7-2.3,1.5-4.3-1.6-5.6c-2-0.8-2.4-3.1-2.5-5.2
		c-0.1-3.1-0.5-6.2,0-9.2c1.2-6.7-0.6-12.8-2.5-19c-5-15.7-6.1-31.7-4.3-47.9c0.6-5.3-0.6-6.2-5.5-4.1c-9.2,3.9-18.7,5.5-28.7,6.4
		c-15.4,1.3-30-1-44.2-6.8c-2.2-0.9-3.7-0.3-5.4,1.1c-7.1,5.6-19.9,5-26.5-1.1c-5.8-5.2-4.5-11.6,2.8-14.3c3.1-1.2,6.3-1.3,9.6-0.6
		c2.1,0.5,3.2,0.3,3.7-2.4c0.7-4.1,3.9-5,7.1-2.4c2.4,2,4,4.7,5.1,7.6c1.2,3.1,3.3,5,6.3,6.4c12.6,6,25.9,7.6,39.6,6.6
		c6.9-0.5,13.8-1.1,20.5-3.1c2.1-0.6,4.1-1.3,6-2.3c2.4-1.1,3.7-2.5,2.4-5.4c-1-2.3-1.1-4.8-0.4-7.2c0.3-0.7,0.7-1.2,1.4-1.5
		c3.2-2.2,6.5-4.2,9.8-6.1c1.5-0.9,2.8-1.9,3.6-3.5c0.4-0.9,1.3-2,0.4-3c-0.7-0.8-1.8-0.4-2.6-0.2c-2.6,0.4-5.2,0.7-7.8,1
		c-3.9,0.5-5.2,2.8-3.7,6.6c0.6,1.5,2,2.9,1.1,4.7c-2.3,1.1-3.2-1.2-4.8-1.8c-1.3-2-2-4.3-1.7-6.6c0.4-2.7-0.7-3.4-3.1-3.9
		c-23.5-4.7-39-19.4-47.2-41.2c-9.7-25.7-6.3-50.2,11-72.2c0.8-1,1.6-1.9,2.1-3c1-2.1,0.6-4.1-1-5.5"/>
	<path class="st40" d="M587.3,480.6c0-0.9,0-1.8,0-2.7c0.9,0.5,0.8,2,2.4,2.1c0.1-1.4,0.2-2.8,0.3-4.1c1.7,3.7,1.5,8.1,4.4,11.3
		c2.4,1.4,2.8,4.1,3.9,6.3c2,3.5,5.1,5.8,8.1,8.3c1.3,1,2.9,1.7,3,3.7c-0.9,1.7-3.1,3.1-4.4,3.2c-11,1-14.6,2.6-26.3-0.7
		c-1,0.1-2.2-1.1-2.7-2.5c4.9-5.6,11.5-5.2,18-4.8c1.8,0.1,3.6,0.5,6.6,0.8C593.8,495.3,590,488.3,587.3,480.6z"/>
	<path class="st41" d="M578.8,506.4c2.7-2.9,6.2-3.6,10-3.6c5.9,0,11.7,0.4,17,3.6C603.5,509.2,580,509.7,578.8,506.4z"/>
	<path class="st42" d="M645.3,480.7c7.5,0,14.9,0,22.4-0.1c-1.3,3.7-4.9,5.7-6.9,8.9c-1.3,2.1-2.8,4.1-3.2,6.5c-0.2,1,0.1,1.8,1,2.4
		c0.7,0.5,1.4,0.2,2.1-0.2c4-2.4,8.7-13,7.8-17.8c1.2-1.7,4,1,4.8-1.8c0.3,7.1-3.4,12.6-6.8,18.3c-0.7,1.2-1.6,2.2-2.5,3.3
		c-1.6,2-2.8,4.5-6.2,2.6c-3-1.8-4.5-4.2-3.8-7.6c0.9-4.4,3.8-7.6,6.6-10.9c0.6-0.6,1.6-1.1,1.3-2.4
		C656.4,482,650.7,482.8,645.3,480.7z"/>
	<path class="st43" d="M615.1,242.8c0.3-7,2-13.3,3.9-19.6c1.8-6,1.8-6-4.6-4.9c-15.5,2.6-31,2.7-46.3-1.2
		c-11.5-2.9-21.9-8.2-31.4-15.3c-4.4-3.2-6-8.1-6.8-13.2c-0.4-2.7,0.9-4.8,3.5-5.8c1.6-0.6,3.2-1.1,4.8-1.7
		c6.5-2.1,12.1-5.5,17.1-10.4c23.7-22.9,61-24,89-3c34.1,25.6,46.4,74.6,28,112c-6.8,13.9-17,24.9-29.7,33.5
		c-7.9,5.3-16.7,7.6-26.4,6.4c-3.9-0.5-7.1-1.9-9.2-5.4c-2-3.3-2.5-6.3,1.7-8.4c1.3-0.7,2.4-1.9,3.6-2.9c7.7-6.1,12.6-12.9,6.5-22.9
		c-0.5-0.8-0.5-1.8-0.8-2.6c-1.4-4.1-2-7.2,3.3-9.9c5.8-3,8.7-9.1,9.1-15.8c0.6-8.7-5.3-12.8-13.4-9.7
		C616.6,242.4,616.1,242.5,615.1,242.8z"/>
	<path class="st15" d="M618.3,220.1c-5.5,10.3-3.3,21.6-9.6,31.4c3.3-0.9,3.9-3.3,5.5-4.6c3.2-2.6,6.5-5.3,10.8-2.9
		c4.2,2.4,3.8,6.8,2.9,10.8c-1.2,5.1-4.1,9.2-8.6,12.1c-3.2,2-6.4,1.1-9.8,0.3c0.2,0.8,0.2,1.6,0.3,1.7c5.4,1.4,5.4,6.3,6.6,10.4
		c0.4,1.3,0.6,2.8,1.3,3.9c3.8,6.4,1.3,10.7-3.5,15.5c-24.2,24-59.6,23-82.7-2.6c-22.1-24.5-22.6-64.6-1.3-89.7
		c2.4-2.9,4.1-3.8,7.7-1.2c23.1,16.8,49.1,20.1,76.6,15.7C615.2,220.6,616.1,220.4,618.3,220.1z"/>
	<path class="st44" d="M580.9,367.4c0.4-4.9,0.7-9.8,1.2-14.7c0.1-1.2-0.3-3.1,1.8-3.2c5.5-0.4,6.9-4.6,8-8.8
		c1.4-5.4,1.2-11,1.2-16.5c0-0.9,0.1-2.2-1-2.3c-6.1-0.7-1.3-4.1-0.9-5.3c1.2-3.3,3.2-0.8,4.6,0.2c20.5,15.2,33.9,35.6,42.8,59
		c4.6,11.9,5.9,8.5-5,16.2c-12.3,8.8-26,14.5-41.1,16.8c-3,0.5-4.4-0.2-5.3-3.2C583.1,393.2,581.1,380.5,580.9,367.4z"/>
	<path class="st45" d="M589,421.9c0-9.9,0-10,9.5-12c15.4-3.3,29-10.2,41.3-19.7c2.3-1.8,3.4-2.2,5.1,0.7c3.2,5.3,8.3,8.6,14,10.8
		c2.4,0.9,2.6,1.7,0.7,3.4c-19.3,16.9-40.4,29-67.2,27.7c-2.5-0.1-3.7-0.8-3.5-3.5C589.1,426.8,589,424.4,589,421.9z"/>
	<path class="st46" d="M571.3,331.8c-10,2.7-20,4.8-30.4,4.3c-14.7-0.7-29.1-2.8-42.4-9.6c-1.2-0.6-2.6-1.2-3.5-2.1
		c-3.6-3.3-7.2-5.1-11.3-0.9c-1.1,0.6-2.2,0.9-3-0.5c0.1-0.8,0.5-1.4,1.1-1.9c5.1-4.4,5.6-8.4,1.6-14.1c-0.9-1.2-2.1-2.2-2.1-3.9
		c0.4-1.1,1-1.6,2.1-0.8c2.7,2.9,5.2,5.6,5.2,10.1c0,2.3,1.9,4.6,4.1,6.3c8.3,6.4,17.7,9.8,27.8,11.7c16.1,3,32.1,3.7,48-1.4
		c2.2-1.3,2.7,1.3,4.2,1.8l0,0C572.2,331,571.8,331.4,571.3,331.8z"/>
	<path class="st47" d="M487.3,331.3c4.3,3.2,6.2,7,6.9,11c0.7,4-1.9,6.9-5.6,8c-6.6,1.9-13.1,1.2-18.7-3.3c-1.6-1.3-3-2.8-2.3-5.1
		c0.7-2.4,2.7-3.4,4.9-3.6c5.6-0.6,11.1-0.5,15.9,2.9c0.6,0.4,1.2,1.2,2,0.6c1.1-0.8,0.2-1.6-0.3-2.3
		C488.8,337.2,487.3,335.1,487.3,331.3z"/>
	<path class="st48" d="M590.9,330.4c-0.4,4.6-0.4,9.1-2.5,13.2c-2,4.1-4.6,4.7-8.1,1.9c-1.7-1.3-3.3-2.8-4.6-4.4c-3-3.5-2.7-6.3,1-9
		c3.1-2.2,6.4-4.2,9.8-6c4.4-2.3,4.5-2.2,4.4,2.6C590.9,329.4,590.9,330,590.9,330.4z"/>
	<path class="st49" d="M572.6,330.7c-0.9-1.9-2-3.8-2.6-5.8c-1.2-3.8,0.4-6.6,4.4-6.9c4.5-0.4,9-0.8,13.6-1.7
		C586.8,323,578.5,330.5,572.6,330.7C572.6,330.6,572.6,330.7,572.6,330.7z"/>
	<path class="st50" d="M668.6,480.5c2.8,0.6,2.1,2.6,1.5,4.3c-1.7,5.3-4.8,9.8-8.3,14.1c-0.8,1-1.8,2.5-3.4,1.4
		c-1.4-1-3-2.1-2.2-4.5c2.1-6.4,6.6-10.8,11.4-15.1C668,480.6,668.3,480.5,668.6,480.5z"/>
	<path class="st51" d="M483.5,302.2c-0.8,0.1-1.4,0.4-1.8,1.2c0.2,2.4,2.1,4,2.8,6.2c0.5,1.4,1.5,3,0.1,4.3c-1.2,1.2-2.6,0-3.7-0.6
		c-4-2.2-8.4-2.7-12.9-2.4c-2.1,0.1-4.1,0.6-4.7,2.9c-0.6,2.4,1.1,3.7,2.8,4.8c2.9,2,6.2,2.6,9.6,2.8c1.8,0.1,3.7-0.3,5.2,1.2
		c0.6,1.1,1.8,0.8,2.8,1c-7.1,3-16.6,1.4-21.9-3.8c-2-1.9-3.4-4-2.6-6.9c0.8-3,3-4.5,5.9-5.2c4.6-1.1,9.1-0.3,14,0.7
		c0.5-2.4-2.1-5.4,1-7.1C481.2,300.4,482.7,300.5,483.5,302.2z"/>
	<path class="st52" d="M518.4,254.3c1.9,1.5,3.7,3.1,5.7,4.5c6.9,4.7,14.6,5.2,22.6,4.5c1-0.1,2.4-0.8,2.8,0.6
		c0.4,1.6-1.2,1.4-2.2,1.6c-1.7,0.3-1.9,1.8-2.3,3.1c-0.9,2.6-1.9,5.2-3.5,7.5c-5.5,7.6-14.4,7.4-19.4-0.5
		c-2.4-3.7-3.4-7.9-3.3-12.3c0-2.8,1-5.7-1.3-8.3C517.7,254.7,518,254.5,518.4,254.3z"/>
	<path class="st53" d="M557.8,233.1c-0.4,2.3-0.9,5.1-3.8,4.9c-2.8-0.2-3.3-2.9-3.2-5.3c0.1-2.2,0.6-4.7,3.3-4.7
		C557.2,228,557.5,230.7,557.8,233.1z"/>
	<path class="st54" d="M534.4,221.5c-0.4,2.3-0.6,5-3.6,5c-2.9,0-3.4-2.7-3.4-5c0-2.4,0.6-5,3.5-5
		C533.7,216.5,534.1,219.2,534.4,221.5z"/>
	<path class="st47" d="M480.9,322.5c-5.2-0.1-10.5,0.4-15.1-2.6c-2.3-1.5-5-3.2-4.2-6.4c0.8-3.5,3.9-3.9,7-4
		c5.6-0.2,11,0.7,15.7,4.8c1-4.5-4.7-6.7-2.5-10.8c2.2,2.2,4.2,4.5,4.8,7.9C487.8,318.3,487.5,319.4,480.9,322.5z"/>
	<path class="st55" d="M520.9,263.3c-0.5-3.1,0.6-3.5,3.6-1.6c4.6,2.9,9.9,4.2,15.4,4.1c3.4-0.1,3.6,1.3,2.4,3.8
		c-0.7,1.4-1.2,2.9-2,4.1c-2.1,3.2-4.7,5.7-8.9,5.4c-4.2-0.3-6.6-3-8.3-6.4C521.5,269.9,520.9,266.9,520.9,263.3z"/>
</g>
<path class="st56" d="M460.3,122.9c2-11.4,3.9-22.7,8.2-33.4c0.5-1.3,1.2-2.6,2-3.7c1-1.5,2.3-2.9,4.4-2.3c2.1,0.6,3.1,2.3,3.2,4.4
	c0.4,5.9-0.5,11.6-3.4,16.9C470.9,111.6,465.8,117.4,460.3,122.9z"/>
</svg>
