<?xml version="1.0" encoding="utf-8"?>
<!-- Generator: Adobe Illustrator 25.2.3, SVG Export Plug-In . SVG Version: 6.00 Build 0)  -->
<svg version="1.1" id="Layer_1" xmlns="http://www.w3.org/2000/svg" xmlns:xlink="http://www.w3.org/1999/xlink" x="0px" y="0px"
	 viewBox="0 0 735.7 689" style="enable-background:new 0 0 735.7 689;" xml:space="preserve">
<style type="text/css">
	.st0{fill:#C61E59;}
	.st1{fill:#E2AEC5;}
	.st2{fill:#E071A9;}
	.st3{fill:#FFFFFF;}
	.st4{fill:#DD91BB;}
	.st5{fill:#120F0C;}
	.st6{fill:#121111;}
	.st7{fill:#080808;}
	.st8{fill:#1B1917;}
	.st9{fill:#2C2722;}
	.st10{fill:#632D00;}
	.st11{fill:#FCD79D;}
	.st12{fill:#FFF7E1;}
	.st13{fill:#C4001C;}
	.st14{fill:#292207;}
	.st15{fill:#F1F1F0;}
	.st16{fill:#2B2B1F;}
	.st17{fill:#2F1F20;}
	.st18{fill:#FBFCFB;}
	.st19{fill:#07090B;}
	.st20{fill:#0B0909;}
	.st21{fill:#110E0C;}
	.st22{fill:#F1C595;}
	.st23{fill:none;stroke:#000000;stroke-width:2;stroke-miterlimit:10;}
	.st24{fill:#65FF33;stroke:#000500;stroke-width:1.5;stroke-miterlimit:10;}
	.st25{fill:#FCFAFC;}
	.st26{fill:none;stroke:#000000;stroke-miterlimit:10;}
	.st27{fill:none;stroke:#000000;stroke-width:3;stroke-miterlimit:10;}
	.st28{fill:#5F95A3;}
	.st29{fill:#5E95A1;}
	.st30{fill:#884401;}
	.st31{fill:#FECA98;}
	.st32{fill:#FECB06;}
	.st33{fill:#71B7EF;}
	.st34{fill:#70B6ED;}
	.st35{fill:#F4C796;}
	.st36{fill:#6DB1E4;}
	.st37{fill:#6DB0E2;}
	.st38{fill:#F8C997;}
	.st39{fill:#150E0B;}
	.st40{fill:#332E31;}
	.st41{fill:#7F2352;}
	.st42{fill:#3D3339;}
	.st43{fill:#D37C10;}
	.st44{fill:#F995C7;}
	.st45{fill:#D40B6F;}
	.st46{fill:#0D0D0D;}
	.st47{fill:#FAC998;}
	.st48{fill:#F695C6;}
	.st49{fill:#F594C5;}
	.st50{fill:#882B5B;}
	.st51{fill:#272625;}
	.st52{fill:#211E1B;}
	.st53{fill:#1B1715;}
	.st54{fill:#0F0C0A;}
	.st55{fill:#14110E;}
	.st56{fill:#0F1417;}
	.st57{fill:#4ECAF8;}
	.st58{fill:#48BCDF;}
	.st59{fill:#F9FCFC;}
	.st60{fill:#E8F6F9;}
	.st61{fill:#FBFBFB;}
	.st62{fill:#FF0000;stroke:#000500;stroke-width:1.5;stroke-miterlimit:10;}
	.st63{opacity:0.8;fill:#FCFAFC;}
	.st64{fill:#FF902C;}
	.st65{fill:#FFE3CC;}
	.st66{fill:#007A96;}
	.st67{fill:#5CF241;}
	.st68{fill:#F0C695;}
	.st69{fill:#CDB188;}
	.st70{fill:#FACA99;}
	.st71{fill:#FF7900;}
	.st72{fill:#A06300;}
	.st73{fill:#D15E00;}
	.st74{fill:#FFE6CA;}
	.st75{fill:#FFFF15;}
	.st76{fill:#59BAFC;stroke:#000000;stroke-miterlimit:10;}
</style>
<path class="st1" d="M729.1,189c-1.3-9.4-6.4-15.7-15-18.4c-3.9-1.2-7.8-1.3-11.8,0.1c-0.7,0.3-1.3,0.1-1.8-0.4
	c-0.7-0.6-1.5-1.2-2-1.9c-0.7-0.9-1-0.6-1.4,0.3c-0.5,1.1-0.3,2.2,0,3.2c0.4,1-0.1,1.3-0.9,1.3c-0.9,0-1.9,0-2.6-0.6
	c-1-0.8-1.3-0.1-1.6,0.8c-0.5,1.8,0.2,3.3,1.2,4.7c-0.4,1.2-1.4,1.9-2,2.9c-0.3,0.5-0.7,0.9-0.8,1.5c-4.1,7.7-4.5,15.4-0.7,23.1
	c2.1,4.2,5.1,7.3,9.2,9.2c0.1,0,0.2,0.2,0.3,0.3c-2.5,2.5-2.6,2.7-1.3,3.9c0.3,0.4,0.1,0.7-0.1,1c-1.3,1.7-2.4,3.5-3.8,5.1
	c-2.2,2.4-4.9,2.9-7.5,1.5c-2.9-1.5-4.6-4.3-6.3-7.1c-0.3-0.5-0.6-1-0.9-1.6c0.4-1.5,0.7-3.1,0.1-4.6c-0.2-0.6-0.6-1.1-1.1-1.3
	c2.9-6.3,3.1-13.9,2.9-22.3c-0.2-9,0.1-17.5,4.2-24c0.2,0.2,0.4,0.4,0.7,0.4c0.3,0,0.6,0,0.9-0.1l0.1,0c0.2,0,0.5-0.1,0.6-0.4
	c0.1-0.2,0.1-0.4,0-0.7l0-0.1l-0.1-0.1c-0.1-0.1-0.1-0.2-0.2-0.3c-0.1-0.1-0.2-0.3-0.3-0.5c0.1,0,0.3-0.1,0.5-0.1
	c5-2.4,11.6-7.9,14.4-14.3c3.1-6.3,1.4-11.8-1.5-14.3c-3.3-2.9-7.2-3.9-11.1-2.9c-3.2,1-5,2.5-6.4,5.2c-1,2.1-1.7,4.3-2,6.8
	c-0.9,7.9,2.2,14.2,5,18.9c-5.7,6.9-6.1,16.5-5.9,26.7c0.1,8.5,0,16.1-3,22.2c-0.6,0-0.6-0.4-0.6-1l-1-0.6c0,0.4,0.2,1-0.6,0.9
	c-1.8-0.1-2.9,0.8-3.4,2.8c-0.5,1.8-0.1,3,1.2,3.9c-2.7,2.5-6,4.4-9.3,6.2l0.4,0.9c3.3-1.8,6.9-3.9,9.8-6.7c0.3,0.1,0.6,0,0.9-0.1
	c0.1,0,0.1-0.1,0.1-0.1c0.6,0.7,1.3,0.9,2.2,0.5c0,0,0,0,0,0c0,0-0.1,0.1-0.1,0.1c0.1,0.4,0.4,0.5,0.7,0.5c0.8-0.2,1.3,0.3,1.6,1.1
	c1.4,2.8,3.3,5.2,5.8,7c3.5,2.5,7.6,1.8,10.2-1.9c0.1-0.1,0.1-0.2,0.2-0.2c0,0.1,0,0.2,0,0.3c-0.2,0.5-0.3,1-0.5,1.5
	c-0.4,0.7-0.6,1.4-0.6,2.1c0,0,0,0,0,0c0,0,0,0,0,0c-0.7,1.8-1,3.7-1.2,5.5c-0.4,3.4-1.3,6.6-1.6,10c-0.2,0.4-0.2,1-0.3,1.5
	c-0.4,3.7-0.1,7.3,0.5,10.9c0.5,3.2,1,6.4,0.8,9.7c0,0.4,0,0.7-0.1,1.1c-0.3,2.5-0.3,2.5-2.7,2.8c-0.8,0.1-1.6,0-2,1.1
	c0,0.3-0.6,1.4,0,1.5c3.5,0.5,3.9,0.8,5,0.7c0.6-0.1,1.1-0.5,0.9-0.2c0.3,0.5-1.5-0.2-1.9,1.4c1.9,2.4,2.4-0.7,2.8-0.7
	c0.9-0.1,1.8,0.1,2.7,0.3c0.4,0.1,1,0.2,1,0.8c0.1,0.5-0.6,0.6-0.8,0.9c-0.1,0.1-0.1,0.2,0,0.4c0.5,0.2,1.1,0.1,1.6-0.2
	c2.4-4.4,4.5-9,5.9-13.8c1.8-5.9,2.7-12,3-18.2c0-0.1,0-0.2,0-0.2c1-1.8,1.8-3.8,2.2-5.9c0.2-1.2,0.3-2.4,0.3-3.4l0.3-2
	c0.5-3,0.4-6-0.1-9c-0.2-1.1-0.7-2.2,0-3.4c0.3-0.5,0-1.1-0.2-1.7c-0.3-0.7-0.6-1.3-1-2.1c3.8-0.7,7.4-2.1,10.5-4.6
	C727.3,206.2,730.5,198.4,729.1,189z M693.5,234.3c0-0.1,0-0.1,0.1-0.2c0,0,0,0,0,0.1c-0.1,0.7-0.2,1.3-0.3,2
	C693.3,235.6,693.4,234.9,693.5,234.3z M696.7,267.6C696.7,267.6,696.7,267.6,696.7,267.6L696.7,267.6z M696.4,269.2
	C696.4,269.2,696.4,269.2,696.4,269.2C696.4,269.2,696.4,269.2,696.4,269.2C696.4,269.2,696.4,269.2,696.4,269.2
	C696.4,269.2,696.4,269.2,696.4,269.2z M698.9,218.9C698.9,218.9,698.9,218.9,698.9,218.9C698.9,218.9,698.9,218.9,698.9,218.9
	C698.9,218.9,698.9,218.9,698.9,218.9z M692.2,244.1C692.2,244.1,692.2,244.1,692.2,244.1C692.2,244.1,692.2,244.1,692.2,244.1
	C692.2,244.1,692.2,244.1,692.2,244.1C692.2,244.1,692.2,244.1,692.2,244.1z"/>
<path class="st2" d="M709.8,189.1c-5.1-8.9-13-13.2-23-12.5c-4.6,0.3-8.7,1.9-12.3,4.8c-0.7,0.6-1.3,0.6-2.1,0.4
	c-1-0.3-2-0.6-2.9-1.1c-1.1-0.7-1.3-0.1-1.3,0.8c-0.1,1.3,0.5,2.3,1.3,3.1c0.8,0.9,0.5,1.3-0.4,1.7c-1,0.4-2,0.7-3,0.4
	c-1.3-0.4-1.4,0.4-1.3,1.4c0.2,2.1,1.5,3.3,3.1,4.3c0.1,1.3-0.7,2.4-0.9,3.7c-0.1,0.6-0.4,1.2-0.2,1.8c-1.3,9.3,1.5,17.2,8.4,23.4
	c3.8,3.4,8.3,5.3,13.3,5.6c0.1,0,0.3,0.1,0.4,0.1c-1.6,3.5-1.6,3.8,0.2,4.4c0.4,0.3,0.4,0.6,0.3,1c-0.7,2.2-1.1,4.5-1.9,6.6
	c-1.3,3.2-3.9,4.8-7.3,4.5c-3.6-0.4-6.5-2.5-9.4-4.6c-0.5-0.4-1.1-0.8-1.6-1.2c-0.2-1.7-0.5-3.4-1.7-4.7c-0.5-0.5-1-0.9-1.6-0.9
	c0.5-7.4-2.3-15.1-5.8-23.5c-3.7-8.9-6.9-17.6-5.1-25.7c0.3,0.1,0.6,0.2,0.9,0.1c0.3-0.1,0.6-0.2,0.9-0.4l0.1-0.1
	c0.2-0.1,0.5-0.3,0.5-0.7c0-0.2-0.1-0.5-0.3-0.7l-0.1-0.1l-0.1,0c-0.1,0-0.2-0.2-0.3-0.3c-0.1-0.1-0.3-0.3-0.5-0.4
	c0.2-0.1,0.3-0.2,0.4-0.3c4.2-4.4,8.9-12.6,9.3-20.1c0.7-7.5-3.3-12.4-7.2-13.8c-4.6-1.6-9.1-1-12.7,1.5c-2.9,2.3-4.2,4.5-4.6,7.7
	c-0.3,2.5-0.1,5,0.6,7.6c2.2,8.2,7.9,13.4,12.7,16.9c-3.2,9.2,0.2,19,4.4,29.1c3.5,8.4,6.4,16.1,5.7,23.5c-0.6,0.2-0.8-0.1-1.1-0.8
	l-1.2-0.2c0.2,0.4,0.6,0.9-0.3,1.2c-2,0.6-2.7,2-2.5,4.2c0.2,2,1.1,3,2.8,3.4c-1.8,3.6-4.6,6.8-7.2,10l0.8,0.7
	c2.7-3.1,5.6-6.6,7.5-10.6c0.4-0.1,0.7-0.2,0.9-0.5c0,0,0.1-0.1,0.1-0.2c0.9,0.5,1.7,0.4,2.5-0.3c0,0,0,0,0,0c0,0,0,0.1-0.1,0.1
	c0.2,0.4,0.6,0.3,0.9,0.3c0.8-0.5,1.4-0.2,2.1,0.4c2.6,2.2,5.5,3.9,8.8,4.7c4.7,1.1,8.6-1.3,9.9-6c0-0.1,0.1-0.2,0.1-0.3
	c0.1,0,0.1,0.1,0.1,0.3c0,0.6,0.1,1.1,0.1,1.7c-0.1,0.8,0,1.6,0.2,2.4c0,0,0,0,0,0c0,0,0,0,0,0c0,2.1,0.4,4.1,1,6
	c1,3.5,1.3,7.1,2.3,10.6c-0.1,0.5,0.2,1.1,0.2,1.7c1,3.9,2.8,7.3,4.9,10.7c1.8,3,3.6,6,4.7,9.4c0.1,0.4,0.3,0.7,0.4,1.1
	c0.7,2.7,0.7,2.7-1.7,3.8c-0.8,0.4-1.7,0.7-1.6,1.9c0.2,0.3-0.1,1.7,0.6,1.5c3.9-0.8,4.4-0.7,5.5-1.3c0.6-0.3,1-0.9,0.9-0.6
	c0.5,0.4-1.7,0.4-1.4,2.1c2.9,1.7,2.2-1.7,2.7-1.9c0.9-0.4,1.9-0.7,2.9-0.7c0.5,0,1.1-0.1,1.4,0.4c0.3,0.5-0.4,0.8-0.4,1.3
	c0,0.2,0,0.3,0.1,0.4c0.7,0,1.1-0.3,1.6-0.8c0.7-5.4,1.1-10.8,0.7-16.2c-0.5-6.7-1.9-13.1-4.1-19.4c0-0.1,0-0.2-0.1-0.2
	c0.3-2.3,0.4-4.5,0-6.8c-0.3-1.3-0.7-2.5-1.1-3.6l-0.4-2.1c-0.7-3.2-2-6.2-3.7-9c-0.6-1-1.6-1.9-1.3-3.4c0.1-0.6-0.4-1.2-0.9-1.6
	c-0.6-0.5-1.2-1.1-1.8-1.7c3.7-2.2,6.9-5,9.1-8.8C714.7,207,714.9,197.9,709.8,189.1z M690.6,248.6c0-0.1,0-0.2,0-0.2c0,0,0,0,0,0.1
	c0.2,0.7,0.3,1.4,0.4,2.1C690.9,250,690.8,249.3,690.6,248.6z M707.1,280.7C707.2,280.7,707.2,280.7,707.1,280.7L707.1,280.7z
	 M707.5,282.5C707.5,282.5,707.5,282.4,707.5,282.5C707.5,282.4,707.5,282.4,707.5,282.5C707.5,282.5,707.5,282.5,707.5,282.5
	C707.5,282.5,707.5,282.5,707.5,282.5z M690.2,231C690.2,231,690.2,231,690.2,231C690.2,231,690.2,231,690.2,231
	C690.2,231,690.2,231,690.2,231z M693.2,259C693.2,259,693.2,259,693.2,259C693.2,259,693.2,259,693.2,259
	C693.2,259,693.2,259,693.2,259C693.2,259,693.2,259,693.2,259z"/>
<circle class="st3" cx="342.7" cy="396.9" r="275.1"/>
<path class="st4" d="M694,206.3c-10.9-13.7-30.3-16.7-43.2-4.4c-1,1-2.3,1.2-3.8,1.6c0.2-0.4-6.2,2.1-7.1,2.3
	c0.1-0.5,0.3-0.9,0.4-1.4c2.3-10-1.8-19-10.3-22.8c-2.3-1-4.7-1.6-7.1-1.8c-9.3-1-16.5,4.2-19.2,13.8c-1.2,4.3-1.6,8.7-1.3,13.3
	c0.8,10.3,5.1,18.8,10.7,26.6c1.2,1.6,1.2,2.6-0.3,3.8c-0.6,0.5-1.6,1.4-0.5,2.1c1.7,1.2,1.1,2.7,0.8,4.2
	c-1.1,5.7-2.3,11.3-2.8,17.1c-1.2-0.3-2.3-0.5-3.5-0.4c-1.3,0.2-2.3,0.8-2.8,2.1c-0.5,1.3,0,2.4,0.7,3.4c0.8,1,1.8,1.9,3,2.5
	c0.7,0.8,0.7,1.9,0.4,3.4c-0.1,0.7-0.3,1.4-0.4,2c0,0,0,0,0,0c-3.3,0.9-4.2,3.8-2,6.6c0.3,0.4,0.7,0.8,1,1.1c-1,8.9-1,17.8,0.6,26.6
	c0.1,0.5-0.2,1.6,0.7,1.4c0.7-0.2,0.3-1,0.2-1.5c-0.5-2.8-0.8-5.7-0.9-8.6c-0.3-5.8-0.2-11.5,0.4-17.3c2.8,1.8,6.7,2,9.3,0.3
	c0.8-0.5,1.5-0.7,2.4-0.2c5.7,3.6,11.9,5.5,18.5,5.8c4.3,0.2,8.5,0,12.6-1.3c2.2-0.7,2.7-0.2,2.1,2.2c-1.7,7.6-2.2,15.2-1,22.9
	c0.5,3,0.9,6,0,9.1c-0.4,1.4-0.4,2.9-0.6,4.4c-0.1,1,0,2.1,0.8,2.6c1.3,0.8,0.8,1.7,0.4,2.7c-2.2,5.1-3.5,10.4-3.6,16.1
	c0.1,0.5,0.2,1,0.3,1.4c0.1,0.2,0.2,0.4,0.2,0.5c0,0.2,0,0.4-0.1,0.5c0.7,3.8,1.9,7.4,4.5,10.7c-1.2-0.4-2-0.6-2.8-0.8
	c-2.8-0.6-5.5-1.1-8,1.2c0.2,0.7,0.6,1.3,1,1.3c4.8,2.2,6.5,1.7,11.2,1.9c0.6,0,1.6-0.5,2.1-1.2c0.1-0.9-0.6-1.4-1.1-1.9
	c-1.1-1.3-2.4-2.6-3-4.4c-0.3-1.1-0.4-2.4-1.3-3.2c-1-1.6-0.7-3.5-1.1-5.2c0-0.1-0.1-0.3-0.1-0.4c0-6.2,1.8-11.9,4.4-17.4
	c0.3-0.6,0.4-1.4,1.4-1.3c3.8,0.5,7.7,0,11.5-0.7c0.2,0.9-0.2,1.7-0.4,2.4c-1,4.1-1.8,8.2-1.2,12.4c0.7,5.1,3.1,8.8,7.7,10.3
	c2.2,1.3,4.7,1.3,7,1.6c0.1,0.7-0.4,0.8-0.7,1.1c-1.4,1.4-2.8,2.7-3.5,4.7c-0.5,1.6,0,2.8,1.2,3.8c1.3,1.1,2,0,2.8-0.8
	c0.4-0.5,0.9-0.9,1.3-1.4c1.8-2.5,3.7-4.9,4-8.2c-1.3-0.9-2.8-0.8-4.3-0.9c-3-0.1-6.1-0.3-8.8-2.2c-3.4-1.5-4.8-4.6-5.3-8.3
	c-0.5-4.5,0.4-8.9,1.6-13.2c0.3-1.3,0.9-1.9,2.1-2.3c5.3-1.9,10.1-5,14.7-8.4c1.1-0.9,1.4-1.4-0.1-2.2c-4.1-2-6.4-5.5-7.2-10.5
	c-1.9-11.1-5.8-21.2-12.4-29.9c-1.1-1.5-2.4-2.9-3.7-4.5c0.7-0.3,1.3-0.4,1.8-0.7c1.2-0.7,1.5-0.3,1.8,1c0.4,2.6,2,4,4.2,4.7
	c4.7,1.6,9.2,0.5,13.5-2c4.8-2.8,9-6.6,12.4-11.3C707.7,246.9,706.7,222.3,694,206.3z M651.4,277.6L651.4,277.6
	C651.4,277.6,651.4,277.6,651.4,277.6L651.4,277.6L651.4,277.6C651.4,277.6,651.4,277.6,651.4,277.6
	C651.4,277.6,651.4,277.6,651.4,277.6C651.3,277.6,651.3,277.6,651.4,277.6C651.3,277.6,651.3,277.6,651.4,277.6
	C651.4,277.6,651.4,277.6,651.4,277.6C651.4,277.6,651.4,277.6,651.4,277.6C651.4,277.6,651.4,277.6,651.4,277.6z M611.3,259.9
	c0.8-6,1.8-11.9,3.1-17.7c0.2-0.9,0.4-1.3,1.3-1.6c2.8-0.8,2.9-1.2,1.2-3.6c-0.8-1.1-0.7-1.6,0.4-2.2c1.8-1,3.5-2.2,5.1-3.5
	c8.4-6.3,14.5-14.5,17.5-25.2l0.3,5.3c0.6,0.8,0.7,1.7,0.1,2.7c-0.3,0.5-0.7,0.9-1.1,1.3c-8.7,9.4-11.6,20.7-8.9,33.4
	c2.2,10.8,8,18.6,17.8,22.3c1,0.4,1.4,0.8,1.1,2c-0.3,1.1-0.1,2.2,0.3,3.2c0.1,0,0.1,0.1,0.2,0.2c0,0,0,0,0,0
	c-7.1,1.5-13.9,0.2-20.6-2.2c-4.2-1.5-8.1-3.7-11.2-7.2c-0.8-0.9-1.5-2.1-1.4-3.2c0.3-2.1-0.6-3.6-1.6-5.1c-0.2-0.8-0.8-1-1.4-0.7
	c-1.4,0.6-0.5,2.2-0.8,3.3c-0.5-0.2-1-0.4-1.5-0.5C611.2,260.6,611.3,260.3,611.3,259.9z M614.5,264.6
	C614.5,264.6,614.5,264.6,614.5,264.6C614.5,264.6,614.5,264.6,614.5,264.6C614.5,264.6,614.5,264.6,614.5,264.6z M648.8,284.3
	c-0.9,0.3-1.8,0.5-2.7,0.7c-3,0.5-6,0.4-9,0.2c-5.9-0.4-11.5-1.9-16.6-5.5c-1.2-0.8-2-1.9-2.3-3.4c-0.3-1.4-0.8-2.8-1.7-3.9
	c-1.2-1.5-2.6-1.2-3.2,0.7c-0.4,1.3-0.8,1.3-1.7,0.9c-1-0.4-2-0.6-3.1-0.5c0-0.2,0.1-0.4,0.1-0.7c0.2-1.5,0.5-2.9,1.3-3.8
	c1.1,0.2,2.2,0.2,3.3,0c0.2,0,0.4-0.1,0.6-0.1c0,0,0,0,0,0l0,0c2-1.8,3.4-0.7,4.8,1.1c0.4,0.5,0.9,0.8,1.4,1.2
	c5.3,4,11.3,5.9,17.6,7.1c4.4,0.9,8.8,0.5,13.2-0.2c-0.1,0.1-0.1,0.2-0.2,0.3c-0.4,1.1-0.6,2.3-0.3,3.4
	C650.6,283.3,649.9,283.9,648.8,284.3z"/>
<g>
	<path class="st5" d="M527.9,254.7c0-6.3-1.3-12.3-3.5-18.2c-0.8-2.2-2.3-4.2-1.2-6.8c0.5-1.1-0.3-2.3-1.1-3.3
		c-1-1.2-1.9-2.5-2.9-3.8c8.2-2.7,15.5-6.8,21.3-12.9c13.6-14.2,17.6-31.2,11.1-49.5c-6.5-18.5-20.1-29.5-40-31.9
		c-9.1-1.1-17.8,0.2-25.9,4.3c-1.5,0.8-2.8,0.5-4.2-0.1c-1.9-0.9-3.7-1.8-5.2-3.2c-1.8-1.7-2.5-0.8-3,1c-0.6,2.3,0.1,4.5,1.3,6.4
		c1.2,2,0.4,2.6-1.4,3c-2,0.4-4.1,0.6-6-0.4c-2.4-1.3-3,0.2-3.2,2.1c-0.4,3.9,1.6,6.7,4.4,9.1c0.4,1,1.1,1.7,1.9,2.4
		c5.9,4.9,12.6,7.7,20.4,7.2c1.8-0.1,3.3,0.2,4.8,1c10.3,5.3,16.2,14.1,19.2,25c0.6,2,0.9,4,1.5,5.9c0.2,0.8,0.4,1.8,1.5,1.8
		c1.1,0,1.1-1.1,1.3-1.9c0.3-2.1,0.9-4.1,3.5-4.3c1.6-0.1,2.7,2.5,2.3,5.3c-0.3,2.3-0.9,4.6-2.3,6.5c-1.6,2.2-3,2.6-5.5,1.6
		c-0.7-0.3-1.4-0.8-2-0.1c-0.6,0.8,0,1.6,0.6,2.2c1.5,1.4,2.1,3.2,2.7,5.1c1.1,3.2,2.7,6.1,5.5,8.2c1.5,1.1,1.1,1.9-0.4,2.5
		c-3.3,1.4-6.6,2.3-10.1,2.8c-1.4,0.2-2.8,0.3-3.9,1.2c-0.1,1.7,2.1,0.9,2.4,2.2c0.4,1.7,0.1,3.3,0.2,5c0.2,3,1.2,4.3,4.3,4.8
		c1.6,0.3,2.2,1,2.5,2.5c1.6,7.1,3.5,14,6.8,20.5c0.8,1.6,0.7,3.4,0.5,5.2c-0.4,3.3-0.9,6.6-1.6,9.9c-0.3,1.4-0.8,2.5-2.2,3
		c-9.7,3.7-19.1,4.2-28-2.1c-1.1-0.8-1.8-2.1-3.2-2.6c-2.3,1.8-0.6,2.9,0.7,4.1c8.2,6.9,17.5,7.8,27.5,4.8c0.9-0.3,1.8-0.6,2.6-0.9
		c1.5-0.6,2.2,0,2.4,1.6c0.4,2.8,0.7,5.7,0.9,8.6c1.1,15.1-0.3,29.9-4.6,44.5c-0.5,1.9-1,3.8-1.7,5.6c-0.3,0.8-0.6,2-1.8,1.8
		c-1.2-0.2-1.6-1.3-1.6-2.3c0-2.6-0.3-5.2-0.6-7.7c-0.4-3.3-0.8-6.6-1.6-9.9c-0.2-0.8-0.4-1.6-1.3-2c-1.1,0-1.1,0.9-1.3,1.7
		c0.3,5.1,1.4,10.2,1.8,15.3c0.1,0.9,0.3,1.8,0.1,2.7c-0.1,0.9-0.5,1.6-1.5,1.6c-1,0-1.1-0.8-1.2-1.5c-0.1-0.6,0-1.3-0.1-1.9
		c-0.1-0.8-0.2-1.6-1.1-1.8c-0.8,0-1.1,0.6-1.3,1.2c-0.3,1-0.9,1.6-2.1,1.3c-1.1-0.3-1.5-1.1-1.5-2.1c-0.1-1.7-0.2-3.3-0.4-5
		c-0.9-7.2-2.8-14.2-5.5-20.9c-2.9-7.3-4.8-14.8-5.6-22.5c-0.1-1.2-0.2-2.4-1.4-3.2c-1.8,1-0.9,2.9-1.2,4.3
		c0.4,7.6,2.6,14.7,5.2,21.8c2.3,6.3,4.6,12.5,5.4,19.2c0.1,0.7,0.2,1.5,0.2,2.2c0.2,5.2,0.2,5.2-4.8,6.5c-1.6,0.4-3.5,0.6-3.9,2.9
		c0.2,0.7-0.8,3.1,0.7,2.9c7.9-0.1,8.8,0.4,11.2-0.3c1.3-0.3,2.3-1.3,2-0.7c0.9,0.9-3.4,0.1-3.7,3.4c5.1,4.2,5.1-2.3,5.9-2.5
		c2-0.4,4-0.5,6-0.3c1,0.1,2.2,0.1,2.6,1.2c0.4,1-1,1.4-1.4,2.2c-0.1,0.3-0.1,0.5,0.1,0.7c1.3,0.3,2.4-0.2,3.4-0.9
		c3.6-9.7,6.5-19.7,7.9-30c1.7-12.6,1.4-25.1-0.3-37.7c-0.3-1.9-0.2-3.7,0.2-5.5c0.9-4.1,1.5-8.2,1.7-12.7"/>
	<path class="st6" d="M463.8,160.3c-6.3,16.9-4,32.5,7.2,46.7c6.2,7.8,14,13,23.7,15.5c0.2,0.1,0.5,0.3,0.7,0.4
		c-4.5,6-4.6,6.4-1.4,8.3c0.5-0.4,1.8,0.3,1.7-1c-1.9-2.2-1.9-2.5,1.2-5.4c-0.1,1.1-0.8,1.8-1.1,2.7c-0.3,0.8-0.9,1.7-0.3,2.6
		c0.3,0.3,0.4,0.7,0.8,0.8c1.6-0.5,1.8-2.1,2.5-3.3c0.8-1.2,1-2.8,2.6-3.3c0.6-0.2,1.4-0.2,1.4-1c0-0.8-0.8-0.8-1.4-1
		c-0.4-0.1-0.9-0.3-1.3-0.4c-6.7-1.3-13-3.7-18.7-7.6c-1.2-0.8-2.4-1.7-3.7-2.9c3.1-0.2,5.5-1.6,7.2-4c1.7-2.3,2.6-4.9,2.6-7.8
		c0-3.1-0.6-3.7-3.6-2.8c-2.9,0.8-5.7,1.8-8.7,0.9c-2.8-0.8-5-2.3-7-4.3c-0.6-0.6-1.3-1.2-2.2-0.8c-1.1,0.5-0.8,1.5-0.5,2.4
		c-3.6-10.4-4-21-0.9-31.6c0.2-0.6,0.3-1.3,0.2-1.9C464.8,160.8,464.7,160.2,463.8,160.3z"/>
	<path class="st7" d="M496.3,230.8c-0.3-0.3-0.5-0.5-0.8-0.8l0,0c-0.2,0.9-1.3,0.5-1.6,1.2c0.7,0.6,0.5,1.3,0.1,2
		c-2.2,3.9-3.9,8-6.5,11.6c-3.9,5.5-9.6,7.5-16,5.6c-7-2.1-11.8-7.1-16.5-12.2c-0.9-0.9-1.7-1.9-2.6-2.8c-0.5-0.2-0.7-0.8-1.4-0.7
		c-1.4,0.8-2.4,2-3.4,3.2c0.3,0.8,1,0.9,1.7,0.9c1.8-0.6,2.9,0.2,4,1.6c4.2,5.2,9.2,9.3,15.4,12.1c8.7,3.9,17.4,0.9,21.8-7.3
		c0.7-1.5,2.8-1.9,3.1-3.7C494.7,237.9,496.7,234.6,496.3,230.8z"/>
	<path class="st8" d="M441.9,221.2c0.2,0.9,0.9,1.9-1,2.1c-4.1,0.4-6.1,2.7-6.5,6.9c-0.4,4.1,1.2,6.5,5,7.8c0.4,0.1,0.7,0.2,1.1,0.2
		c0.8,0,1.5-0.1,2.1-0.6c2.5-1.8,2.2-5.2,4.2-7.3c0.9-1-0.6-1.4-1.5-1.6c-0.5-0.1-1.3,0-1.3-0.7c0-0.7,0.7-1.1,1.2-1.3
		c2.2-1.1,3.9-0.1,4.9,2.4c0.7,1.9-0.2,4.1,1.1,5.9c0.5,0.2,0.9,0.3,1.4,0.5c0.3-3.3,0.4-6.5-1.5-9.4c-1-1.7-2.4-2.7-4.4-2.2
		c-1.8,0.5-2.2-0.2-2.4-1.8"/>
	<path class="st9" d="M463.8,160.3c0.5,0.3,0.6,0.8,0.7,1.3c1.2-0.2,1.4-1.3,1.8-2.2c1.2-2.5,2.3-5.1,4.2-7.2
		c-0.7-0.6-1.5-1.2-2.2-1.8c-0.4,2.5-2.4,4.3-3.3,6.6C464.6,158.1,463.9,159.1,463.8,160.3z"/>
	<path d="M515,347.1c0.6-0.3,1.2-0.5,1.7-0.9c1.3-1,1.5-1.9-0.3-2.8c-2.8-1.4-5.6-0.8-8.4-0.4c-1,0.1-3.9,1.8-4.9,1.9
		c-1,1.5,0.4,2,1.9,2C508.3,347.6,511.7,347.4,515,347.1z"/>
	<path d="M505,342.1c0.9-0.1,2.1,0.1,2.1-1.2c0-1.1-1.2-0.9-1.9-1c-3.4-0.7-6.8-0.5-10.1,0.4c-1.2,0.3-2.4,0.6-2.3,2.2
		C496.8,342.3,501,343.1,505,342.1z"/>
	<path class="st5" d="M515,347.1c-3.3-0.1-6.7-0.1-10-0.2c1.5,1.4,3.3,0.5,4.9,0.7c1.7,0.1,3.5,0,5.2,0
		C515,347.4,515,347.2,515,347.1z"/>
	<path class="st10" d="M474.9,130.1c-0.9,2.7,0.1,4.7,1.3,6.7c1.2,1.9,0.7,3-1.4,3.7c-2.4,0.8-4.9,1.3-7.3,0.3
		c-2-0.8-2.3,0.3-2.2,1.8c0.2,2.3,1.3,4.3,2.9,5.9c5.8,5.5,12.3,9.9,20.7,9.2c6.4-0.5,10.8,2.8,15,6.5c6.6,5.6,10.7,12.9,12.8,21.3
		c0.6,2.3,1.2,2.9,2.9,0.8c1.2-1.4,2.8-1.5,4.3-0.9c1.6,0.6,2.5,2,2.6,3.6c0.4,5.9-0.2,11.4-6.2,14.5c-0.9,0.5-1.1,1.1-0.8,2.1
		c0.6,2.5,1.5,4.8,3,6.8c3.4,4.6,6.1,5,10.8,1.6c22.1-15.7,26-46.1,9.4-67.5c-13.1-16.9-38.5-21.7-55.9-13c-2.7,1.4-5,0.7-7.3-0.6
		C477.8,132.2,476.4,131.1,474.9,130.1z"/>
	<path class="st11" d="M470.5,152.2c-1.4-0.4-1.7,0.8-2.1,1.6c-1.3,2.6-2.6,5.2-3.9,7.8c-2.9,9.2-3.7,18.5-1.2,27.9
		c0.7,2.5,1.5,4.9,2.8,7.3c0.9-1.4-1.2-3.1,0.3-3.8c1.1-0.4,1.8,1.5,2.8,2.4c4.6,3.9,9.7,4,15.1,2.2c2.9-1,3-0.9,2.8,2.3
		c-0.1,2-0.7,3.8-1.5,5.6c-2.1,4.2-4.5,5.4-9.9,4.7c6.9,7.2,15.3,10.6,24.6,12.3c1.5,0.2,3,0.7,4.4,1.1c1.4,0.4,3.1,0.6,4.5-0.6
		c6.1-0.7,12.1-1.7,17.7-5.2c-5.3-2.8-7.8-7.3-8.9-12.7c-0.4-1.9-2.9-2-3.1-4c0.6-0.7,1-0.3,1.4,0.2c1.8,2,3.6,1.5,5.3,0
		c2.9-2.5,4.7-8.7,3.5-12.3c-0.5-1.5-1.4-2.9-3.2-2.4c-2.1,0.6-3.5,2.1-3.8,4.3c-0.1,0.8,0.5,1.6-0.3,2.5c-1.1-0.6-1-1.7-1.2-2.6
		c-2-9.5-5.6-18.2-13-24.9c-2.8-2.5-5.9-4.5-9.2-6.1c-1-0.5-1.9-0.6-2.9-0.5C483.5,160.1,476.6,157.2,470.5,152.2z"/>
	<path class="st12" d="M511.9,319.2c1.7,6.5,2.4,13.1,2.7,19.7c0.1,1.4,0.2,2.4,1.7,3.1c1.5,0.7,2.2,0.6,2.8-1.2
		c6.9-20.1,8.6-40.6,5.7-61.6c-0.3-2.2-1.4-1.6-2.7-1.1c-6.9,2.5-13.9,3.8-21.2,1.5c-3.3-1.1-6.3-2.6-8.8-5.1
		c-1.1-0.5-1.5,0.3-1.6,1.2c-0.4,2.8-0.7,5.6,0.5,8.3c0.9,10,3.5,19.6,7.2,29c2.8,7.3,4.8,14.8,4.5,22.7c-0.1,2.8,1.6,2.5,3.2,2.9
		c2.1,0.5,1.9-1,2.1-2.3c0.1-0.4,0.2-0.7,0.3-1c0.6-0.4,0.7-1,0.8-1.7c0.7-7.2,1-14.4,0-21.6c-0.5-3.7-2.2-7-3.7-10.4
		c-1.5-3.5-3.4-6.8-5.3-9.8c1.2,1.8,2.3,3.9,3.4,6c1.1,2.1,2.2,4.3,3,6.5c0.8,2.3,1.9,4.6,2.5,7.1c0.5,1.9,1,3.8,1.6,5.6
		C511.1,317.8,511.2,318.6,511.9,319.2z"/>
	<path class="st13" d="M496.3,230.8c-1.1,3.5-2.3,6.9-3.4,10.4c-1.2,3.6-2.2,7.2-2.4,10.9c-0.5,5.4-0.2,10.8-0.3,16.2
		c0,1,0,2,0.7,2.9c0.3,1.1,1.1,1.9,2,2.6c9.6,7.6,20.3,6.6,30.5,2.4c1-0.4,1.2-1.3,1.3-2.3c0.6-3.4,1.2-6.7,1.7-10.1
		c0.4-3,0-5.7-1.4-8.5c-3.1-5.9-4.5-12.5-5.9-19c-0.3-1.5-0.8-2.1-2.5-2c-2.7,0.2-4.1-1.2-4.3-3.9c-0.1-2,0.1-4.1,0.1-6.1
		c-3.9-0.9-4-0.8-5.3,2.6c-0.5,1.4-1.2,2.7-2.1,3.9c-0.8,1.1-1.7,2.7-3.2,1.9c-1.3-0.7-0.9-2.3-0.4-3.5c0.3-0.9,0.5-1.8,0.9-2.6
		c0.9-1.8,0.3-2.8-1.7-2.8C498.4,225.6,497.9,228.5,496.3,230.8z"/>
	<path class="st13" d="M513.5,227.9c0.1,1.5-0.4,3.2,1,4.5c1.3,1.1,5,0.6,6.6-1c1.5-1.5,0.7-2.9-0.3-4.2c-1-1.3-1.9-2.8-3.3-3.7
		C515.5,222,513.6,224.1,513.5,227.9z"/>
	<path class="st14" d="M511.9,319.2c0.1-0.8,0-1.6-0.5-2.3c-1.3,0.5-1.3-0.5-1.4-1.3c-0.2-1.4-0.3-2.8-0.2-4.3
		c-1.9-7.6-5.4-14.5-9.7-21c-0.3-0.5-0.7-1.5-1.4-1c-0.9,0.6,0,1.3,0.3,1.9c0.8,1.4,1.7,2.9,2.6,4.2c7.5,11.4,8.2,24,6.9,37.1
		c-0.1,0.9-0.1,1.8-0.2,2.8c0.7,0.4,0.6,1.2,0.7,1.9c1.4-0.6,1.1-1.7,0.9-2.8c-1.1-1.4-0.7-3-0.7-4c0.1-1,0.6-0.4,0.3-0.6
		c-0.1-0.1-0.2,0-0.2,0.2c0,1.1-0.5,2.3,0.3,3.3c1.3-0.5,1.2-1.8,1.2-2.8c0-2.3,0.2-4.6-0.1-6.8c-0.1-0.9-0.3-1.8,0.4-2.6
		C511.4,320.4,511.2,319.6,511.9,319.2z"/>
	<path class="st15" d="M511.2,321c-1.7-0.9-0.8,0.7-0.8,1c-0.2,3.7,0.1,7.5-0.7,11.2c-0.4,0.3-0.4,0.6-0.1,1c0.1,1,0,2-0.5,2.9
		c0,0.5-0.2,0.9,0,1.4c0.3,1-1.7,2.8,0.9,2.8c1.8,0,3.9,0.5,3.5-2.9C512.8,332.6,512,326.8,511.2,321z"/>
	<path class="st16" d="M491,271.2c-0.1-6.5-0.2-13,0.1-19.4c-0.9-1,0.7-2.5-0.6-3.5c-0.6,1.5-0.7,3-0.6,4.5
		c0.7,3.5,0.1,7.1,0.3,10.7c0.1,1.4,0,2.7,0,4.1c-0.3-4.9,0.5-9.9-0.3-14.8c-0.9,3.8-0.8,7.7-0.5,11.6c0.5,6.9-0.3,13.8,0.3,20.8
		c0.1,1.2,0.3,2.4,0.5,3.5c0.5-1.5-0.5-3.2,0.7-4.6c0-2.5,0-4.9,0.1-7.4c0-0.8-0.5-2,1-2.1C490.8,273.8,489.6,272.9,491,271.2z"/>
	<path class="st17" d="M500.6,223.6c1.4,0.3,2,0.8,1.2,2.4c-0.7,1.4-1.1,2.9-1.4,4.5c-0.2,1.2-0.1,2.5,1.2,3.1
		c1.2,0.5,2.1-0.3,2.9-1.1c1.5-1.4,2.8-3.2,3.1-5.2c0.5-3.1,2.1-3.7,4.8-3.2c-0.7-1.4-2.5,0-3.3-1.2c-3-0.2-5.9-0.4-8.9-0.5
		c0.5,0.8,1.5,0.3,2.2,0.7C501.9,223.8,501.1,223.3,500.6,223.6z"/>
	<path class="st13" d="M526.6,253.2c-0.7-7.3-2.1-13.9-5.4-20.4C520.5,236,524.1,249.4,526.6,253.2z"/>
	<path class="st18" d="M468,196.5c1,4.2,2.7,7.7,5.7,10.5c3.7,3.4,7.9,2.7,10.4-1.7c0.3-0.6,0.6-1.1,0.8-1.8
		c0.4-1.5,1.6-3.2,0.6-4.4c-0.7-0.9-2.3,0.4-3.6,0.6C476.9,200.8,473.9,200.1,468,196.5z"/>
	<path class="st13" d="M495.6,230c0.9-2.1,1.8-4.2,2.8-6.3c-1.9,0.1-5.1,3-5,4.7C493.4,229.9,494.2,230.4,495.6,230
		C495.6,230,495.6,230,495.6,230z"/>
	<path class="st11" d="M451.1,234.8c0.1-2.5,0.4-5-0.9-7.3c-0.7-1.3-1.4-2.5-3.1-2.3c-1.7,0.1-3.3,0.7-4.3,2.2
		c-0.8,1.3-0.3,2.1,1.3,2c0.8,0,1.6-0.6,2.7,0.2c-3.7,1.2-1.9,5.5-4.6,7.3c1.6,1.7,3.5,2,5.5,0.8C449.7,237.6,450.3,236,451.1,234.8
		z"/>
	<path class="st19" d="M490.5,248.3c0.4,1.1-0.4,2.5,0.6,3.5c0.6-3.5,1.2-7,1.8-10.6c-0.1,1.9-2.8,1.4-2.9,3.3
		c0.6-0.3,1-0.4,0.9,0.6C490.8,246.2,490.6,247.2,490.5,248.3z"/>
	<path class="st11" d="M436.4,230.4c0,1.6,0.1,2.7,0.7,3.7c1,1.8,2.9,2.4,4.4,1.2c1.6-1.2,2.2-2.9,0.8-4.5c-1.1-1.2-1.3-2.3-0.8-3.7
		c0.8-2-0.7-1.8-1.7-1.6C437,226.2,436.8,228.6,436.4,230.4z"/>
	<path class="st20" d="M484.3,181.7c-1.4,0.2-3.1,0.2-3.1,1.9c0,2.1,1.9,2.5,3.6,2.6c1.4,0.1,3.2-0.2,3.1-2
		C487.9,182,485.9,181.9,484.3,181.7z"/>
	<path class="st21" d="M465.9,180.9c1.3,0.2,2.9,1,3.5-0.6c0.8-2-0.8-3-2.3-3.7c-1.3-0.6-2.9-1.1-3.6,0.6
		C462.8,179.2,464.7,180,465.9,180.9z"/>
	<path class="st5" d="M509.7,311.4c-1.1,1.9-0.7,3.9-0.2,5.8c0.2,0.7,0.7,1.1,1.4,1c0.2-0.1,0.2-0.8,0.4-1.2
		C511.1,315,510.5,313.2,509.7,311.4z"/>
	<path class="st5" d="M509.5,334.3c0-0.3,0.1-0.7,0.1-1c-0.1-1.3-0.1-2.6-0.2-4C509.2,331,508.5,332.6,509.5,334.3z"/>
	<path class="st19" d="M489.9,252.8c0,5.2-0.1,10.3-0.1,15.5C490,263.1,491.3,258,489.9,252.8C489.9,252.8,489.9,252.8,489.9,252.8z
		"/>
	<path class="st22" d="M501.7,230.5c0,0.6-0.1,1.3,0.4,1.6c0.7,0.4,1.2-0.2,1.6-0.7c1.4-1.5,2.4-3.2,3-5.2c0.2-0.6,0.7-1.6-0.3-1.9
		c-0.9-0.3-2.1-0.6-2.7,0.6C502.8,226.7,501.9,228.5,501.7,230.5z"/>
	<path class="st23" d="M421,254.2c8.1-6.1,16.4-12.3,21.6-20.6c10.2-16.3,6.5-36.9,2.6-55.8s-7.4-39.6,3.2-55.7"/>
	<path class="st24" d="M476.4,89c-3.6,13-15.4,26.5-26,33.5c-0.8,0.5-1.4,0.5-2.1-0.2c-9.9-10.3-17.6-21.6-18.5-36.4
		c-0.3-4.8,0.3-9.5,1.8-14.1c1.8-5.4,5-9,11.7-12.2c7.5-3.1,16.3-2.7,24.8,2C475.2,65.5,480.6,75.7,476.4,89"/>
	<path class="st24" d="M450.7,125.7c0.7,1.1-0.2,1.3-0.8,1.5c-1.2,0.5-2.7,0.7-3.4-0.5c-0.7-1.3,0.8-2.4,1.7-2.8
		C449.5,123.4,449.9,125.2,450.7,125.7z"/>
	<path class="st25" d="M460,86.7c-1.6-5.6-3.2-11-3.7-16.7c-0.1-0.7,0-1.4,0.1-2.1c0.1-0.9,0.4-1.8,1.5-2c1.1-0.2,1.9,0.3,2.4,1.3
		c1.5,2.6,2.3,5.3,2.2,8.3C462.3,79.3,461.3,83,460,86.7z"/>
	<path class="st26" d="M511.8,283.1c1,1.3,2.2,2.5,3.6,3.5c0.9,0.6,1.9,1.2,2.9,1.8c0.7,0.4,1.5,0.9,2.2,1.3c0.6,0.4,1.2,0.7,1.9,1
		c1.3,0.5,2.8,0.6,4.2,1"/>
	<path class="st27" d="M520,237.1c2.9,7,5,14.2,6.3,21.4c0.4,2.5,0.8,5,0.8,7.5c0,7.9-3.7,15.5-7.6,22.9"/>
</g>
<path class="st5" d="M144.3,426.7c-8.5,0.2-13.5-1-16-5.1c-2.8-4.7-4.3-9.7,3-14.1c1.2-0.7,2.9-1.6,4.5-1.6"/>
<path class="st5" d="M135.4,405.9c2.4-0.9,1.3,0.4,3.9-0.3c4.4-1.2,6.9,0.6,9.7,6.6c1.2,2.7,2,2.6,3.6,0.6c1.8-2.3,2.8-4.7,2.5-7.9
	c-1-10.4,0.1-20.5,2.8-30.4c1-3.7,3.1-7.1,0.9-11.3c-0.9-1.8,0.2-3.9,1.2-5.6c1.4-2.1,2.7-4.2,4.2-6.6
	c-13.9-3.9-26.5-10.2-37.2-19.9c-24.7-22.7-34.1-50.5-26.6-81.4c7.6-31.2,28-50.4,60.3-55.7c14.7-2.4,29.1-0.9,43.3,5.3
	c2.7,1.2,4.7,0.7,6.9-0.4c2.9-1.6,5.7-3.3,8-5.7c2.7-2.9,3.9-1.4,5,1.5c1.4,3.8,0.6,7.4-1,10.6c-1.7,3.3-0.2,4.4,2.8,4.8
	c3.4,0.5,6.9,0.7,9.8-1c3.8-2.2,4.9,0.2,5.6,3.2c1.4,6.4-1.6,11.2-5.6,15.4c-0.5,1.6-1.5,3-2.7,4.1c-8.9,8.6-19.4,13.7-32.3,13.3
	c-2.9-0.1-5.3,0.5-7.7,1.9c-16.1,9.5-24.1,24.5-27.3,42.8c-0.6,3.3-0.8,6.7-1.5,9.9c-0.2,1.3-0.4,3-2.1,3.1c-1.8,0.1-2.1-1.7-2.4-3
	c-0.9-3.5-2.2-6.8-6.4-6.9c-2.7-0.1-4,4.3-2.8,9c0.9,3.8,2.2,7.5,4.9,10.6c3,3.5,5.3,4.1,9.2,2.3c1.1-0.5,2.2-1.5,3.3-0.3
	c1.2,1.3,0.3,2.7-0.6,3.7c-2.2,2.5-2.9,5.5-3.6,8.6c-1.3,5.4-3.4,10.3-7.6,14c-2.3,2-1.5,3.2,1.1,4.1c5.6,2.1,11.3,3.4,17.1,4
	c2.3,0.2,4.6,0.3,6.7,1.7c0.4,2.9-3.3,1.6-3.6,3.8c-0.4,2.8,0.4,5.5,0.5,8.3c0.1,5.1-1.3,7.2-6.2,8.3c-2.5,0.5-3.4,1.9-3.7,4.3
	c-1.4,11.8-3.4,23.5-7.8,34.4c-1.1,2.7-0.6,5.8,0.1,8.6c1.2,5.5,2.6,10.9,4.2,16.3c0.7,2.2,1.8,4.1,4.1,4.8
	c16.5,5.5,32,5.7,45.6-5.4c1.7-1.4,2.6-3.7,4.8-4.6c4,2.8,1.5,4.8-0.5,6.9c-12.4,11.9-27.4,14.1-44.3,9.8c-1.5-0.4-3-0.8-4.5-1.3
	c-2.6-0.8-3.6,0.1-3.7,2.8c-0.1,4.8-0.2,9.5-0.1,14.3c0.7,25.1,5.6,49.7,15,73.5c1.2,3.1,2.3,6.2,3.8,9.1c0.7,1.4,1.2,3.2,3.2,2.8
	c2-0.4,2.4-2.2,2.2-4c-0.4-4.3-0.3-8.6-0.3-12.9c0.1-5.5,0.2-11,0.9-16.5c0.2-1.4,0.5-2.7,1.8-3.5c1.8,0,2,1.4,2.4,2.7
	c0.4,8.6-0.7,17-0.4,25.6c0,1.5-0.1,3.1,0.2,4.6c0.4,1.5,1.1,2.7,2.8,2.5c1.6-0.1,1.7-1.4,1.7-2.6c0-1.1-0.2-2.1-0.2-3.2
	c0.1-1.3,0.1-2.6,1.6-3.1c1.3-0.1,1.9,0.9,2.4,1.9c0.7,1.7,1.8,2.5,3.6,2c1.7-0.6,2.2-1.9,2.1-3.6c-0.2-2.8-0.2-5.5-0.2-8.3
	c0.3-12,2.2-23.7,5.5-35c3.6-12.3,5.5-24.8,5.4-37.8c0-2-0.1-4,1.7-5.4c3.2,1.6,2,4.7,2.7,7.1c0.6,12.6-1.7,24.6-4.9,36.5
	c-2.8,10.5-5.4,21.1-5.6,32.2c0,1.2-0.1,2.4,0,3.7c0.5,8.7,0.5,8.7,9,10.4c2.8,0.6,5.9,0.8,6.9,4.5c-0.2,1.1,1.9,5.1-0.6,4.9
	c-13,0.4-14.4,1.2-18.4,0.3c-2.2-0.5-4.1-2.1-3.4-1c-1.3,1.5,5.6-0.1,6.6,5.4c-7.6,7.4-8.7-3.4-10.2-3.7c-3.3-0.6-6.6-0.6-9.8,0
	c-1.6,0.3-3.6,0.4-4,2.2c-0.4,1.8,1.9,2.2,2.6,3.5c0.2,0.4,0.2,0.8-0.1,1.2c-2.1,0.6-3.9-0.2-5.7-1.3c-7.6-15.9-13.9-32.2-18-49.2
	c-5-20.8-6.6-41.6-5.8-62.5c0.1-3.1-0.3-6.1-1.3-9.1c-2.2-6.7-3.9-13.5-4.9-20.9c-2.8,2.2-6,3.4-7,7.1c-0.6,2.2-2.4,3.9-4.6,4.5"/>
<path class="st6" d="M244.2,243.9c13.1,27.6,12.1,53.7-3.9,78c-8.8,13.3-20.9,22.6-36.4,27.3c-0.4,0.1-0.7,0.5-1.1,0.7
	c8.4,9.6,8.6,10.3,3.7,13.6c-0.9-0.7-2.8,0.7-2.9-1.6c2.8-3.8,2.6-4.3-2.9-8.9c0.4,1.9,1.6,3,2.2,4.3c0.7,1.4,1.7,2.7,0.9,4.3
	c-0.4,0.5-0.5,1.2-1.2,1.4c-2.8-0.7-3.2-3.4-4.7-5.3c-1.5-1.9-2.1-4.5-4.8-5.3c-1-0.3-2.3-0.3-2.5-1.6c-0.2-1.4,1.1-1.5,2.1-1.8
	c0.7-0.2,1.4-0.5,2-0.8c10.8-2.6,20.7-7.1,29.4-13.8c1.9-1.5,3.7-3,5.5-5.1c-5.2-0.1-9.2-2.2-12.5-6.1c-3.1-3.7-5.1-8-5.6-12.7
	c-0.6-5.2,0.4-6.1,5.5-4.9c4.8,1.2,9.6,2.5,14.4,0.9c4.4-1.5,7.8-4.2,10.8-7.7c0.9-1,2-2.1,3.5-1.5c1.8,0.8,1.6,2.5,1.2,4
	c4.2-17.6,3.1-35.1-3.9-52.5c-0.4-1-0.7-2.1-0.6-3.2C242.7,244.8,242.8,243.7,244.2,243.9z"/>
<g>
	<path class="st8" d="M203.8,361.7C203.8,361.7,203.8,361.7,203.8,361.7C203.8,361.7,203.8,361.7,203.8,361.7L203.8,361.7z"/>
	<path class="st8" d="M295.5,371.5c0.6-0.1,1.2-0.2,1.7-0.4c6.1-2.4,8.3-6.5,7-13.3c-1.3-7-5-10.7-11.8-11L283,348
		c-3.3-0.8-5.4,1.1-6.8,3.9c-2.5,5-1.9,10.3-0.8,15.7c0,0,0,0,0,0c0,0,0,0,0,0c-1.3,1.6-2.5,3.3-3.8,4.9c-6.9,8.8-14,17.4-25.1,21.4
		c-10.2,3.7-20,0.7-27.2-8.1c-4.8-5.9-8.4-12.6-12.6-18.9c-0.7-1.1-1.2-2.2-0.2-3.3c-0.6-1.1-2.3-0.5-2.8-1.9
		c-0.4,0.5-0.7,0.9-1.1,1.4c0.1,6.3,3.9,11.5,6.2,17.2c0.9,3,4.3,3.5,5.7,5.9c8.5,13.4,23.3,17.7,36.9,10.7
		c9.6-5,17.2-12.2,23.2-21.1c1.6-2.3,3.3-3.8,6.3-2.9"/>
</g>
<path class="st9" d="M244.2,243.9c-0.8,0.5-0.8,1.4-0.9,2.2c-2-0.3-2.4-2.1-3.3-3.6c-2.4-4.1-4.6-8.4-8.2-11.7
	c1.1-1.1,2.2-2.1,3.3-3.2c1.1,4.2,4.7,6.9,6.5,10.7C242.5,240.3,243.9,241.8,244.2,243.9z"/>
<path class="st28" d="M191.6,557.3c-1-0.4-2.1-0.7-3-1.3c-2.3-1.7-2.8-3,0-4.7c4.3-2.5,9-1.7,13.7-1.3c1.7,0.2,6.7,2.7,8.4,2.9
	c1.8,2.5-0.3,3.3-2.7,3.4C202.7,557.8,197.2,557.6,191.6,557.3z"/>
<path class="st29" d="M207.2,548.3c-1.4-0.2-3.4,0.3-3.7-1.8c-0.2-1.9,1.9-1.5,3-1.8c5.4-1.4,11-1.3,16.6-0.1c2,0.4,4,0.9,4.2,3.6
	C220.6,548.1,214,549.7,207.2,548.3z"/>
<path class="st5" d="M191.6,557.3c5.5-0.3,11-0.7,16.4-1c-2.2,2.4-5.3,1.1-7.9,1.4c-2.8,0.4-5.7,0.3-8.5,0.4
	C191.6,557.8,191.6,557.6,191.6,557.3z"/>
<path class="st30" d="M221,194.5c1.9,4.3,0.7,7.9-0.9,11.3c-1.6,3.3-0.7,5,3,6c4.1,1.1,8.2,1.8,12.1,0c3.2-1.5,3.8,0.4,3.9,2.9
	c0.1,3.8-1.4,7.3-3.8,9.9c-8.5,9.5-18.5,17.2-32.3,16.7c-10.5-0.4-17.2,5.4-23.6,11.8c-9.9,9.8-15.4,22.2-17.4,36.2
	c-0.5,3.8-1.5,4.9-4.6,1.6c-2.1-2.3-4.8-2.3-7.2-1.2c-2.5,1.1-3.8,3.4-3.7,6.2c0.4,9.8,2.3,18.9,12.7,23.7c1.6,0.7,1.9,1.8,1.7,3.4
	c-0.6,4.1-1.7,8.1-3.8,11.5c-4.8,7.9-9.2,8.6-17.5,3.4c-38.9-24.5-50.4-74.7-26.7-111.4c18.7-29,59.6-38.7,89.5-25.4
	c4.7,2.1,8.3,0.8,11.9-1.5C216.5,198.1,218.6,196.3,221,194.5z"/>
<path class="st31" d="M231.8,230.9c2.3-0.8,2.9,1.2,3.8,2.5c2.6,4.2,5.1,8.5,7.7,12.7c6.3,15,9.2,30.4,6.7,46.2
	c-0.7,4.2-1.7,8.3-3.4,12.3c-1.7-2.2,1.5-5.3-1.2-6.2c-1.8-0.6-2.7,2.7-4.1,4.1c-6.9,6.8-15.3,7.3-24.5,4.6c-5-1.5-5.1-1.4-4.2,3.9
	c0.6,3.3,1.7,6.3,3.5,9.1c4.2,6.8,8.3,8.6,17,7.2c-10.2,12.4-23.3,18.6-38.2,22.1c-2.5,0.4-4.7,1.4-7.1,2.1c-2.3,0.7-5,1.2-7.4-0.6
	c-10.1-0.7-20.1-2.1-30-7.4c8.3-4.9,11.5-12.6,12.5-21.6c0.3-3.1,4.5-3.5,4.4-6.8c-1-1.1-1.7-0.3-2.2,0.3c-2.6,3.5-5.6,2.7-8.7,0.3
	c-5.1-3.9-9.1-14.1-7.8-20.1c0.6-2.6,1.9-4.9,4.8-4.2c3.5,0.8,6,3.2,7,6.9c0.3,1.2-0.6,2.7,0.9,4.1c1.7-1.1,1.3-2.9,1.5-4.4
	c1.6-16,6.1-30.6,17.1-42.3c4.1-4.4,8.8-7.9,14.1-10.8c1.5-0.8,2.9-1.1,4.7-1C211.9,244.8,222.7,239.6,231.8,230.9z"/>
<path class="st32" d="M192.1,510.9c-1.7,10.9-1.7,21.9-1.2,33c0.1,2.3,0.1,4-2.3,5.2c-2.4,1.2-3.5,1.1-4.7-1.7
	c-14.7-32.9-21-66.8-19.6-101.9c0.1-3.7,2-2.7,4.2-2c11.8,3.7,23.5,5.3,35,1c5.2-2,9.9-4.7,13.6-9c1.8-0.8,2.5,0.3,2.9,1.8
	c1.2,4.6,2,9.2,0.6,13.8c0.3,16.7-2.5,32.8-6.9,48.6c-3.5,12.2-5.4,25-3.6,38c0.7,4.7-2.2,4.3-4.8,5c-3.4,0.9-3.3-1.6-3.9-3.6
	c-0.2-0.6-0.5-1.1-0.7-1.7c-1.1-0.6-1.4-1.7-1.6-2.8c-2.4-11.9-4-23.8-3.7-35.8c0.2-6.2,2.5-11.8,4.3-17.6c1.9-5.9,4.5-11.4,7-16.6
	c-1.7,3-3.1,6.6-4.6,10.1c-1.5,3.6-2.9,7.2-3.9,11.1c-1,4-2.3,7.8-2.9,11.9c-0.5,3.2-1,6.3-1.7,9.5
	C193.1,508.4,193.1,509.9,192.1,510.9z"/>
<path class="st33" d="M202.7,363.1c2.4,5.7,4.9,11.4,7.3,17c2.5,5.8,4.8,11.7,5.7,18c1.7,8.9,2.2,17.9,3.2,26.9
	c0.2,1.6,0.3,3.4-0.7,4.8c-0.3,1.9-1.5,3.2-2.8,4.4c-14.4,13.2-32.2,12.3-49.6,6c-1.8-0.6-2.2-2.2-2.6-3.7
	c-1.5-5.6-3.1-11.1-4.4-16.7c-1.2-4.9-1-9.5,0.9-14.2c4.1-10.1,5.2-21.1,6.5-32c0.3-2.6,1-3.6,3.8-3.5c4.5,0.1,6.6-2.3,6.4-6.8
	c-0.1-3.4-0.8-6.7-1.2-10.1c6.3-1.7,6.4-1.6,9.1,3.9c1.1,2.3,2.4,4.4,4,6.4c1.5,1.8,3.3,4.3,5.6,2.9c2-1.2,1.1-3.8,0.1-5.9
	c-0.7-1.4-1.2-2.9-2-4.3c-1.7-3-1-4.6,2.4-4.8C198.4,354.5,199.7,359.4,202.7,363.1z"/>
<path class="st34" d="M174,359.3c0.1,2.4,1.3,5.3-0.9,7.6c-1.9,2-8.1,1.3-11-1.3c-2.6-2.3-1.6-4.8-0.3-7c1.4-2.3,2.7-4.8,4.7-6.4
	C169.7,349.7,173.3,353.1,174,359.3z"/>
<path class="st14" d="M192.1,510.9c-0.2-1.3-0.3-2.7,0.5-3.8c2.2,0.7,2.1-1,2.1-2.2c0-2.4,0.1-4.7-0.4-7.1
	c1.9-12.7,6.4-24.4,12.3-35.6c0.4-0.8,0.9-2.5,2.1-1.8c1.6,0.9,0.3,2.1-0.2,3.1c-1.1,2.4-2.3,4.9-3.6,7.2c-10.3,19.4-9.5,40.4-5,62
	c0.3,1.5,0.5,3,0.7,4.6c-1.2,0.8-0.7,2.1-0.9,3.2c-2.4-0.9-2.1-2.8-2-4.6c1.6-2.4,0.6-5.1,0.5-6.7c-0.4-1.6-1.1-0.7-0.6-1
	c0.2-0.1,0.3,0,0.4,0.3c0.2,1.9,1.2,3.8,0,5.6c-2.3-0.8-2.2-2.9-2.4-4.6c-0.5-3.8-1.1-7.5-1-11.4c0-1.5,0.2-3.1-1.1-4.3
	C193.1,512.8,193.3,511.5,192.1,510.9z"/>
<path class="st15" d="M193.5,513.8c2.6-1.5,1.5,1,1.6,1.6c0.9,6.2,1.1,12.5,3.1,18.6c0.8,0.5,0.7,1.1,0.3,1.7
	c-0.1,1.7,0.3,3.3,1.2,4.8c0.1,0.8,0.4,1.6,0.3,2.3c-0.3,1.6,3.2,4.5-1,4.8c-2.9,0.2-6.2,1-6.2-4.6
	C192.8,533.2,193.2,523.5,193.5,513.8z"/>
<path class="st16" d="M218.2,429.8c-0.9-10.8-1.8-21.5-3.5-32.2c1.3-1.8-1.5-4.2,0.5-5.9c1.2,2.4,1.7,4.9,1.7,7.5
	c-0.6,5.9,1,11.8,1.4,17.8c0.1,2.3,0.5,4.6,0.7,6.8c-0.4-8.2-2.4-16.4-2-24.6c2.1,6.3,2.5,12.8,2.7,19.1c0.4,11.5,2.8,23,3,34.5
	c0,2-0.2,3.9-0.2,5.9c-1.1-2.5,0.3-5.4-1.9-7.7c-0.5-4.1-0.9-8.2-1.5-12.3c-0.2-1.3,0.5-3.3-2-3.4
	C219.1,434,220.8,432.5,218.2,429.8z"/>
<path class="st35" d="M143.6,408.4c0.6,2,4.8,13.6,2.2,16.2c-1.7,1.7-14.4-0.7-15.4-2.7c-1.6-3.2-3.1-5-2.4-8.3
	c0.5-2.2,3.2-4.5,5.4-5.1C136,407.7,143.3,405.3,143.6,408.4z"/>
<path class="st17" d="M194.5,351.3c-2.2,0.7-3.2,1.5-1.5,4.1c1.4,2.2,2.3,4.8,3.1,7.3c0.6,1.9,0.6,4.2-1.5,5.3c-1.9,1-3.5-0.3-5-1.6
	c-2.7-2.3-5.2-5.1-6-8.3c-1.3-5.1-4.1-6-8.4-5c1-2.4,4.1-0.2,5.2-2.3c4.8-0.5,9.7-1,14.5-1.5c-0.7,1.3-2.4,0.6-3.4,1.4
	C192.4,351.8,193.6,350.9,194.5,351.3z"/>
<path class="st36" d="M156.8,402.2c-0.1-12.2,1.1-23.2,5.5-34.2C164,373.2,160.3,395.8,156.8,402.2z"/>
<path class="st18" d="M243.5,304.1c-1,7-3.1,13-7.6,17.8c-5.5,5.9-12.4,4.9-17.4-2.1c-0.6-0.9-1.2-1.9-1.6-2.9
	c-1-2.4-3.1-5.2-1.7-7.3c1-1.5,3.9,0.5,6,0.8C229.5,311.9,234.4,310.6,243.5,304.1z"/>
<path class="st37" d="M203.8,361.7c-1.9-3.4-3.7-6.8-5.6-10.2c3.1,0,8.9,4.7,9,7.5C207.3,361.3,206.1,362.3,203.8,361.7
	C203.8,361.7,203.8,361.7,203.8,361.7z"/>
<path class="st19" d="M215.2,391.7c-0.5,1.9,1.1,4.1-0.5,5.9c-1.6-5.8-3.1-11.6-4.7-17.4c0.4,3.1,4.9,2.1,5.3,5.3
	c-1-0.4-1.8-0.6-1.3,1C214.4,388.2,214.8,389.9,215.2,391.7z"/>
<path class="st38" d="M301.9,358.2c0.3,2.7-0.6,6.6-1.3,8.3c-1.3,3.1-17.7,4.5-20.4,2.6c-2.8-1.9-4-7.5-3.4-12.5
	c0.3-2.7,1.7-4.2,3.6-5.3c1.4-3.5,12.4-2.3,14-2C299.1,350.3,301,355.3,301.9,358.2z"/>
<path class="st20" d="M217.7,284.6c0,2.4,0.3,5.1-2.4,5.3c-3.5,0.2-4.5-2.9-5-5.7c-0.4-2.3-0.4-5.3,2.5-5.3
	C216.4,278.8,217,282.1,217.7,284.6z"/>
<path class="st21" d="M239.2,274.4c0.2-2.2-0.3-5.1,2.4-5.2c3.5-0.2,4.5,2.9,5,5.7c0.4,2.3,0.5,5.2-2.5,5.3
	C240.7,280.2,240.1,276.9,239.2,274.4z"/>
<path class="st5" d="M194.3,497.7c2.1,3.1,1.8,6.4,1.3,9.7c-0.2,1.1-1,2-2.2,1.7c-0.4-0.1-0.5-1.3-0.8-2
	C192.7,503.8,193.3,500.7,194.3,497.7z"/>
<path class="st5" d="M198.5,535.7c-0.1-0.6-0.2-1.1-0.3-1.7c-0.1-2.2-0.2-4.4-0.4-6.6C198.5,530.1,199.9,532.9,198.5,535.7z"/>
<path class="st19" d="M216.9,399.2c0.9,8.6,1.8,17.1,2.8,25.7C218.5,416.3,215.6,407.8,216.9,399.2
	C216.9,399.2,216.9,399.2,216.9,399.2z"/>
<path class="st22" d="M193.9,363c0.1,1,0.5,2.1-0.4,2.7c-1.1,0.7-2-0.3-2.8-1c-2.6-2.4-4.5-5.2-5.8-8.4c-0.4-1.1-1.4-2.7,0.1-3.2
	c1.4-0.5,3.3-1.1,4.5,0.8C191.5,356.7,193.3,359.7,193.9,363z"/>
<g>
	<path class="st39" d="M384.1,285.5c-0.2,0.3,14-5.6,13.6-4.7c2.8-0.8,5.2-1.4,7.1-3.2c23.4-22.5,61-19,83.2,3.8
		c25.9,26.7,30.3,69.3,9.6,98.2c-6.1,8.5-13.7,15.5-22.7,20.8c-7.9,4.7-16.4,7-25.7,4.6c-4.3-1.1-7.5-3.5-8.6-7.9
		c-0.6-2.4-1.3-3-3.5-1.7c-0.9,0.6-2,0.9-3.4,1.5c2.6,2.6,5.1,4.9,7.5,7.4c13.6,14.5,22.1,31.8,26.8,51c2.1,8.6,6.8,14.4,14.9,17.6
		c2.9,1.2,2.5,2.2,0.4,3.8c-8.5,6.5-17.3,12.2-27.3,16c-2.2,0.8-3.2,2.1-3.7,4.3c-1.8,7.6-3.2,15.3-1.7,23.1
		c1.2,6.5,4.3,11.7,10.9,14c5.3,3.1,11.2,3,17,3c2.9,0,5.7-0.3,8.4,1.1c-0.5,3.2-3.3,1.1-4.7,2.1c-0.4,0.1-0.9,0.1-1.3,0.1
		c-5.7-1.3-11.6-0.7-17.2-2.3c-9.1-2.2-14-8.4-15.9-17.2c-1.6-7.2-0.5-14.5,1-21.6c0.3-1.3,1-2.6,0.5-4.2
		c-7.2,1.7-14.5,2.9-21.9,2.3c-1.8-0.1-2,1.3-2.5,2.4c-4.4,9.8-7.3,19.8-6.6,30.7c0.1,0.3,0.3,0.7,0.2,1.1c-0.2,1,0.4,2.5-0.9,2.8
		c-1.2,0.3-1.7-1.1-2.3-2c-0.4-0.8-0.6-1.6-0.8-2.4c-0.4-9.9,1.6-19.3,5.4-28.4c0.8-1.9,1.5-3.4-1-4.7c-1.6-0.8-1.8-2.7-1.7-4.4
		c0.1-2.6,0-5.2,0.6-7.6c1.4-5.4,0.4-10.6-0.9-15.8c-3.1-13.3-3-26.6-0.4-39.9c0.8-4.3-0.1-5.1-4.3-3.7c-7.8,2.6-15.8,3.4-24.1,3.4
		c-12.8,0.1-24.8-2.8-36.1-8.5c-1.7-0.9-3-0.5-4.6,0.5c-6.2,4.1-16.8,2.8-21.9-2.6c-4.4-4.7-3-9.9,3.2-11.6c2.7-0.8,5.3-0.7,7.9,0.2
		c1.7,0.5,2.7,0.5,3.2-1.7c0.8-3.4,3.5-3.9,6-1.5c1.9,1.8,3,4.2,3.7,6.6c0.8,2.6,2.4,4.3,4.8,5.7c10,5.8,20.9,7.9,32.3,8
		c5.7,0,11.5,0,17.2-1.2c1.8-0.4,3.5-0.8,5.1-1.5c2.1-0.8,3.2-1.9,2.4-4.3c-0.7-2-0.6-4,0.2-6c0.3-0.6,0.7-0.9,1.3-1.2
		c2.7-1.6,5.6-3,8.5-4.4c1.3-0.6,2.5-1.4,3.2-2.6c0.4-0.7,1.2-1.5,0.5-2.4c-0.5-0.7-1.4-0.4-2.2-0.4c-2.2,0.2-4.3,0.2-6.5,0.3
		c-3.3,0.1-4.5,2-3.5,5.2c0.4,1.3,1.4,2.5,0.6,4c-2,0.8-2.6-1.2-3.9-1.8c-0.9-1.7-1.4-3.7-1-5.5c0.5-2.2-0.4-2.9-2.3-3.4
		c-19.1-5.4-31-18.6-36.3-37.1c-6.3-21.9-1.9-41.9,13.8-59c0.7-0.8,1.4-1.5,1.9-2.4c0.9-1.6,0.7-3.3-0.5-4.6"/>
	<path class="st40" d="M415.8,534.2c0.1-0.8,0.1-1.5,0.2-2.3c0.7,0.5,0.5,1.7,1.9,1.9c0.2-1.1,0.4-2.3,0.6-3.4
		c1.2,3.2,0.7,6.8,2.9,9.7c1.9,1.3,2.1,3.5,2.8,5.5c1.4,3,3.9,5.2,6.2,7.4c1,0.9,2.3,1.6,2.2,3.2c-0.9,1.3-2.7,2.3-3.8,2.3
		c-9.1,0.1-12.2,1.2-21.7-2.3c-0.9,0-1.7-1.1-2.1-2.2c4.4-4.3,9.8-3.6,15.2-2.8c1.5,0.2,2.9,0.6,5.4,1.1
		C420.1,546.8,417.5,540.7,415.8,534.2z"/>
	<path class="st41" d="M407.1,555c2.4-2.2,5.4-2.6,8.5-2.3c4.9,0.4,9.7,1.1,13.8,4.1C427.3,558.9,407.8,557.8,407.1,555z"/>
	<path class="st42" d="M463.6,538.1c6.2,0.5,12.4,0.9,18.5,1.4c-1.4,3-4.4,4.4-6.3,6.9c-1.2,1.6-2.6,3.2-3.1,5.2
		c-0.2,0.8,0,1.5,0.7,2.1c0.6,0.5,1.2,0.2,1.8-0.1c3.5-1.7,8-10.2,7.6-14.2c1.1-1.3,3.3,1.1,4-1.2c-0.2,5.9-3.7,10.2-6.8,14.7
		c-0.7,0.9-1.5,1.7-2.3,2.6c-1.4,1.6-2.6,3.6-5.3,1.7c-2.4-1.7-3.5-3.7-2.7-6.5c1-3.6,3.6-6,6.2-8.6c0.5-0.5,1.4-0.8,1.2-1.9
		C472.7,539.8,468,540.1,463.6,538.1z"/>
	<path class="st43" d="M454.2,339.6c0.7-5.8,2.6-10.9,4.5-16c1.9-4.8,1.9-4.8-3.5-4.3c-13,1.2-25.8,0.2-38.2-4
		c-9.3-3.2-17.5-8.2-24.9-14.7c-3.4-3-4.5-7-4.8-11.3c-0.2-2.3,1-3.9,3.3-4.6c1.3-0.4,2.7-0.7,4.1-1.1c5.5-1.3,10.3-3.7,14.8-7.4
		c21.1-17.4,51.9-15.9,73.7,3.3c26.5,23.4,33.5,64.7,15.9,94.4c-6.5,11-15.6,19.5-26.7,25.8c-6.9,3.9-14.3,5.2-22.2,3.6
		c-3.2-0.7-5.7-2.1-7.2-5.1c-1.4-2.9-1.6-5.3,1.9-6.9c1.1-0.5,2.1-1.4,3.2-2.2c6.8-4.5,11.3-9.8,6.8-18.5c-0.3-0.7-0.3-1.5-0.5-2.2
		c-0.9-3.5-1.2-6.1,3.4-8c5-2.1,7.7-6.9,8.5-12.4c1-7.1-3.5-10.9-10.4-8.9C455.4,339.3,454.9,339.4,454.2,339.6z"/>
	<path class="st31" d="M458.2,320.9c-5.2,8.2-4.1,17.6-10,25.4c2.8-0.5,3.4-2.5,4.8-3.4c2.8-1.9,5.7-4,9.1-1.7
		c3.3,2.3,2.7,5.8,1.7,9.1c-1.3,4.2-4,7.3-7.9,9.4c-2.7,1.5-5.3,0.5-8.1-0.4c0.1,0.7,0,1.3,0.2,1.4c4.4,1.5,4,5.5,4.8,9
		c0.2,1.1,0.3,2.3,0.8,3.3c2.8,5.5,0.4,8.9-3.9,12.5c-21.6,18.3-50.8,15.1-68.2-7.6c-16.7-21.7-14.5-54.9,4.7-74.2
		c2.2-2.2,3.6-2.9,6.5-0.5c18,15.4,39.3,19.8,62.3,17.9C455.7,321.2,456.4,321.1,458.2,320.9z"/>
	<path class="st44" d="M417.8,440.3c0.6-4,1.2-8.1,1.9-12.1c0.2-1,0-2.6,1.7-2.5c4.6,0.1,6-3.3,7.2-6.8c1.5-4.4,1.7-9,2.1-13.6
		c0.1-0.7,0.2-1.8-0.7-2c-5-1-0.8-3.5-0.4-4.4c1.2-2.6,2.7-0.5,3.8,0.5c15.9,13.9,25.7,31.6,31.6,51.6c3,10.2,4.3,7.4-5.2,13.1
		c-10.8,6.5-22.5,10.3-35.1,11.2c-2.5,0.2-3.6-0.5-4.2-3C418,461.7,417.1,451.1,417.8,440.3z"/>
	<path class="st45" d="M420.9,485.8c0.6-8.2,0.6-8.2,8.7-9.3c12.9-1.7,24.6-6.6,35.4-13.6c2-1.3,3-1.6,4.2,0.9
		c2.3,4.6,6.3,7.7,10.9,9.8c1.9,0.9,2,1.6,0.3,2.8c-17,12.7-35.3,21.4-57.4,18.5c-2-0.3-3-0.9-2.7-3.1
		C420.7,489.9,420.8,487.8,420.9,485.8z"/>
	<path class="st46" d="M412.2,410.2c-8.4,1.6-16.8,2.6-25.4,1.5c-12.1-1.5-23.9-4.2-34.4-10.7c-1-0.6-2-1.2-2.8-2
		c-2.7-3-5.6-4.7-9.3-1.5c-1,0.4-1.9,0.6-2.4-0.6c0.1-0.7,0.5-1.1,1.1-1.5c4.5-3.3,5.2-6.6,2.3-11.5c-0.6-1.1-1.6-2-1.5-3.4
		c0.4-0.9,0.9-1.3,1.8-0.5c2.1,2.5,3.9,5,3.6,8.7c-0.2,1.9,1.2,3.9,3,5.5c6.4,5.8,14,9.2,22.2,11.5c13.1,3.5,26.3,5.2,39.7,1.9
		c1.9-1,2.2,1.2,3.3,1.8l0,0C413,409.6,412.6,409.9,412.2,410.2z"/>
	<path class="st47" d="M342.8,404.3c3.3,3,4.7,6.2,5,9.5c0.3,3.3-2,5.6-5.1,6.2c-5.6,1.1-10.9,0.1-15.2-4c-1.2-1.1-2.3-2.5-1.6-4.4
		c0.7-1.9,2.4-2.6,4.3-2.7c4.6-0.1,9.2,0.3,13,3.5c0.5,0.4,0.9,1.1,1.6,0.6c1-0.6,0.3-1.3-0.1-2
		C343.6,409.3,342.5,407.5,342.8,404.3z"/>
	<path class="st48" d="M428.4,410.4c-0.6,3.8-1,7.5-2.9,10.8c-1.9,3.2-4.1,3.6-6.8,1c-1.3-1.2-2.5-2.5-3.5-4
		c-2.2-3.1-1.9-5.3,1.4-7.4c2.7-1.7,5.6-3.1,8.5-4.3c3.8-1.6,3.8-1.5,3.5,2.4C428.5,409.5,428.4,410,428.4,410.4z"/>
	<path class="st49" d="M413.4,409.4c-0.6-1.6-1.4-3.2-1.8-4.9c-0.7-3.3,0.8-5.4,4.1-5.4c3.8,0,7.5-0.1,11.4-0.5
		C425.5,404,418.2,409.6,413.4,409.4C413.3,409.3,413.4,409.4,413.4,409.4z"/>
	<path class="st50" d="M482.9,539.4c2.3,0.7,1.5,2.3,1,3.7c-1.7,4.3-4.6,7.8-7.7,11.1c-0.7,0.8-1.7,2-2.9,0.9
		c-1.1-0.9-2.3-1.9-1.5-3.9c2.1-5.2,6.2-8.5,10.4-11.7C482.4,539.5,482.7,539.4,482.9,539.4z"/>
	<path class="st51" d="M328.3,395.2c2.5,0,5.1,0.3,7.6-0.4c0.5,1.1,1.6,1,2.5,1.3c-0.1,0.1-0.2,0.2-0.3,0.2
		c-5.9-0.1-6.7,3.9-7.3,8.6c-1.7,15.4-2.2,30.8-0.3,46.2c0.6,5,1.4,9.9,2.7,14.8c0.3,1,1,2.3-0.2,2.7c-1.8,0.5-1.4-1.5-1.6-2.4
		c-4-15.9-4.9-32.2-3.6-48.5c0.4-5,0.7-10,1.6-14.8c0.6-3.5,0.4-6-3.5-7.1C326.7,395.7,327.7,396.1,328.3,395.2z"/>
	<path class="st52" d="M341.5,380c-0.7,0-1.2,0.3-1.5,0.9c0,2,1.5,3.4,1.9,5.3c0.3,1.2,1,2.6-0.2,3.5c-1.1,0.9-2.2-0.2-3.1-0.8
		c-3.2-2.1-6.7-2.8-10.5-2.8c-1.7,0-3.4,0.2-4.1,2.1c-0.7,1.9,0.7,3.1,2,4.1c2.2,1.8,4.9,2.5,7.7,2.9c1.5,0.2,3.1,0,4.2,1.3
		c0.5,1,1.4,0.8,2.2,1c-6,2-13.8,0-17.8-4.5c-1.5-1.7-2.6-3.5-1.7-5.9c0.9-2.4,2.8-3.5,5.2-4c3.9-0.6,7.6,0.4,11.5,1.5
		c0.6-1.9-1.4-4.6,1.3-5.8C339.8,378.4,341,378.6,341.5,380z"/>
	<path class="st53" d="M373.5,342.7c1.5,1.4,2.8,2.8,4.4,4.1c5.4,4.3,11.7,5.3,18.4,5.2c0.8,0,2.1-0.5,2.3,0.7
		c0.2,1.3-1.1,1.1-1.9,1.2c-1.5,0.1-1.7,1.4-2.1,2.4c-0.9,2.1-1.9,4.2-3.4,6c-5,5.9-12.4,5.2-16-1.7c-1.7-3.2-2.3-6.7-2-10.4
		c0.2-2.3,1.2-4.7-0.5-7C372.9,343,373.2,342.9,373.5,342.7z"/>
	<path class="st54" d="M407.4,327.7c-0.5,1.9-1,4.1-3.4,3.8c-2.3-0.3-2.5-2.6-2.3-4.6c0.2-1.8,0.8-3.8,3.1-3.6
		C407.2,323.6,407.3,325.8,407.4,327.7z"/>
	<path class="st55" d="M388.8,316.7c-0.5,1.9-0.9,4.1-3.3,3.9c-2.4-0.2-2.7-2.4-2.5-4.4c0.2-1.9,0.8-4.1,3.2-3.9
		C388.6,312.5,388.7,314.8,388.8,316.7z"/>
	<path class="st47" d="M338.1,396.6c-4.3-0.4-8.7-0.3-12.3-3.2c-1.8-1.4-3.9-2.9-3.1-5.6c0.9-2.8,3.5-2.9,6-2.9
		c4.7,0.2,9,1.3,12.7,5c1.1-3.6-3.5-5.8-1.4-9.1c1.7,2,3.2,4,3.5,6.8C344.1,393.6,343.7,394.5,338.1,396.6z"/>
	<g>
		<path class="st56" d="M334.1,385.9c-0.8,0.1-1.1,0.8-1.5,1.4c0.1-11.4,2.1-22.6,3.8-33.8c0.4-2.7,1.5-5.3-1.9-7.2
			c-2-1.1-0.3-2.7,0.8-3.7c2.8-2.2,2.6-3.9,0.2-6.7c-11.6-13.1-20.7-27.5-23.3-45.3c-1.1-7.8-0.7-15.5,1.1-23.2
			c4.1-16.9,17.5-26.6,35.4-25.8c4.7,0.2,9.4,1,13.9,2.5c16.8,5.8,25.6,21.1,22.1,38.7c-4.1,20.4-15.4,36.1-31.7,48.5
			c-3,2.3-6.2,4.5-9.5,6.5c-2.2,1.3-2.2,2.1-0.6,3.9c3.6,4,3.4,4.7-1.9,6.3c-1.7,0.5-2.1,1.3-2.4,2.8c-1.9,10.3-3.2,20.7-4.1,31.1
			C334.6,383.4,334.3,384.7,334.1,385.9z"/>
		<path class="st57" d="M379.6,294.5c-7.3,18.8-20.7,32.2-37.6,42.5c-1.2,0.7-2.1,1.2-3.3-0.2c-12.6-14.3-23-29.8-24.7-49.4
			c-0.9-10,0-20,5.2-28.9c6.6-11.3,17.3-14.8,29.6-14.8c6.6,0,12.9,1.6,18.8,4.6c13.7,6.9,17.2,21.9,15.7,33
			C382.6,285.8,381.2,290.2,379.6,294.5z"/>
		<path class="st58" d="M337.9,346.4c-0.9-0.5-2.4-0.9-1.4-2.1c0.9-1.2,1.8-3.4,3.6-2.8c1.3,0.5,3.3,2.2,2.8,3.6
			C342.1,347.1,339.8,346.8,337.9,346.4z"/>
		<path class="st59" d="M355.9,288.6c0.1-8.5,0.2-16,0.4-23.6c0-1,0.5-2,1.7-2.3c1.2-0.3,2.2,0.3,2.9,1.3c1.1,1.6,1.5,3.5,1.6,5.4
			C362.9,276.2,361.9,282.6,355.9,288.6z"/>
		<path class="st60" d="M358.7,295.2c-0.7,1.4-1.8,1.9-3.2,1.3c-1.5-0.7-2.1-2-1.5-3.4c0.6-1.5,2-2.1,3.5-1.4
			C358.9,292.3,359.1,293.7,358.7,295.2z"/>
	</g>
	<path class="st61" d="M374.9,350.3c-0.2-2.6,0.7-2.8,3.1-1.1c3.7,2.7,7.9,4.1,12.4,4.4c2.8,0.2,2.9,1.3,1.7,3.3
		c-0.6,1.1-1.2,2.3-1.9,3.3c-2,2.5-4.2,4.4-7.7,3.9c-3.4-0.5-5.2-2.9-6.5-5.8C375,355.8,374.7,353.3,374.9,350.3z"/>
</g>
<g>
	<g>
		<path class="st62" d="M612.5,189.3c-12.6,19-38.6,34.3-59.2,39.9c-1.6,0.4-2.5,0-3.2-1.4c-10.4-21.6-16.8-43.9-10.5-68
			c2.1-7.8,5.4-15.1,10.3-21.6c5.8-7.7,12.8-11.8,25.1-13.4c13.6-1.1,27.6,4.2,38.6,16.2C622.9,151.1,626.3,170.2,612.5,189.3"/>
		<path class="st62" d="M552.1,234.5c0.5,2.1-1.1,1.9-2.1,2c-2.2,0.2-4.7-0.4-5.1-2.5c-0.5-2.5,2.6-3.4,4.2-3.6
			C551.4,230.2,551.1,233.2,552.1,234.5z"/>
		<path class="st63" d="M587.5,177c0.3-9.7,0.6-19.3,2.9-28.7c0.3-1.1,0.7-2.3,1.2-3.3c0.7-1.3,1.6-2.7,3.4-2.4
			c1.8,0.2,2.8,1.5,3.2,3.3c1,4.9,0.9,9.7-0.8,14.4C595.1,166.4,591.5,171.8,587.5,177z"/>
	</g>
	<g>
		<path class="st5" d="M618.4,415.7c6.1,0.5,9.8-0.1,11.5-2.9c2-3.2,3.1-6.8-2.2-10.3c-0.8-0.6-2.1-1.3-3.3-1.4"/>
		<path class="st5" d="M624.9,401.2c-1.7-0.7-1,0.2-2.8-0.4c-3.2-1.1-5,0.1-7,4.3c-0.9,1.9-1.5,1.8-2.6,0.3c-1.3-1.7-2-3.5-1.8-5.8
			c0.7-7.4-0.1-14.8-2-22c-0.7-2.7-2.3-5.2-0.6-8.2c0.7-1.2-0.1-2.8-0.9-4.1c-1-1.6-1.9-3.2-3-4.9c10-2.2,19.2-6.1,26.8-12.7
			c17.8-15.2,24.6-34.8,19.2-57.4c-5.5-22.7-20.3-37.4-43.6-42.7c-10.6-2.4-21.1-1.9-31.3,2c-1.9,0.7-3.4,0.3-5-0.6
			c-2.1-1.2-4.1-2.6-5.8-4.4c-1.9-2.2-2.8-1.2-3.6,0.9c-1,2.7-0.4,5.3,0.8,7.7c1.2,2.5,0.1,3.1-2,3.3c-2.5,0.2-5,0.2-7.1-1.2
			c-2.8-1.8-3.6-0.1-4,2.1c-1,4.6,1.1,8.1,4.1,11.3c0.4,1.2,1.1,2.2,2,3.1c6.4,6.5,14,10.7,23.3,11c2.1,0.1,3.8,0.6,5.6,1.7
			c11.6,7.6,17.5,18.7,19.8,32c0.4,2.4,0.6,4.8,1.1,7.2c0.2,0.9,0.3,2.2,1.5,2.3c1.3,0.1,1.5-1.1,1.7-2c0.6-2.5,1.6-4.8,4.7-4.7
			c1.9,0.1,2.9,3.2,2,6.6c-0.7,2.7-1.6,5.3-3.5,7.4c-2.2,2.4-3.8,2.7-6.7,1.2c-0.8-0.4-1.6-1.2-2.4-0.4c-0.9,0.9-0.2,1.9,0.4,2.7
			c1.6,1.9,2.1,4.1,2.6,6.3c0.9,3.9,2.5,7.6,5.5,10.4c1.6,1.5,1.1,2.4-0.8,2.9c-4,1.2-8.1,2-12.4,2.1c-1.6,0.1-3.3,0-4.8,0.9
			c-0.3,2,2.4,1.3,2.6,2.9c0.3,2-0.3,4-0.3,5.9c-0.1,3.6,0.9,5.2,4.5,6.2c1.8,0.5,2.5,1.5,2.7,3.2c1,8.5,2.5,17,5.6,25.1
			c0.8,2,0.4,4.2,0,6.2c-0.9,3.9-1.9,7.7-3,11.5c-0.5,1.6-1.3,2.8-2.9,3.3c-11.9,3.3-23.1,2.7-32.9-5.9c-1.2-1.1-1.9-2.7-3.5-3.5
			c-2.9,1.9-1,3.4,0.3,5c8.9,9.1,19.8,11.3,32,9c1.1-0.2,2.2-0.4,3.2-0.7c1.9-0.5,2.6,0.2,2.7,2.1c0.1,3.4,0.2,6.8,0.1,10.3
			c-0.5,18-4,35.5-10.8,52.2c-0.9,2.1-1.6,4.3-2.7,6.4c-0.5,0.9-0.9,2.3-2.3,1.9c-1.4-0.4-1.7-1.7-1.6-2.9c0.3-3.1,0.2-6.2,0.2-9.3
			c-0.1-4-0.2-7.9-0.7-11.9c-0.1-1-0.3-2-1.3-2.6c-1.3-0.1-1.4,0.9-1.7,1.8c-0.3,6.1,0.5,12.3,0.3,18.4c0,1.1,0.1,2.2-0.2,3.3
			c-0.3,1-0.8,1.9-2,1.7c-1.2-0.1-1.3-1-1.3-2c0-0.8,0.1-1.5,0.2-2.3c-0.1-0.9-0.1-1.9-1.1-2.3c-1-0.1-1.4,0.5-1.7,1.3
			c-0.5,1.2-1.3,1.7-2.6,1.2c-1.2-0.5-1.6-1.4-1.5-2.6c0.1-2,0.2-4,0.1-5.9c-0.2-8.6-1.6-17.1-4-25.4c-2.6-9-4-18.1-4-27.4
			c0-1.4,0-2.9-1.3-3.9c-2.3,1-1.4,3.3-2,5c-0.4,9,1.3,17.8,3.6,26.4c2,7.7,3.9,15.4,4.1,23.4c0,0.9,0.1,1.8,0,2.6
			c-0.3,6.2-0.3,6.2-6.5,7.1c-2,0.3-4.3,0.3-5,2.9c0.2,0.8-1.3,3.6,0.4,3.6c9.4,0.8,10.4,1.5,13.3,1c1.6-0.3,2.9-1.3,2.5-0.6
			c0.9,1.1-4-0.3-4.8,3.6c5.5,5.6,6.3-2.1,7.3-2.2c2.4-0.3,4.8-0.1,7.1,0.4c1.1,0.3,2.6,0.4,2.9,1.7c0.3,1.3-1.4,1.5-1.9,2.4
			c-0.2,0.3-0.1,0.6,0.1,0.9c1.5,0.5,2.8,0,4.1-0.7c5.5-11.1,10-22.5,12.9-34.6c3.6-14.7,4.7-29.6,4.2-44.7
			c-0.1-2.2,0.2-4.3,0.9-6.5c1.6-4.7,2.8-9.5,3.5-14.8c2,1.7,4.3,2.7,5,5.4c0.4,1.6,1.8,2.9,3.4,3.4"/>
		<path class="st6" d="M546.1,280c-9.4,19.3-8.7,38.1,2.9,56.2c6.4,10,15.1,17.1,26.3,21.2c0.3,0.1,0.5,0.4,0.8,0.6
			c-6.1,6.5-6.2,7-2.6,9.6c0.7-0.4,2,0.6,2.1-1c-2-2.8-1.9-3.2,2.1-6.3c-0.3,1.3-1.1,2.1-1.6,3c-0.5,1-1.2,1.9-0.6,3.1
			c0.3,0.4,0.4,0.9,0.8,1.1c2-0.4,2.3-2.3,3.4-3.6c1.1-1.3,1.5-3.1,3.5-3.6c0.7-0.2,1.7-0.1,1.8-1c0.2-1-0.8-1.1-1.5-1.4
			c-0.5-0.2-1-0.4-1.5-0.6c-7.8-2.4-14.9-6-21.3-11.2c-1.4-1.1-2.7-2.3-4-3.9c3.7,0.2,6.7-1.2,9-3.8c2.3-2.5,3.7-5.5,4-8.9
			c0.4-3.7-0.3-4.4-4-3.7c-3.5,0.7-6.9,1.4-10.4,0c-3.2-1.3-5.7-3.3-7.8-6c-0.6-0.8-1.4-1.6-2.5-1.2c-1.3,0.5-1.1,1.7-0.9,2.8
			c-3-12.8-2.3-25.3,2.8-37.6c0.3-0.7,0.5-1.5,0.5-2.3C547.2,280.7,547.2,279.9,546.1,280z"/>
		<path class="st7" d="M576.2,367.5c-0.3-0.4-0.5-0.7-0.8-1.1l0,0c-0.3,1-1.6,0.5-2,1.2c0.8,0.8,0.4,1.6-0.1,2.4
			c-3,4.3-5.6,9-9.1,13c-5.2,6.1-12.3,7.8-19.7,4.7c-8-3.3-13.1-9.8-18.1-16.5c-0.9-1.2-1.8-2.4-2.8-3.7c-0.6-0.2-0.8-1-1.5-0.9
			c-1.7,0.8-3.1,2-4.5,3.3c0.2,1,1.1,1.1,1.9,1.2c2.2-0.5,3.4,0.6,4.6,2.3c4.4,6.6,9.8,12.2,16.8,16.2c9.8,5.6,20.5,3.2,26.7-6.1
			c1-1.7,3.5-1.9,4.1-4C573.4,375.6,576.1,372,576.2,367.5z"/>
		<path class="st8" d="M512.8,349.5c0.1,1,0.8,2.4-1.5,2.3c-4.9-0.1-7.6,2.4-8.5,7.4c-0.9,4.8,0.6,7.8,5,9.8
			c0.4,0.2,0.8,0.3,1.3,0.4c0.9,0.1,1.7,0,2.5-0.5c3.1-1.8,3.2-5.8,5.8-8.2c1.2-1.1-0.6-1.7-1.6-2.1c-0.6-0.2-1.5-0.2-1.5-1
			c0-0.9,0.9-1.2,1.6-1.4c2.7-1,4.7,0.4,5.5,3.5c0.6,2.4-0.7,4.8,0.6,7.1c0.5,0.2,1,0.5,1.6,0.7c0.8-3.8,1.2-7.6-0.6-11.3
			c-1-2.1-2.6-3.5-4.9-3.1c-2.2,0.4-2.5-0.5-2.6-2.4"/>
		<path class="st9" d="M546.1,280c0.6,0.4,0.6,1,0.7,1.7c1.5-0.1,1.8-1.4,2.4-2.4c1.7-2.9,3.3-5.8,5.9-8.1c-0.8-0.8-1.6-1.6-2.4-2.4
			c-0.8,2.9-3.4,4.8-4.7,7.4C547.4,277.5,546.3,278.6,546.1,280z"/>
		<path class="st28" d="M584.4,507.5c0.7-0.3,1.5-0.4,2.1-0.8c1.7-1.1,2-2.1,0-3.4c-3.1-2-6.5-1.6-9.9-1.5c-1.2,0-4.9,1.6-6.1,1.7
			c-1.3,1.7,0.2,2.4,2,2.6C576.3,507.4,580.3,507.5,584.4,507.5z"/>
		<path class="st29" d="M573.1,500.4c1-0.1,2.5,0.4,2.6-1.2c0.1-1.3-1.4-1.2-2.2-1.4c-3.9-1.2-8-1.4-12-0.8c-1.5,0.2-2.9,0.5-3,2.4
			C563.4,499.6,568.2,501.1,573.1,500.4z"/>
		<path class="st5" d="M584.4,507.5c-4-0.5-7.9-1-11.9-1.4c1.6,1.8,3.8,1,5.7,1.4c2,0.4,4.1,0.4,6.2,0.6
			C584.4,507.9,584.3,507.7,584.4,507.5z"/>
		<path class="st64" d="M562.9,245.5c-1.3,3-0.5,5.6,0.7,8.1c1.2,2.4,0.5,3.6-2.1,4.2c-3,0.6-5.9,0.9-8.7-0.5
			c-2.3-1.2-2.8,0.1-2.8,1.9c0,2.8,1,5.3,2.7,7.3c6.2,7.2,13.4,13.2,23.4,13.4c7.6,0.2,12.4,4.6,17.1,9.5
			c7.1,7.5,11.1,16.6,12.6,26.8c0.4,2.7,1.1,3.6,3.4,1.3c1.5-1.5,3.5-1.5,5.2-0.6c1.8,0.9,2.8,2.6,2.7,4.6c-0.2,7-1.6,13.5-9.1,16.5
			c-1.1,0.5-1.4,1.2-1.2,2.3c0.4,3,1.2,5.9,2.7,8.4c3.5,5.9,6.6,6.6,12.6,3.2c28.1-15.9,36.4-51.5,19.2-78.9
			c-13.5-21.6-43.1-30.4-64.7-22.2c-3.4,1.3-6,0.2-8.6-1.6C566.1,248.3,564.6,246.9,562.9,245.5z"/>
		<path class="st65" d="M555,271.2c-1.6-0.7-2.1,0.7-2.7,1.7c-1.9,2.9-3.7,5.9-5.5,8.8c-4.5,10.5-6.6,21.4-4.8,32.9
			c0.5,3,1.2,6,2.5,9c1.2-1.5-1.1-3.9,0.8-4.4c1.3-0.4,1.9,2,3,3.1c5,5.2,11,5.9,17.7,4.4c3.6-0.8,3.7-0.8,3,3
			c-0.4,2.3-1.2,4.5-2.5,6.4c-3,4.7-6,5.8-12.3,4.4c7.4,9.3,16.9,14.4,27.6,17.5c1.8,0.4,3.4,1.2,5.1,1.9c1.6,0.6,3.6,1.1,5.4-0.1
			c7.3-0.1,14.5-0.6,21.6-4c-6-3.9-8.3-9.6-9-16.1c-0.2-2.3-3.2-2.7-3.2-5.1c0.8-0.7,1.2-0.2,1.6,0.3c1.9,2.6,4,2.2,6.3,0.6
			c3.7-2.6,6.6-9.7,5.6-14.1c-0.4-1.9-1.4-3.6-3.5-3.2c-2.5,0.4-4.4,2.1-5,4.7c-0.2,0.9,0.4,1.9-0.7,2.9c-1.2-0.9-1-2.1-1.1-3.3
			c-1.2-11.5-4.5-22.2-12.4-31.1c-3-3.3-6.4-6.1-10.2-8.4c-1.1-0.7-2.1-0.9-3.4-0.9C569.4,282,561.7,277.9,555,271.2z"/>
		<path class="st66" d="M584,474.1c1.3,7.9,1.2,15.8,0.9,23.7c-0.1,1.6,0,2.9,1.7,3.9c1.7,1,2.5,0.9,3.4-1
			c10.6-23,15.1-47.1,14.1-72.4c-0.1-2.7-1.4-2-3-1.6c-8.5,2.1-17,2.8-25.3-0.8c-3.8-1.6-7.2-3.8-9.8-7.1c-1.3-0.7-1.8,0.1-2.1,1.2
			c-0.9,3.3-1.5,6.5-0.4,9.9c-0.2,12,1.8,23.7,5,35.2c2.5,8.9,3.9,18.2,2.6,27.5c-0.5,3.3,1.6,3.2,3.5,3.8c2.5,0.8,2.4-1,2.8-2.4
			c0.1-0.4,0.3-0.8,0.5-1.2c0.8-0.4,1-1.1,1.1-1.9c1.7-8.4,2.9-16.9,2.6-25.6c-0.1-4.4-1.8-8.6-3.1-12.8c-1.4-4.3-3.2-8.4-5.1-12.3
			c1.2,2.2,2.3,4.9,3.4,7.5c1.1,2.6,2.1,5.3,2.8,8.1c0.7,2.9,1.7,5.7,2.1,8.7c0.3,2.3,0.8,4.6,1.2,6.9
			C583.2,472.3,583.2,473.3,584,474.1z"/>
		<path class="st67" d="M576.2,367.5c-1.8,4-3.5,8-5.3,11.9c-1.8,4.1-3.5,8.2-4.1,12.7c-1.2,6.3-1.6,12.8-2.3,19.2
			c-0.1,1.2-0.2,2.4,0.5,3.5c0.3,1.4,1.1,2.4,2.1,3.3c10.4,10.1,23.3,10.2,35.8,6.5c1.3-0.4,1.6-1.5,1.8-2.5
			c1.1-3.9,2.2-7.9,3.2-11.8c0.8-3.5,0.7-6.8-0.7-10.3c-3-7.4-3.8-15.4-4.7-23.3c-0.2-1.9-0.7-2.6-2.7-2.7c-3.2-0.1-4.8-1.9-4.6-5.2
			c0.1-2.4,0.6-4.8,0.9-7.2c-4.6-1.5-4.6-1.4-6.6,2.4c-0.8,1.6-1.7,3.1-2.9,4.4c-1.1,1.2-2.4,2.9-4.1,1.8c-1.4-0.9-0.8-2.8-0.1-4.2
			c0.5-1,0.9-2,1.4-3c1.2-2.1,0.7-3.3-1.7-3.6C579.3,361.5,578.4,364.9,576.2,367.5z"/>
		<path class="st34" d="M596.9,366c0,1.7-0.9,3.8,0.6,5.5c1.3,1.5,5.9,1.3,8-0.4c1.9-1.6,1.1-3.4,0.2-5c-1-1.7-2-3.5-3.4-4.8
			C600,359.3,597.5,361.5,596.9,366z"/>
		<path class="st14" d="M584,474.1c0.2-1,0.2-1.9-0.4-2.8c-1.6,0.4-1.5-0.8-1.5-1.7c0-1.7-0.1-3.4,0.3-5.1
			c-1.4-9.2-4.6-17.8-8.9-26.1c-0.3-0.6-0.6-1.8-1.5-1.4c-1.2,0.6-0.2,1.5,0.1,2.2c0.8,1.8,1.7,3.6,2.6,5.3
			c7.5,14.4,6.9,29.5,3.7,44.8c-0.2,1.1-0.3,2.2-0.5,3.3c0.8,0.6,0.5,1.5,0.7,2.3c1.7-0.5,1.5-1.9,1.5-3.2c-1.2-1.8-0.4-3.7-0.4-4.8
			c0.3-1.1,0.8-0.4,0.4-0.7c-0.1-0.1-0.2,0-0.3,0.2c-0.2,1.3-0.8,2.7,0,4c1.6-0.5,1.6-2,1.7-3.2c0.3-2.7,0.8-5.4,0.7-8.1
			c0-1.1-0.1-2.2,0.8-3C583.2,475.4,583.1,474.5,584,474.1z"/>
		<path class="st15" d="M583,476.1c-1.9-1.2-1.1,0.7-1.1,1.1c-0.6,4.4-0.8,8.9-2.2,13.2c-0.6,0.3-0.5,0.7-0.2,1.2
			c0,1.2-0.2,2.4-0.9,3.4c-0.1,0.5-0.3,1.1-0.2,1.6c0.2,1.2-2.3,3.1,0.7,3.5c2.1,0.3,4.5,1,4.5-3C583.5,490.1,583.2,483.1,583,476.1
			z"/>
		<path class="st68" d="M619.4,404.5c1.2,0.4,1.2,1.2,1.5,1.9c0.4,1,0.9,2.4,2.2,1.9c1.3-0.4,0.7-1.9,0.7-2.9
			c-0.1-1.6-0.6-3-2.5-3.4c-1.8-0.3-2.9,0.5-3.9,1.9c-2,2.9-2,7,0.2,9.1c0.9,0.9,2.3,2.6,3.5,1.2c0.9-1.1,1.7-3.1,0.1-4.8
			C619.2,407.3,619.3,407.2,619.4,404.5z"/>
		<path class="st16" d="M565,414.7c0.6-7.7,1.3-15.4,2.5-23c-1-1.3,1.1-2.9-0.3-4.2c-0.9,1.7-1.2,3.4-1.2,5.3
			c0.4,4.3-0.7,8.5-1,12.7c-0.1,1.6-0.4,3.2-0.5,4.9c0.3-5.9,1.7-11.7,1.5-17.6c-1.5,4.4-1.8,9.1-2,13.6c-0.2,8.3-2,16.4-2.2,24.6
			c0,1.4,0.1,2.8,0.2,4.3c0.8-1.7-0.2-3.9,1.4-5.4c0.3-2.9,0.6-5.8,1-8.8c0.1-0.9-0.4-2.4,1.5-2.3
			C564.4,417.7,563.2,416.6,565,414.7z"/>
		<path class="st35" d="M624.7,407.3c-0.4,1.4-1.1,3.7,0.8,5.7c1.2,1.3,2,1.1,2.8-0.3c1.1-2.2,1.4-4.6,0.9-7.1
			c-0.4-1.6-1.3-2.7-2.9-2.5C624.4,403.3,625,405.1,624.7,407.3z"/>
		<path class="st17" d="M582.1,359.4c1.6,0.6,2.3,1.2,1.1,3c-1,1.5-1.7,3.3-2.2,5.1c-0.4,1.4-0.4,3,1.1,3.8c1.4,0.8,2.5-0.1,3.6-0.9
			c2-1.5,3.7-3.4,4.3-5.7c0.9-3.6,3-4.1,6.1-3.2c-0.7-1.7-3-0.3-3.8-1.8c-3.5-0.6-7-1.1-10.5-1.7c0.5,1,1.7,0.5,2.5,1.1
			C583.6,359.8,582.8,359.1,582.1,359.4z"/>
		<path class="st36" d="M609.4,397.6c0.1-8.8-0.8-16.7-4-24.8C604.2,376.5,606.8,392.8,609.4,397.6z"/>
		<path class="st69" d="M625.6,414.8c-0.5-1.4-1.1-2.2-1.9-2.9C622.7,414.5,622.7,414.5,625.6,414.8z"/>
		<path class="st18" d="M546.7,323.3c0.7,5.1,2.2,9.5,5.5,13.1c4,4.5,9,4.1,12.6-0.8c0.5-0.6,0.9-1.3,1.2-2c0.7-1.7,2.2-3.6,1.2-5.2
			c-0.7-1.1-2.8,0.2-4.3,0.3C556.8,329.5,553.3,328.4,546.7,323.3z"/>
		<path class="st37" d="M575.4,366.4c1.3-2.4,2.7-4.7,4-7.1c-2.3-0.2-6.4,3-6.5,5C572.9,366,573.8,366.7,575.4,366.4
			C575.4,366.4,575.4,366.4,575.4,366.4z"/>
		<path class="st70" d="M522.1,366.8c0.4-2.9,1.1-5.9-0.1-8.8c-0.6-1.6-1.3-3.1-3.4-3.1c-2.1,0-4,0.5-5.3,2.1
			c-1.1,1.4-0.6,2.4,1.3,2.5c0.9,0,2-0.5,3.2,0.6c-4.5,0.9-2.9,6.3-6.3,8.1c1.7,2.2,3.9,2.8,6.4,1.6
			C520.1,369.9,520.9,368.1,522.1,366.8z"/>
		<path class="st19" d="M567.2,387.5c0.4,1.4-0.8,2.9,0.3,4.2c1.1-4.1,2.3-8.2,3.4-12.3c-0.3,2.2-3.5,1.3-3.8,3.6
			c0.7-0.2,1.3-0.3,1,0.8C567.7,385,567.5,386.2,567.2,387.5z"/>
		<path class="st38" d="M505.2,359.7c-0.2,2-0.2,3.3,0.3,4.5c0.9,2.3,3.1,3.2,5.1,2c2-1.3,2.9-3.2,1.5-5.3c-1.1-1.6-1.3-2.9-0.5-4.5
			c1.2-2.3-0.7-2.2-1.8-2.1C506.5,354.8,505.9,357.7,505.2,359.7z"/>
		<path class="st20" d="M565.3,310.4c0,1.7-0.2,3.7,1.7,3.9c2.5,0.3,3.2-1.9,3.6-3.9c0.3-1.6,0.3-3.8-1.8-3.9
			C566.3,306.3,565.8,308.7,565.3,310.4z"/>
		<path class="st21" d="M549.8,302.2c-0.2-1.6,0.2-3.6-1.8-3.9c-2.5-0.3-3.2,1.9-3.6,3.9c-0.3,1.6-0.3,3.7,1.8,3.9
			C548.7,306.3,549.1,303.9,549.8,302.2z"/>
		<path class="st5" d="M582.4,464.6c-1.5,2.1-1.3,4.5-0.9,6.9c0.1,0.8,0.7,1.4,1.6,1.3c0.3,0,0.4-0.9,0.6-1.4
			C583.5,469,583.1,466.8,582.4,464.6z"/>
		<path class="st5" d="M579.4,491.7c0.1-0.4,0.2-0.8,0.2-1.2c0.1-1.6,0.2-3.2,0.3-4.7C579.4,487.7,578.4,489.6,579.4,491.7z"/>
		<path class="st19" d="M566,392.8c-0.7,6.1-1.3,12.2-2,18.3C564.8,405,566.9,399,566,392.8C566,392.8,566,392.8,566,392.8z"/>
		<path class="st22" d="M582.6,367.8c-0.1,0.7-0.3,1.5,0.3,1.9c0.8,0.6,1.4-0.1,2-0.6c1.9-1.6,3.3-3.5,4.2-5.8
			c0.3-0.7,1-1.9-0.1-2.3c-1-0.4-2.4-0.9-3.3,0.4C584.3,363.4,583,365.4,582.6,367.8z"/>
	</g>
	<path class="st23" d="M487.8,381.3c10.9-5.2,22.1-10.5,30.1-19c15.7-16.6,16.2-41.6,16.1-64.6c-0.1-23,0.6-48,16.7-64.3"/>
</g>
<g>
	<path class="st39" d="M525.8,449.7c-0.2,0.2,11.4-2.4,11-1.8c2.2-0.2,4.1-0.3,5.8-1.5c21.3-14.5,48.9-6.2,61.7,15.3
		c15,25.1,11.2,59.8-9.1,79.9c-6,5.9-12.8,10.4-20.5,13.3c-6.7,2.6-13.5,3.2-20-0.1c-3-1.5-5-3.9-5.1-7.6c0-2-0.5-2.6-2.3-1.8
		c-0.8,0.3-1.7,0.4-2.8,0.7c1.5,2.5,3,4.7,4.4,7c7.8,13.6,11.3,28.7,11.7,44.7c0.2,7.2,2.7,12.5,8.2,16.3c2,1.4,1.5,2.1-0.3,3.1
		c-7.4,3.9-15,7.2-23.1,8.8c-1.8,0.3-2.7,1.2-3.5,2.9c-2.6,5.8-4.9,11.8-5.1,18.2c-0.2,5.4,1.3,10,5.9,12.8
		c3.5,3.2,7.9,4.1,12.2,4.9c2.1,0.4,4.4,0.6,6.1,2.1c-0.9,2.5-2.6,0.4-3.9,1c-0.3,0-0.7-0.1-1-0.1c-4-1.9-8.6-2.3-12.5-4.4
		c-6.4-3.1-9.1-8.8-9-16.1c0-6,2-11.6,4.3-17.1c0.4-1,1.2-1.9,1.1-3.3c-5.7,0.3-11.3,0.2-16.8-1.4c-1.3-0.4-1.7,0.7-2.2,1.6
		c-4.9,7.2-8.8,14.8-10,23.6c0,0.3,0.1,0.6,0,0.9c-0.3,0.8-0.1,2.1-1.2,2.1c-0.9,0-1.1-1.1-1.4-2c-0.1-0.7-0.2-1.4-0.2-2.1
		c1.4-7.9,4.4-15.2,8.7-21.9c0.9-1.4,1.7-2.5,0.1-3.9c-1.1-0.9-0.9-2.4-0.6-3.8c0.5-2,0.9-4.1,1.7-6c1.9-4.1,2-8.4,2-12.8
		c-0.1-11.1,2.2-21.7,6.3-31.9c1.3-3.3,0.8-4.1-2.6-3.6c-6.3,1-12.4,0.4-18.6-0.8c-9.6-1.8-18.1-5.9-25.7-12.1
		c-1.2-0.9-2.2-0.8-3.5-0.3c-5.3,2.4-13-0.2-16-5.3c-2.5-4.4-0.6-8.3,4.4-8.8c2.1-0.2,4.1,0.3,5.9,1.3c1.2,0.7,1.9,0.8,2.7-0.9
		c1.2-2.6,3.3-2.6,4.8-0.3c1.1,1.7,1.5,3.8,1.7,5.8c0.2,2.2,1.1,3.8,2.6,5.2c6.5,6.1,14.4,9.4,22.9,11.2c4.3,0.9,8.6,1.7,13.1,1.6
		c1.4,0,2.7-0.2,4.1-0.4c1.7-0.3,2.7-1,2.5-3.1c-0.2-1.7,0.2-3.3,1.1-4.8c0.3-0.4,0.7-0.7,1.1-0.7c2.3-0.9,4.7-1.6,7.1-2.3
		c1.1-0.3,2.1-0.7,2.8-1.6c0.4-0.5,1.1-1,0.8-1.9c-0.3-0.6-1-0.6-1.6-0.6c-1.7-0.2-3.3-0.5-4.9-0.7c-2.5-0.4-3.7,1-3.4,3.6
		c0.1,1.1,0.7,2.2-0.2,3.3c-1.6,0.3-1.7-1.3-2.6-2c-0.4-1.5-0.4-3.1,0.2-4.6c0.8-1.7,0.2-2.3-1.2-3.1c-13.4-7.2-20.1-19.4-21.1-35
		c-1.1-18.4,5.5-33.8,20.1-45.1c0.6-0.5,1.3-1,1.8-1.6c1-1.2,1.1-2.6,0.4-3.8"/>
	<path class="st39" d="M508.4,653.2c0.2-0.6,0.3-1.2,0.5-1.8c0.5,0.5,0.1,1.4,1.1,1.8c0.3-0.9,0.7-1.8,1-2.6
		c0.4,2.7-0.6,5.5,0.6,8.1c1.2,1.3,1,3.1,1.2,4.8c0.5,2.6,2,4.7,3.4,6.8c0.6,0.9,1.5,1.6,1.1,2.9c-0.9,1-2.4,1.5-3.2,1.3
		c-6.9-1.2-9.3-0.9-15.9-5c-0.7-0.1-1.1-1.1-1.2-2.1c4-2.8,7.9-1.4,11.8,0c1.1,0.4,2.1,0.9,3.8,1.7
		C509.6,663.9,508.6,658.7,508.4,653.2z"/>
	<path class="st71" d="M498.4,668.5c2.2-1.4,4.5-1.3,6.7-0.6c3.6,1,7.1,2.3,9.7,5.3C512.9,674.6,498.5,670.9,498.4,668.5z"/>
	<path class="st42" d="M543.6,663.3c4.6,1.3,9.1,2.6,13.7,3.8c-1.5,2.2-4,2.9-5.9,4.6c-1.2,1.1-2.4,2.2-3.2,3.7
		c-0.3,0.6-0.3,1.2,0.1,1.7c0.4,0.5,0.8,0.4,1.3,0.2c2.9-0.9,7.7-6.9,8.1-10.2c1-0.9,2.3,1.4,3.2-0.4c-1.1,4.6-4.4,7.6-7.6,10.7
		c-0.6,0.6-1.4,1.2-2.1,1.7c-1.3,1.1-2.5,2.5-4.2,0.6c-1.5-1.7-2-3.5-0.9-5.6c1.4-2.7,3.7-4.3,6.1-5.9c0.5-0.3,1.2-0.4,1.2-1.4
		C550.1,666.1,546.5,665.6,543.6,663.3z"/>
	<path d="M569.4,503.2c1.5-4.5,3.7-8.3,6-12.1c2.2-3.6,2.2-3.6-1.9-4c-9.9-1-19.3-3.6-28-8.8c-6.5-3.9-11.8-9.2-16.3-15.4
		c-2.1-2.9-2.2-6.3-1.7-9.8c0.2-1.9,1.4-3,3.2-3.2c1.1-0.1,2.2-0.2,3.2-0.3c4.4-0.3,8.4-1.5,12.4-3.8c18.7-10.8,41.6-5,54.7,13.5
		c16,22.6,14.4,56.6-3.7,77.8c-6.7,7.8-15,13.3-24.3,16.7c-5.8,2.1-11.6,2.1-17.2-0.4c-2.3-1-4-2.5-4.6-5.1
		c-0.6-2.5-0.3-4.5,2.6-5.2c0.9-0.2,1.8-0.8,2.7-1.3c5.8-2.6,10.1-6.2,8.2-13.8c-0.1-0.6,0-1.2,0-1.9c-0.1-2.9,0.1-5,3.8-5.9
		c4.1-0.9,7-4.4,8.5-8.7c2-5.5-0.8-9.3-6.3-8.7C570.4,503.2,570,503.2,569.4,503.2z"/>
	<path class="st72" d="M575.5,489c-5.3,5.8-6,13.5-11.7,18.8c2.2,0,3-1.5,4.2-2c2.4-1.1,5-2.4,7.1,0c2.1,2.3,1.1,5.1-0.3,7.5
		c-1.7,3.1-4.2,5.3-7.5,6.4c-2.3,0.8-4.1-0.4-6-1.5c-0.1,0.6-0.2,1.1-0.1,1.1c3,1.9,2.1,5,2.1,7.9c0,0.9-0.2,1.9,0,2.8
		c1.2,4.8-1.2,7.2-5,9.5c-19.2,11.4-40.6,4.6-49.9-16.1c-8.9-19.8-1.8-46,15.8-58.6c2-1.4,3.2-1.8,4.9,0.6
		c11,14.9,26.2,21.6,43.7,23.5C573.6,488.8,574.2,488.8,575.5,489z"/>
	<path class="st71" d="M525.5,578.4c1.1-3.1,2.2-6.3,3.4-9.4c0.3-0.8,0.4-2.1,1.7-1.8c3.4,0.7,5-1.8,6.5-4.3
		c1.9-3.3,2.8-6.9,3.8-10.6c0.2-0.6,0.5-1.4-0.2-1.7c-3.6-1.5-0.1-2.9,0.4-3.6c1.3-1.9,2.1,0,2.8,0.9c9.6,13.4,14,29,15.1,45.9
		c0.6,8.6,2,6.5-6,9.7c-9.1,3.6-18.5,4.9-28.1,3.8c-1.9-0.2-2.6-0.9-2.7-3C522,595.6,523.1,586.9,525.5,578.4z"/>
	<path class="st73" d="M520.3,615.3c1.8-6.4,1.8-6.5,8-6.2c10,0.5,19.5-1.6,28.8-5.7c1.7-0.8,2.5-0.8,3,1.3c1,4,3.4,7,6.5,9.5
		c1.3,1,1.3,1.5-0.2,2.3c-14.9,7.7-30,11.9-46.1,6.4c-1.5-0.5-2.1-1.1-1.5-2.9C519.4,618.5,519.8,616.9,520.3,615.3z"/>
	<path class="st46" d="M526.2,553.6c-6.6,0-13.1-0.4-19.3-2.5c-8.8-3-17.2-6.9-24-13.6c-0.6-0.6-1.3-1.2-1.8-2
		c-1.6-2.8-3.4-4.6-6.7-2.5c-0.8,0.2-1.5,0.2-1.7-0.9c0.2-0.5,0.6-0.8,1-1c3.9-2,5-4.5,3.6-8.9c-0.3-0.9-0.9-1.8-0.5-2.9
		c0.4-0.6,0.9-0.9,1.4-0.2c1.1,2.3,2.1,4.6,1.3,7.5c-0.4,1.5,0.3,3.3,1.3,4.8c3.8,5.6,9,9.4,14.8,12.4c9.2,4.8,18.8,8,29.5,7.4
		c1.6-0.5,1.4,1.3,2.2,1.9l0,0C526.9,553.2,526.6,553.4,526.2,553.6z"/>
	<path class="st72" d="M475.2,538.6c2,2.9,2.5,5.6,2.2,8.4c-0.3,2.7-2.4,4.2-4.9,4.2c-4.4,0.1-8.2-1.5-10.8-5.4
		c-0.7-1.1-1.3-2.4-0.4-3.7c0.9-1.4,2.2-1.8,3.6-1.5c3.5,0.6,6.8,1.6,9.1,4.7c0.3,0.4,0.5,1,1.1,0.8c0.8-0.3,0.4-1,0.3-1.6
		C475,542.7,474.5,541.1,475.2,538.6z"/>
	<path class="st71" d="M538.4,556.1c-1.1,2.9-2,5.9-4,8.2c-2,2.3-3.7,2.2-5.3-0.2c-0.8-1.2-1.5-2.4-2-3.7c-1.2-2.8-0.5-4.5,2.3-5.7
		c2.3-0.9,4.7-1.6,7.1-2.2c3.1-0.7,3.1-0.6,2.2,2.5C538.6,555.4,538.5,555.8,538.4,556.1z"/>
	<path class="st71" d="M527.3,553c-0.2-1.4-0.5-2.8-0.5-4.2c0-2.7,1.5-4.2,3.9-3.7c2.8,0.5,5.6,1.1,8.6,1.3
		C537.3,550.5,530.9,553.9,527.3,553C527.2,553,527.3,553,527.3,553z"/>
	<path class="st71" d="M557.9,667.2c1.6,0.9,0.8,2.1,0.1,3.1c-2,3.2-4.7,5.6-7.6,7.7c-0.7,0.5-1.6,1.3-2.3,0.3
		c-0.7-0.9-1.4-1.9-0.5-3.3c2.4-3.8,6-5.9,9.8-7.9C557.5,667.2,557.7,667.2,557.9,667.2z"/>
	<path class="st51" d="M465.8,529.2c1.9,0.4,3.8,1,5.8,0.8c0.2,1,1,1.1,1.7,1.4c-0.1,0-0.2,0.1-0.3,0.1c-4.4-0.9-5.7,2.1-6.9,5.8
		c-3.9,12.1-6.8,24.3-7.9,36.9c-0.4,4.1-0.6,8.1-0.5,12.2c0,0.8,0.4,2-0.6,2.1c-1.5,0.1-0.8-1.4-0.8-2.1
		c-0.3-13.3,1.7-26.4,5.3-39.3c1.1-3.9,2.2-7.9,3.6-11.6c1.1-2.7,1.3-4.8-1.4-6.2C464.6,529.4,465.2,529.9,465.8,529.2z"/>
	<path class="st52" d="M478.3,519c-0.5-0.1-1,0-1.3,0.5c-0.3,1.6,0.5,3,0.6,4.5c0,1,0.3,2.2-0.7,2.8c-1,0.6-1.6-0.5-2.2-1.1
		c-2.1-2.2-4.6-3.2-7.4-3.8c-1.3-0.3-2.6-0.3-3.4,1.1c-0.8,1.4,0,2.6,0.8,3.6c1.4,1.8,3.3,2.7,5.3,3.5c1.1,0.4,2.3,0.4,2.9,1.7
		c0.2,0.9,0.9,0.8,1.5,1.1c-4.9,0.7-10.3-2-12.6-6.3c-0.9-1.6-1.3-3.2-0.3-5c1.1-1.8,2.7-2.4,4.6-2.4c3,0.1,5.6,1.4,8.4,2.9
		c0.8-1.5-0.3-3.9,1.9-4.4C477.2,517.5,478.1,517.8,478.3,519z"/>
	<path class="st53" d="M508.4,493.9c0.9,1.3,1.7,2.7,2.6,3.9c3.3,4.3,7.9,5.9,12.9,6.8c0.6,0.1,1.6-0.1,1.6,0.9c0,1.1-1,0.7-1.6,0.7
		c-1.1-0.1-1.5,0.8-2,1.6c-1,1.6-2.1,3.1-3.5,4.3c-4.7,4-10.1,2.3-11.7-3.7c-0.8-2.8-0.6-5.7,0.2-8.6c0.5-1.8,1.6-3.6,0.8-5.6
		C507.9,494,508.1,494,508.4,493.9z"/>
	<path class="st74" d="M536.3,486.9c-0.7,1.5-1.5,3.1-3.2,2.5c-1.7-0.6-1.5-2.4-1-4c0.5-1.4,1.2-3,2.9-2.5
		C536.9,483.5,536.6,485.3,536.3,486.9z"/>
	<path class="st74" d="M524.2,475.3c-0.7,1.4-1.3,3.2-3.1,2.6c-1.8-0.5-1.6-2.3-1.1-3.9c0.4-1.5,1.3-3.2,3-2.6
		C524.7,472,524.4,473.8,524.2,475.3z"/>
	<path class="st72" d="M472.9,531.8c-3.1-0.9-6.5-1.5-8.7-4.3c-1.1-1.4-2.4-2.9-1.4-4.9c1.1-2.1,3.1-1.8,5-1.4
		c3.5,0.8,6.6,2.3,8.7,5.8c1.4-2.7-1.6-5.2,0.5-7.5c0.9,1.8,1.7,3.6,1.5,6C477.9,530.3,477.5,530.9,472.9,531.8z"/>
	<g>
		<path class="st56" d="M473.3,524c-0.7,0-1,0.5-1.4,0.9c2-9.6,5.4-18.6,8.7-27.8c0.8-2.2,2.1-4.2-0.3-6.3c-1.4-1.2,0.2-2.3,1.3-2.9
			c2.6-1.5,2.7-2.9,1.3-5.6c-6.9-12.7-11.7-26.2-10.7-41.5c0.4-6.7,2.1-13.2,4.8-19.3c6-13.6,18.2-19.7,32.2-16.4
			c3.7,0.9,7.2,2.2,10.5,4.2c12.3,7.4,16.6,21.5,10.9,35.8c-6.6,16.5-18.1,28.1-33.1,36c-2.8,1.5-5.6,2.9-8.5,4
			c-1.9,0.8-2.1,1.4-1.1,3.2c2.1,3.9,1.9,4.4-2.5,5c-1.4,0.2-1.9,0.8-2.3,2c-3.2,8.4-6,16.9-8.5,25.5C474,522,473.6,523,473.3,524z"
			/>
		<path class="st75" d="M524.3,454c-8.9,14.7-21.7,23.9-36.7,30.1c-1,0.4-1.9,0.7-2.6-0.6c-7.6-13.9-13.1-28.4-11.2-45.2
			c1-8.6,3.3-16.8,8.9-23.5c7.1-8.5,16.1-9.9,25.8-8c5.2,1,9.9,3.3,14.1,6.6c9.7,7.8,9.9,20.9,6.8,30.1
			C528.2,447.1,526.3,450.6,524.3,454z"/>
		<path class="st58" d="M482.9,491.4c-0.6-0.6-1.7-1.1-0.8-2c0.9-0.9,2-2.6,3.3-1.8c1,0.6,2.2,2.4,1.6,3.5
			C486,492.6,484.2,492,482.9,491.4z"/>
		<path class="st59" d="M506.7,445.5c1.5-7.1,2.9-13.4,4.3-19.7c0.2-0.8,0.7-1.6,1.7-1.7c1,0,1.7,0.5,2.1,1.5
			c0.6,1.5,0.6,3.1,0.4,4.8C514.3,436.2,512.4,441.3,506.7,445.5z"/>
		<path class="st60" d="M507.7,451.5c-0.8,1-1.7,1.3-2.7,0.6c-1.1-0.8-1.3-2-0.6-3.1c0.7-1.1,1.9-1.5,3-0.7
			C508.4,449.1,508.4,450.3,507.7,451.5z"/>
	</g>
	<path class="st61" d="M508.2,500.2c0.3-2.1,1-2.2,2.5-0.4c2.3,2.7,5.3,4.4,8.6,5.3c2.1,0.5,2,1.4,0.7,2.9c-0.7,0.8-1.2,1.7-2,2.3
		c-1.9,1.7-3.9,2.9-6.4,2c-2.5-0.9-3.4-3.1-3.9-5.6C507.4,504.6,507.6,502.5,508.2,500.2z"/>
</g>
<path class="st76" d="M258.2,180.6c2.5-1.9,3.8-4.9,5-7.7c1.3-2.8,2.9-5.8,5.6-7.2s7-0.4,7.7,2.6c0.7,3.3-2.8,5.9-6,6.8
	c-3.2,0.9-7,1.2-9.1,3.8"/>
<path class="st76" d="M278.3,215.9c1.5-0.5,2.6-2.1,3.8-3.7c1.1-1.5,2.4-3,3.9-3.2c1.5-0.1,3.2,1.8,2.9,4.1c-0.3,2.4-2.4,3.1-4,2.7
	c-1.6-0.4-3.3-1.3-4.8-0.2"/>
<path class="st76" d="M75.5,296.1c-1.6,0.3-2.9,1.6-4.2,2.8c-1.3,1.2-2.7,2.4-4.3,2.4s-3.3-1.7-2.8-3.6c0.5-2,2.7-2.4,4.4-2
	c1.7,0.4,3.5,1.3,5.1,0.5"/>
<g>
	<g>
		<path class="st0" d="M25.7,234.1c-1.3-6.7,0.1-13.4,4-20.3c1.3-2.3,3-4.5,4.9-6.4l2.4,2.2c-2.9,3.3-4.9,5.8-5.9,7.6
			c-3.2,5.7-4.2,11.2-2.9,16.5c1.3,5.3,4.4,9.4,9.3,12.2c6.1,3.5,11.7,4.4,16.8,2.6c5.1-1.8,9.5-6,13.4-12.7
			c0.7-1.3,1.3-2.4,1.8-3.4c0.4-1,0.9-2.2,1.4-3.7c-1.7-0.7-4.4-2.1-7.9-4.2c-1-0.6-2.4-1.3-4-2.1l-2.5-1.3l1.9-3.4
			c0.8,0.6,2.7,1.8,5.8,3.7c3.1,1.9,5.7,3.4,7.7,4.6c1,0.5,1.6,0.9,1.9,1c-0.4,2.8-1.8,6.2-4.1,10.3c-4.2,7.3-9.1,12-14.9,14.1
			c-5.8,2.1-11.7,1.4-17.9-2.2C30.6,245.8,27,240.8,25.7,234.1z"/>
		<path class="st0" d="M86,210.6l-5.4-4.7c-5.2-4.5-9.4-8-12.5-10.5c-3.3-2.6-6.9-5.3-10.8-8.1s-6-4.3-6.3-4.5l16.8-21.2l2.1,1.9
			c-3.6,4.3-8.5,10.3-14.8,18.2c4,3.1,8.6,6.6,13.7,10.7c5-6.2,8.7-11.2,11.3-14.9l2.4,1.9c-3.9,4.6-7.9,9.4-11.9,14.5l5.9,4.7
			c3.9,3.1,7.1,5.6,9.8,7.5c5.8-7.3,11-14.2,15.5-20.4l2.3,2L86,210.6z"/>
		<path class="st0" d="M103.8,128.9c-4.1,3.8-6.8,6.3-8,7.5c3.5,4,7.7,8.6,12.6,13.6c5.2,5.4,10.7,11,16.6,16.7l-2.9,2.7
			c-6.3-7.2-11.6-13-15.8-17.4c-2.2-2.3-4.3-4.4-6.2-6.3c-1.9-1.9-4.3-4.1-7.1-6.8c-1.4,1.4-3.5,3.5-6.3,6.3l-5.3,5.3l-2-2.1
			l26.5-25.5l1.8,2.1L103.8,128.9z"/>
		<path class="st0" d="M160.6,117.4c0.6,5.4,1.1,9.5,1.5,12.3c0.5,2.8,0.9,4.5,1.3,5.1l-3.5,2.1c-0.4-0.6-1.2-8.7-2.3-24.1
			c-1.2-15.4-2.2-23.8-2.9-25.1l3.7-2.3c0.7,1.1,7.6,5.7,20.6,13.7c13.1,8,19.9,12.4,20.5,13.5l-3.3,2.1c-0.8-1.3-5.6-4.7-14.4-10.3
			L160.6,117.4z M158,89l-0.3,0.2c0.3,0.6,1.2,9.2,2.5,25.8l19.4-11.9c-7.3-4.8-12.7-8.2-16.2-10.4C160,90.6,158.2,89.3,158,89z"/>
		<path class="st0" d="M232.6,83.7l2.3,6.6c0.7,1.9,1.1,3.2,1.4,4.1c8.8-3.1,16.7-5.9,23.6-8.6l0.8,2.7l-26.8,9.3
			c-2.1-6.5-4.5-14-7.4-22.3c-1.4-3.9-2.6-7.5-3.8-10.9c-1.2-3.3-2.3-6.3-3.4-9l3.7-1.3c1.3,5,3.4,11.7,6.3,20.2
			C230.1,76.9,231.2,80,232.6,83.7z"/>
		<path class="st0" d="M277.7,79.5c-5.1-3.1-8.3-8.4-9.6-15.7c-1.2-7,0-13.1,3.7-18.1c3.7-5.1,8.6-8.1,14.7-9.2
			c5.9-1,11.3,0.1,16.4,3.3c5,3.3,8.1,8.3,9.3,15c1.3,7.4,0.1,13.6-3.6,18.7c-3.7,5.1-8.7,8.2-14.8,9.3
			C288.2,83.7,282.8,82.7,277.7,79.5z M277.2,43.5c-2.6,2.4-4.4,5.4-5.4,8.8c-1,3.5-1.1,7.1-0.4,11c1.2,6.6,4,11.3,8.5,14.1
			c4.5,2.8,9.4,3.8,14.7,2.8c4.7-0.8,8.6-3.5,11.6-8.1s4-9.9,2.9-16.2c-1.2-6.7-4-11.4-8.4-14.3c-4.4-2.8-9.4-3.8-14.8-2.8
			C282.7,39.5,279.8,41,277.2,43.5z"/>
		<path class="st0" d="M357.8,34c-5.6,0-9.2,0-11,0c-0.1,5.4-0.2,11.5,0,18.5c0.1,7.5,0.4,15.3,0.8,23.6l-4,0.1
			c0.2-9.6,0.3-17.4,0.2-23.5c-0.1-3.2-0.2-6.2-0.3-8.8s-0.3-5.9-0.6-9.8c-2,0-5,0.2-8.9,0.3l-7.5,0.3l-0.1-2.9l36.8-0.7l-0.1,2.8
			L357.8,34z"/>
		<path class="st0" d="M378.4,71.2c0.8-0.6,1.8-0.9,3-0.8c1.2,0.1,2,0.5,2.4,1.1c0.4,0.6,0.6,1.4,0.5,2.3c-0.1,1-0.5,1.9-1.3,2.6
			c-0.8,0.7-1.8,1-2.9,0.9c-1.1-0.1-1.9-0.5-2.3-1.1c-0.5-0.7-0.6-1.4-0.6-2.3C377.2,72.6,377.7,71.8,378.4,71.2z M381.6,50l0.3-7.6
			c0.1-2.5,0.2-4.5,0.3-6c0.1-1.2,0.4-2.2,0.8-2.9c0.4-0.7,1.1-1,1.8-0.9c1.5,0.1,2.1,1.3,1.9,3.6c-0.2,2.7-0.9,6.8-2,12.2
			c-1.1,5.5-1.9,9-2.2,10.6l-1.3-0.1C381.4,56.7,381.5,53.7,381.6,50z"/>
	</g>
</g>
</svg>
