<?xml version="1.0" encoding="utf-8"?>
<!-- Generator: Adobe Illustrator 25.4.1, SVG Export Plug-In . SVG Version: 6.00 Build 0)  -->
<svg version="1.1" id="Layer_1" xmlns="http://www.w3.org/2000/svg" xmlns:xlink="http://www.w3.org/1999/xlink" x="0px" y="0px"
	 viewBox="0 0 100 100" style="enable-background:new 0 0 100 100;" xml:space="preserve">
<style type="text/css">
	.st0{fill:#DDDDDD;}
	.st1{fill:#404040;}
</style>
<polygon class="st0" points="50,79.6 20.9,94.9 26.4,62.5 2.9,39.5 35.4,34.8 50,5.3 64.6,34.8 97.1,39.5 73.6,62.5 79.1,94.9 "/>
<path class="st1" d="M50,6.4l14,28.4l0.2,0.5l0.5,0.1L96,39.9L73.4,62L73,62.3l0.1,0.5L78.5,94l-28-14.7L50,79l-0.5,0.2L21.5,94
	l5.3-31.2l0.1-0.5L26.6,62L4,39.9l31.3-4.5l0.5-0.1l0.2-0.5L50,6.4 M50,4.2L35.1,34.3L1.8,39.2l24.1,23.5l-5.7,33.2L50,80.2
	l29.8,15.7l-5.7-33.2l24.1-23.5l-33.3-4.8L50,4.2L50,4.2z"/>
</svg>
