<?xml version="1.0" encoding="utf-8"?>
<!-- Generator: Adobe Illustrator 26.0.2, SVG Export Plug-In . SVG Version: 6.00 Build 0)  -->
<svg version="1.1" id="Layer_1" xmlns="http://www.w3.org/2000/svg" xmlns:xlink="http://www.w3.org/1999/xlink" x="0px" y="0px"
	 viewBox="0 0 474.7 209.1" style="enable-background:new 0 0 474.7 209.1;" xml:space="preserve">
<style type="text/css">
	.st0{fill:#C61E59;}
	.st1{fill:#E8A2BB;}
</style>
<path class="st0" d="M43.7,92.2c-3.5-0.3-7.1-0.3-10.8-0.1c-8.3,0.5-14.6,2.4-18.8,5.9s-6.2,8.2-5.8,14c0.3,4.4,1.7,7.7,4.5,10
	s7.2,3.9,13.3,4.8l3.1,0.4c3.2,0.5,5.3,1,6.3,1.6c1.1,0.6,1.6,1.5,1.7,2.5c0.1,1.7-0.7,2.9-2.4,3.9s-4.4,1.6-8,1.7
	c-3.7,0.2-7.3,0-10.8-0.8c-3.5-0.7-6.9-1.8-10-3.5L4.2,146c4,0.9,7.9,1.6,11.8,1.8c3.8,0.3,7.6,0.4,11.2,0.2
	c8.6-0.5,15.3-2.6,19.9-6.4c4.6-3.7,6.7-8.6,6.3-14.8c-0.3-4.1-1.8-7.2-4.7-9.2c-2.9-2.1-7.8-3.7-14.7-4.8l-3.1-0.4
	c-3-0.5-5.1-1-6-1.5c-1.1-0.5-1.6-1.3-1.7-2.1c-0.1-1.7,0.8-2.9,2.5-3.9s4.3-1.6,7.7-1.7c2.9-0.2,6,0,9.4,0.7
	c3.3,0.6,6.7,1.7,10.1,3l1.7-13.3C50.8,93,47.3,92.5,43.7,92.2z M115.9,105.5c0.1-1.3,0.1-2.3,0-3.4c-0.3-4.7-1.8-8.2-4.7-10.5
	c-2.8-2.4-6.6-3.4-11.6-3.1c-3.4,0.2-6.7,1.2-9.7,2.8c-3,1.7-6,4.1-9,7.4L84.7,70l-17,1.1l-9.8,74.3l17-1l3.5-26.3
	c0.7-4.9,2.2-8.7,4.6-11.7c2.3-2.9,5.2-4.4,8.7-4.7c2-0.1,3.7,0.3,4.9,1.4c1.2,1.1,1.8,2.5,1.9,4.6c0,0.7,0,1.7-0.1,3
	s-0.3,2.8-0.6,4.6l-3.7,27.9l17-1l4.4-32.5C115.7,108,115.8,106.7,115.9,105.5z M176.9,103.3c0.1-1.3,0.1-2.4,0-3.5
	c-0.3-5.5-2.5-9.5-6.4-11.9c-4-2.4-9.9-3.5-17.7-3c-4,0.2-7.8,0.7-11.5,1.4c-3.7,0.7-7.3,1.6-10.7,2.6l-1.7,13c3-1.7,6-2.9,9.3-3.8
	c3.2-0.9,6.6-1.5,10.1-1.7c3.9-0.2,6.8,0.1,8.8,1.1s3.1,2.4,3.2,4.6c0,0.2,0,0.3,0,0.5s0,0.5-0.1,1l-0.1,1.4l-10,0.6
	c-9.8,0.6-17.2,2.8-22.2,6.7c-5,3.9-7.3,9.2-6.9,15.9c0.3,4.4,1.9,7.9,5.1,10.2c3.1,2.4,7.2,3.5,12.1,3.2c3.6-0.2,6.9-1.2,9.9-2.8
	c3-1.7,5.8-4.2,8.4-7.5l-1,8l16.9-1l4.1-30.5C176.7,106.1,176.9,104.6,176.9,103.3z M158.6,115l-0.3,1.9c-0.6,3.9-1.9,6.9-4.2,9.1
	c-2.2,2.2-5.1,3.5-8.5,3.7c-2.2,0.1-4-0.3-5.3-1.4c-1.4-1.1-2-2.5-2.1-4.4c-0.2-2.5,0.8-4.6,2.9-6c2-1.5,5.2-2.2,9.4-2.5L158.6,115z
	 M227.1,81.3c-1.1-0.1-1.9-0.1-2.7-0.1s-1.5,0-2,0c-4.1,0.3-7.8,1.4-11,3.3s-5.9,4.7-8,8.2l1.3-9.1l-17,1.1l-7.1,53.5l17-1.1
	l3.4-24.7c0.7-5.2,2.3-9.4,5.1-12.3c2.7-2.9,6.2-4.6,10.5-4.8c1.7-0.1,3.2,0,4.6,0.3c1.5,0.3,2.7,0.7,4,1.3L227.1,81.3z
	 M283.3,102.3c0.1-1.5,0.1-2.7,0-4c-0.4-6.4-2.8-11.5-7.2-15.1c-4.5-3.6-10.2-5.1-17.4-4.7c-5.5,0.3-10.5,1.7-14.9,3.8
	c-4.4,2.2-8.1,5.3-11.1,9.3c-2.5,3.3-4.5,6.9-5.6,10.8c-1.2,3.9-1.7,7.9-1.5,11.9c0.4,7,3,12.2,7.7,15.7c4.8,3.5,11.2,5.1,19.4,4.6
	c4.2-0.3,8.4-0.9,12.3-1.8s8.1-2.3,12.1-4.1l1.8-13.3c-4.2,2.3-8.3,4.2-12.1,5.5c-3.9,1.3-7.6,2-11.2,2.2c-4.1,0.3-7.3-0.4-9.4-2
	c-2.1-1.6-3.4-4.1-3.6-7.5c0-0.2,0-0.5,0-0.9s0-0.7,0-0.9l39.5-2.4l0.4-2.7C283.1,105.2,283.2,103.6,283.3,102.3z M244.5,101.4
	c1-3.6,2.6-6.4,4.9-8.4c2.2-1.9,5-3,8.3-3.2c2.6-0.2,4.7,0.5,6.3,1.8c1.6,1.4,2.4,3.3,2.6,5.8c0,0.4,0,0.9,0,1.3s-0.1,0.9-0.1,1.3
	L244.5,101.4z M310.4,129.1c2.6,1.4,5.7,1.8,9.3,1.7c4.1-0.3,8-1.5,11.4-3.8c3.5-2.2,6.5-5.4,9.1-9.6c2-3.3,3.6-6.9,4.6-10.8
	s1.4-7.9,1.1-11.9c-0.4-6.5-2.4-11.6-6.1-15.2s-8.5-5.1-14.5-4.9c-3.4,0.2-6.4,1.2-9.1,2.7c-2.7,1.7-5.3,4.1-7.7,7.3l3.8-28.7
	l-17,1.1l-9.8,74.3l17-1l1.1-7.8C305.6,125.7,307.8,127.8,310.4,129.1z M326,89.6c1.6,1.6,2.5,4,2.7,7.2c0.4,6.2-0.7,11.4-3.2,15.4
	c-2.5,4.1-5.9,6.3-10.2,6.6c-2.8,0.2-5-0.5-6.6-2.1c-1.7-1.6-2.5-3.8-2.7-6.7c-0.4-6.4,0.7-11.8,3.2-15.9s5.9-6.4,10.3-6.7
	C322.2,87.2,324.4,87.9,326,89.6z M406.4,89.4c0.1-1.3,0.1-2.4,0-3.5c-0.3-5.5-2.5-9.5-6.4-11.9c-4-2.4-9.9-3.5-17.7-3
	c-4,0.2-7.8,0.7-11.5,1.4c-3.7,0.7-7.3,1.6-10.7,2.6l-1.7,13c3-1.7,6-2.9,9.3-3.8c3.2-0.9,6.6-1.5,10.1-1.7c3.9-0.2,6.8,0.1,8.8,1.1
	s3.1,2.4,3.2,4.6c0,0.2,0,0.3,0,0.5s0,0.5-0.1,1l-0.1,1.4l-10,0.6c-9.8,0.6-17.2,2.8-22.2,6.7c-5,3.9-7.3,9.2-6.9,15.9
	c0.3,4.4,1.9,7.9,5.1,10.2c3.1,2.4,7.2,3.5,12.1,3.2c3.6-0.2,6.9-1.2,9.9-2.8c3-1.7,5.8-4.2,8.4-7.5l-1,8l16.9-1l4.1-30.5
	C406.2,92.1,406.4,90.6,406.4,89.4z M388.2,101l-0.3,1.9c-0.6,3.9-1.9,6.9-4.2,9.1c-2.2,2.2-5.1,3.5-8.5,3.7c-2.2,0.1-4-0.3-5.3-1.4
	c-1.4-1.1-2-2.5-2.1-4.4c-0.2-2.5,0.8-4.6,2.9-6c2-1.5,5.2-2.2,9.4-2.5L388.2,101z M426.4,123.4l-1.4,2.9c-1.1,2.4-2.3,4.1-3.8,5.1
	c-1.5,1.1-3.6,1.7-6.3,1.7l-5.3,0.3l-1.1,11.2l10.3-0.6c5.1-0.3,9.1-1.6,12.1-3.8s6.2-6.7,9.6-13.4l30-59.9L452.6,68L436,105.8
	l-9.5-36.2l-15.9,1L426.4,123.4z"/>
<path class="st0" d="M151.8,69.3c0.9,0,1.8,0,2.6-0.1l0.2-0.4c15.8-34.7,50.5-57.1,88.4-57.1c19.5,0,40.8,7.3,58.1,19.6
	c-3.8-3.5-7.8-6.7-12.1-9.6c-13.4-9-29-14.7-45.2-16.3c-3.5-0.4-7-0.6-10.5-0.6c-21.4,0-41.7,6.7-59,19.3
	c-7.2,5.2-13.6,11.4-19.1,18.3c-0.3,0.4-0.6,0.7-0.9,1.1c-0.2,0.3-0.4,0.6-0.6,0.8c-5.9,7.9-10.7,16.8-14.1,26.3
	C143.6,70,147.6,69.5,151.8,69.3z"/>
<path class="st1" d="M158.8,69.4c3.3,0.1,6.3,0.5,9.1,1.1c15.6-30.2,47.1-50.9,83.4-50.9c10.5,0,20.7,1.8,30.2,5
	c-12.5-5.7-25.9-8.9-38.5-8.9C207.1,15.7,174.1,36.7,158.8,69.4z"/>
<path class="st1" d="M300.1,33l-0.2,0.2c1,0.6,1.9,1.2,2.9,1.8C301.9,34.3,301,33.6,300.1,33z"/>
<path class="st1" d="M305,147.1c-0.2,0-0.3,0-0.5,0c-3.5,0-7-0.1-10.4-0.2c-16.7,25.4-45.6,42.3-78.3,42.3c-7.9,0-15.6-1-22.9-2.9
	c10.4,3.6,21.1,5.7,31,5.7C255.3,192,286.9,174.4,305,147.1z"/>
<path class="st0" d="M324.4,146.5c-1.4,0.3-2.7,0.4-4.2,0.5c-0.1,0-0.3,0-0.4,0c-1.3,0-2.6,0.1-3.9,0.1c-2.1,0-4.2,0.1-6.2,0.1
	c-18.4,29.3-52.3,48.8-85.8,48.8c-19.9,0-42.2-7.6-59.8-19.8c-0.9-0.6-1.7-1.2-2.6-1.8c3.4,3.6,7.1,6.8,10.9,9.8
	c12.8,9.9,28,16.5,44,19.3c5.7,1,11.5,1.5,17.2,1.5c20,0,39.3-6,56-17.3c14.4-9.8,25.8-22.9,33.4-38.2c0.4-0.8,0.8-1.6,1.2-2.5l0,0
	C324.3,146.7,324.4,146.6,324.4,146.5z"/>
<path class="st0" d="M448.3,149.5c-3.7,0-6.7-3-6.7-6.7s3-6.7,6.7-6.7s6.7,3,6.7,6.7S452,149.5,448.3,149.5z M448.3,137.2
	c-3.1,0-5.6,2.5-5.6,5.6s2.5,5.6,5.6,5.6s5.6-2.5,5.6-5.6S451.4,137.2,448.3,137.2z M446.4,146.4v-6.8h4.6v1.1h-3.3v1.6h2.8v1.1
	h-2.8v2.9L446.4,146.4L446.4,146.4z"/>
</svg>
