<?xml version="1.0" encoding="utf-8"?>
<!-- Generator: Adobe Illustrator 27.1.0, SVG Export Plug-In . SVG Version: 6.00 Build 0)  -->
<svg version="1.1" id="Layer_1" xmlns="http://www.w3.org/2000/svg" xmlns:xlink="http://www.w3.org/1999/xlink" x="0px" y="0px"
	 viewBox="0 0 3865.9 915.3" style="enable-background:new 0 0 3865.9 915.3;" xml:space="preserve">
<style type="text/css">
	.st0{fill:#7A9108;}
	.st1{fill:#FFFFFF;}
	.st2{fill:#708507;}
	.st3{fill:#96B30A;}
</style>
<g>
	<path class="st0" d="M1296.8,336.5l-15.2,81.3c-20.5-9.7-40.9-17-61.2-22.1s-39.4-7.5-57.6-7.4c-20.6,0.1-36.5,2.8-47.8,8.3
		c-11.2,5.4-16.8,13-16.7,23c0,5.9,3.2,10.5,9.4,14c6.2,3.5,18.5,7.1,36.9,11l19,3.4c42.3,8.8,72,20.3,89,34.4s25.6,33.7,25.7,58.8
		c0.2,38-14.7,67.7-44.4,89.2s-71.4,32.2-124.9,32.4c-22.4,0.1-45.3-1.6-68.7-5c-23.4-3.4-47.3-8.6-71.7-15.6l15.4-82.1
		c19,11.1,39.2,19.3,60.7,25c21.5,5.6,43.7,8.3,66.2,8.3c22.1-0.1,38.6-2.8,49.6-8.1c11-5.3,16.6-13,16.6-23.1
		c0-7-3.2-12.5-9.4-16.3s-19.2-7.8-38.7-11.9l-19-3.4c-37.4-7.6-64.1-19.1-80.2-34.2c-16-15.1-24.1-36.1-24.2-63.1
		c-0.1-36.5,13.5-64.6,41.1-84.3c27.5-19.8,66.9-29.8,118.1-30c22.4-0.1,44.5,1.3,66.2,4.3C1252.9,326,1274.8,330.5,1296.8,336.5z"
		/>
	<path class="st0" d="M1660.6,455.1l-38.2,199.4l-104.9,0.4l32.4-170.8c2.3-11.2,4-20.6,5.4-28.2c1.2-7.7,1.8-13.8,1.8-18.3
		c0-12.5-3.5-22.1-10.5-28.9c-6.9-6.8-16.8-10.2-29.4-10.1c-21.6,0.1-40.2,8.6-55.6,25.5s-26.1,40.2-32.1,70.1l-31,161.1l-104.9,0.4
		l86.6-455l105.3-0.4l-33.6,175.5c19.2-19,38.6-33,58-42.3c19.4-9.2,39.8-13.9,61.1-14c30.2-0.1,53.5,7.7,69.9,23.5
		c16.4,15.7,24.7,38,24.8,66.5c0,6.2-0.4,13.2-1.2,20.7C1663.6,437.8,1662.2,446.1,1660.6,455.1z"/>
	<path class="st0" d="M2029.2,464.2l-35.9,186.9l-104.6,0.4l8.6-48.6c-17,19.6-35.1,33.9-54.2,43.3c-19.1,9.3-39.8,14-62.2,14.1
		c-31,0.1-55.6-7.8-73.9-23.9c-18.3-16-27.5-37.7-27.6-64.9c-0.2-41.6,15.8-73.6,48.1-95.9c32.2-22.2,78.6-33.5,139.4-33.7l61.7-0.2
		l1.1-8.2c0.5-2.7,0.9-4.7,1-5.8c0.1-1.1,0.2-2.2,0.2-3.3c0-12.8-6.2-22.5-18.4-29c-12.2-6.5-30.3-9.7-54.3-9.6
		c-21.6,0.1-42.5,2.4-62.8,6.9c-20.2,4.6-39.8,11.3-58.7,20.4l15.6-79.9c21.8-5.5,44.1-9.8,67-12.7s46.6-4.4,71.2-4.5
		c48.5-0.2,84.6,8.1,108.2,24.6c23.6,16.6,35.5,41.9,35.7,76c0,6.6-0.4,13.9-1.2,21.8C2032.2,446.5,2030.9,455.1,2029.2,464.2z
		 M1865.9,504.3c-26.1,0.1-45.9,4.2-59.1,12.3c-13.4,8.2-19.9,20.1-19.9,35.8c0,11.9,4,21.3,11.9,28c7.9,6.9,18.8,10.2,32.6,10.1
		c21.4-0.1,39.4-6.6,53.7-19.6c14.4-13,24-31.3,28.7-54.9l2.3-12L1865.9,504.3z"/>
	<path class="st0" d="M2323.6,414.8c-7.2-4-15.2-7.1-24-9.2s-18.3-3.2-28.4-3.2c-26.7,0.1-48.8,8.8-66.4,26
		c-17.6,17.2-29.4,42-35.5,74.3L2140,653.6l-104.9,0.4l62.6-327.5l105.3-0.4l-11.2,56.1c13.8-20.6,31-36.6,51.7-47.7
		s43.8-16.7,69.1-16.8c3.7,0,7.9,0.2,12.6,0.5c4.7,0.4,10.2,1,16.7,1.7L2323.6,414.8z"/>
	<path class="st0" d="M2671.5,497.3l-3.4,16.7l-245,0.9c0,1.1-0.1,2.9-0.3,5.1c-0.2,2.3-0.3,4-0.3,5.1c0.1,21.3,6.5,37.1,19.3,47.5
		c12.8,10.5,32,15.6,57.5,15.6c22-0.1,45.2-3.4,69.7-10.2c24.4-6.7,50.1-16.6,76.9-29.8l-15.8,81.3c-25.5,9.4-50.9,16.5-76.1,21.2
		s-50.9,7-77,7.1c-51,0.2-90.5-11.5-118.3-35c-27.9-23.5-41.8-56.8-42-99.8c-0.1-25,4.2-49.1,13-72.7c8.8-23.5,21.6-45.1,38.5-64.6
		c19.9-23.5,43.9-41.3,71.9-53.5c27.9-12.1,59-18.3,93-18.5c44.2-0.2,79.4,11.5,105.5,35s39.2,55.2,39.4,95.2
		c0,7.8-0.4,16.1-1.5,24.7C2675.4,477.5,2673.8,487,2671.5,497.3z M2572.5,449.7c0.6-2.5,1.1-5.1,1.3-7.7c0.3-2.6,0.4-5.3,0.4-7.7
		c-0.1-15.6-4.7-27.9-14.1-37.1c-9.4-9.1-22.1-13.7-38-13.6c-20.5,0.1-37.9,5.7-52.1,17c-14.3,11.2-25.2,27.9-32.7,49.6
		L2572.5,449.7z"/>
	<path class="st0" d="M2795,602.1l-9.5,47.4l-104.9,0.4l86.7-455.1l105.2-0.4l-33.6,175.5c15.9-19.2,32.6-33.3,50.1-42.4
		c17.5-9.1,36.6-13.7,57.5-13.8c36.8-0.1,66,11.5,87.5,34.8c21.5,23.3,32.3,55.1,32.5,95.4c0.1,25.1-3.6,49.6-11,73.5
		c-7.4,23.9-18.1,45.4-32.1,65c-17.7,24.6-37.6,43.3-59.8,56.1c-22.3,12.7-46.1,19.2-71.7,19.2c-22.4,0.1-41.5-4.4-57.2-13.4
		C2819.1,635.2,2805.8,621.1,2795,602.1z M2904.2,389.8c-26.9,0.1-48.9,12.6-65.8,37.5c-17,24.9-25.4,57.2-25.2,97
		c0.1,17.9,4.9,32,14.6,42.2s23.1,15.3,40.2,15.2c26.4-0.1,48.1-12.4,65.1-36.9s25.6-55.9,25.4-94c-0.1-19.9-4.7-35.1-14.1-45.4
		C2935.2,394.9,2921.7,389.7,2904.2,389.8z"/>
	<path class="st0" d="M3423.6,458.1L3387.7,645l-104.6,0.4l8.6-48.6c-17,19.5-35.1,34-54.2,43.3c-19.1,9.3-39.8,14.1-62.2,14.1
		c-31,0.1-55.6-7.8-73.9-23.9c-18.3-16-27.4-37.6-27.6-64.9c-0.2-41.7,15.9-73.6,48.1-95.9s78.6-33.4,139.4-33.7l61.7-0.2l1.1-8.2
		c0.5-2.7,0.9-4.7,1-5.9c0.1-1.1,0.2-2.2,0.2-3.3c-0.1-12.8-6.2-22.5-18.4-29s-30.3-9.7-54.2-9.6c-21.6,0.1-42.5,2.4-62.8,6.9
		c-20.2,4.6-39.8,11.3-58.7,20.4l15.5-79.9c21.8-5.5,44.2-9.8,67-12.7c22.9-2.9,46.6-4.4,71.2-4.5c48.5-0.2,84.6,8.1,108.2,24.6
		c23.6,16.6,35.5,41.9,35.7,76c0,6.6-0.4,13.9-1.2,21.8C3426.5,440.3,3425.2,448.8,3423.6,458.1z M3260.3,498
		c-26.1,0.1-45.9,4.2-59.1,12.3c-13.3,8.2-19.9,20.1-19.9,35.8c0,11.9,4,21.3,11.9,28c7.9,6.9,18.8,10.2,32.6,10.1
		c21.4-0.1,39.4-6.6,53.7-19.6c14.4-13,24-31.3,28.7-54.9l2.3-11.9L3260.3,498z"/>
	<path class="st0" d="M3445.2,317.9l98.8-0.4l45.8,226.7L3705.1,317l111.9-0.4l-206,359.1c-23,40.4-44.4,66.9-64,79.6
		c-19.7,12.7-45.1,19-76.2,19.2l-63.4,0.3l10.5-68.7l33-0.1c17.1-0.1,30.4-3,39.9-8.8c9.4-5.8,17.8-15.9,25.2-30.3l9.6-17.6
		L3445.2,317.9z"/>
</g>
<g>
	<circle class="st1" cx="465.2" cy="457.9" r="444.6"/>
	<path class="st2" d="M415.8,626.2c-13,0-26-0.9-38.5-1.7c-3.8-0.3-7.6-0.5-11.4-0.8c-39.3-2.4-80-9.1-117.7-19.6
		c-43.6-12-81.6-28.3-113-48.5c-4.8-3-9.9-6.5-16-11c-17.1-14.9-27.9-35.2-30.3-57.4c-0.2-2.7-0.5-5.5-0.6-8.4
		c-0.4-7.9-0.6-14.6-0.6-21c0-100.9,39.3-195.7,110.6-267c71.3-71.3,166.1-110.6,266.9-110.6c100.3,0,194.6,38.8,265.6,109.2
		l3.8,3.8c4.6,5.6,6,12,3.9,17.5c-2.5,6.9-10,11.1-19.6,11.1c0,0,0,0,0,0c-3.1,0-6.2-0.5-9.3-1.3l-0.1,0c-1.9-0.8-3.8-1.6-5.7-2.3
		c-38.5-14.5-81.2-24.5-126.8-29.7c-18-2-37.7-2.9-61.9-2.9h-9c-27.1,0.1-52.5,1.9-75.4,5.4c-46.4,7.2-84.7,21.6-113.8,42.5
		c-43.7,31.2-65.8,76.5-65.7,134.7c0,0.8,0,1.6,0.1,2.4c0,0.8,0.1,1.5,0.1,2.3c1,40.6,13.9,72.9,38.4,96
		c25.6,24.2,68.8,42.6,128.4,54.7l30.5,5.5c31.5,6.5,52.5,13,62.6,19.3c10.4,6.4,15.6,15.5,15.6,27.2c0,16.7-9.2,29.5-27.4,38.2
		c-9.9,4.7-22.9,8.3-38.5,10.4C445.6,625.6,430.5,626.2,415.8,626.2z"/>
	<path class="st3" d="M465.2,835.4c-52.3,0-103-10.5-150.5-31.2c-45.9-20-86.9-48.6-121.8-84.9c-2.5-2.5-4.8-5-7.2-7.6l-0.4-0.5
		l-0.1-0.1c-3-5-3.7-10.3-1.9-15c2.6-6.6,9.9-10.7,19.1-10.7c2.8,0,5.7,0.4,8.5,1.1l0.1,0l0.1,0c1.6,0.7,3.2,1.3,4.7,2
		c1.6,0.6,3.1,1.3,4.7,2c67.8,28.3,139.7,45.2,192.3,45.2c1,0,2,0,3,0c23.9-0.3,43.7-1.2,62.3-3c56.4-6.7,102.9-22.9,138.1-48.3
		c46.9-33.9,70.8-81.3,70.9-140.9v-1.6c-0.1-39.9-13.9-71.4-40.8-93.7c-27.3-22.6-75.3-41.1-142.6-55l-30.5-5.5
		c-30.2-6.3-49.7-12.1-59.7-17.8c-10.4-5.8-15.7-13.7-15.7-23.5c-0.1-16.4,9.1-29.3,27.5-38.1c10-4.9,22.6-8.5,37.4-10.7
		c16.2-1.6,32.5-2.5,48.3-2.6h4c25.5,0,71.6,3.9,124.7,14.8c42.6,8.8,104.2,25.2,155.4,53.9c2.7,1.4,5.3,3,7.9,4.5l1.6,0.9
		c21.8,14.6,35.8,39,37.4,65.2c0.1,0.5,0.1,1,0.1,1.4c0.3,7.1,0.7,14.5,0.7,21.9c0,100.9-39.3,195.7-110.6,267
		C660.8,796.1,566,835.4,465.2,835.4z"/>
</g>
</svg>
