<?xml version="1.0" encoding="utf-8"?>
<!-- Generator: Adobe Illustrator 26.0.3, SVG Export Plug-In . SVG Version: 6.00 Build 0)  -->
<svg version="1.1" id="Layer_1" xmlns="http://www.w3.org/2000/svg" xmlns:xlink="http://www.w3.org/1999/xlink" x="0px" y="0px"
	 viewBox="0 0 490.9 104.3" style="enable-background:new 0 0 490.9 104.3;" xml:space="preserve">
<style type="text/css">
	.st0{fill:none;}
	.st1{fill:#FFFFFF;}
</style>
<path class="st1" d="M48.2,23.8c-3.6-0.5-7.3-0.8-11-0.8c-8.5,0-15.1,1.6-19.7,4.9c-4.6,3.3-6.9,8-6.9,14c0,4.5,1.3,8,4,10.5
	c2.7,2.5,7.1,4.5,13.3,5.8l3.2,0.6c3.2,0.7,5.4,1.4,6.4,2c1,0.7,1.6,1.6,1.6,2.7c0,1.7-0.9,3-2.8,3.8c-1.9,0.9-4.6,1.3-8.3,1.3
	c-3.8,0-7.4-0.5-11-1.4c-3.6-0.9-7-2.3-10.1-4.2L4.2,76.8c4.1,1.2,8,2.1,11.9,2.6c3.9,0.6,7.7,0.9,11.4,0.9c8.9,0,15.9-1.8,20.8-5.3
	c5-3.5,7.5-8.5,7.5-14.8c0-4.2-1.4-7.5-4.2-9.8c-2.8-2.4-7.8-4.3-14.8-5.8L33.7,44c-3.1-0.7-5.1-1.3-6.1-1.9c-1-0.6-1.6-1.4-1.6-2.3
	c0-1.7,0.9-2.9,2.8-3.8c1.9-0.9,4.5-1.3,8-1.3c3,0,6.2,0.4,9.6,1.3c3.4,0.8,6.8,2.1,10.2,3.7l2.6-13.5
	C55.5,25.1,51.8,24.3,48.2,23.8z M121.5,42c0.1-1.3,0.2-2.4,0.2-3.5c0-4.8-1.4-8.5-4.1-11.1c-2.7-2.6-6.6-4-11.6-4
	c-3.5,0-6.9,0.8-10.2,2.3c-3.2,1.5-6.5,3.9-9.7,7l5.7-29.2l-17.5,0L59.5,79.3l17.5,0l5.3-26.8c1-5,2.8-8.9,5.4-11.7
	c2.6-2.8,5.7-4.2,9.3-4.2c2.1,0,3.7,0.6,4.9,1.7c1.1,1.1,1.7,2.7,1.7,4.8c0,0.7-0.1,1.8-0.3,3c-0.2,1.3-0.5,2.8-0.9,4.7l-5.5,28.4
	l17.5,0l6.5-33.2C121.1,44.7,121.3,43.3,121.5,42z M184.4,43.7c0.1-1.3,0.2-2.5,0.2-3.6c0-5.7-2-9.9-5.9-12.7
	c-3.9-2.8-9.9-4.2-18-4.2c-4.1,0-8,0.2-11.9,0.7c-3.8,0.5-7.5,1.2-11.2,2.1L135,39.2c3.1-1.5,6.4-2.6,9.8-3.3
	c3.4-0.7,6.9-1.1,10.5-1.1c4,0,7,0.6,9,1.6c2,1.1,3,2.7,3,4.9c0,0.2,0,0.3,0,0.5c0,0.2-0.1,0.5-0.2,1l-0.2,1.4l-10.3,0
	c-10.1,0-17.9,1.8-23.3,5.5c-5.4,3.7-8.1,9-8.1,15.9c0,4.5,1.5,8.2,4.5,10.8c3,2.7,7.1,4,12.3,4c3.7,0,7.2-0.8,10.4-2.3
	c3.2-1.5,6.2-3.9,9.1-7.2l-1.5,8.1l17.4,0l6.1-31.1C184,46.4,184.2,45,184.4,43.7z M164.9,54.5l-0.4,2c-0.8,3.9-2.4,7-4.8,9.1
	c-2.4,2.2-5.4,3.2-9,3.2c-2.3,0-4.1-0.6-5.4-1.7c-1.3-1.1-2-2.7-2-4.7c0-2.6,1.1-4.6,3.3-6c2.2-1.3,5.5-2,9.9-2L164.9,54.5z
	 M237.4,24.2c-1.1-0.1-2-0.2-2.8-0.3c-0.8-0.1-1.5-0.1-2.1-0.1c-4.2,0-8.1,0.9-11.5,2.7c-3.5,1.8-6.3,4.5-8.7,7.9l1.9-9.3l-17.5,0
	L186,79.6l17.5,0l5-25.1c1-5.4,3-9.5,6-12.4c2.9-2.9,6.6-4.3,11.1-4.3c1.7,0,3.3,0.2,4.7,0.5c1.5,0.4,2.8,0.9,4,1.6L237.4,24.2z
	 M293.8,49.2c0.2-1.4,0.3-2.8,0.3-4.1c0-6.7-2.2-11.9-6.5-15.9c-4.3-3.9-10.2-5.9-17.5-5.9c-5.7,0-10.9,1-15.5,3
	c-4.7,2-8.7,5-12,8.9c-2.8,3.2-5,6.8-6.5,10.7c-1.5,3.9-2.2,7.9-2.2,12.1c0,7.2,2.3,12.7,6.9,16.7c4.6,3.9,11.2,5.9,19.7,5.9
	c4.4,0,8.6-0.4,12.8-1.1c4.2-0.8,8.4-1.9,12.7-3.5l2.7-13.5c-4.5,2.2-8.8,3.8-12.8,4.9c-4.1,1.1-7.9,1.6-11.6,1.6
	c-4.3,0-7.4-0.9-9.6-2.6c-2.1-1.8-3.2-4.4-3.2-7.9c0-0.2,0-0.5,0-0.9c0-0.4,0.1-0.7,0.1-0.9l40.8,0l0.6-2.8
	C293.3,52.3,293.6,50.7,293.8,49.2z M253.9,45.9c1.3-3.6,3.1-6.4,5.5-8.2c2.4-1.9,5.3-2.8,8.7-2.8c2.7,0,4.8,0.8,6.3,2.3
	c1.6,1.5,2.3,3.6,2.3,6.2c0,0.4,0,0.9-0.1,1.3c0,0.4-0.1,0.9-0.2,1.3L253.9,45.9z M320,78.6c2.6,1.5,5.8,2.3,9.5,2.3
	c4.3,0,8.2-1,12-3.2c3.7-2.1,7.1-5.2,10-9.3c2.3-3.2,4.1-6.8,5.4-10.8c1.3-4,1.9-8,1.9-12.2c0-6.7-1.8-12-5.3-15.9
	c-3.6-3.9-8.4-5.9-14.6-5.9c-3.5,0-6.7,0.7-9.6,2.3c-2.9,1.5-5.7,3.9-8.4,7l5.7-29.2l-17.5,0l-14.8,75.8l17.5,0l1.6-7.9
	C315.2,74.7,317.4,77,320,78.6z M338.5,38.8c1.5,1.7,2.3,4.3,2.3,7.6c0,6.4-1.4,11.6-4.3,15.7c-2.9,4.1-6.5,6.1-10.9,6.1
	c-2.9,0-5.1-0.9-6.7-2.6c-1.6-1.7-2.4-4.1-2.4-7c0-6.6,1.4-12,4.3-16.1c2.8-4.1,6.5-6.2,11-6.2C334.7,36.2,336.9,37.1,338.5,38.8z
	 M421.1,43.7c0.1-1.3,0.2-2.5,0.2-3.6c0-5.7-2-9.9-5.9-12.7c-3.9-2.8-9.9-4.2-18-4.2c-4.1,0-8,0.2-11.9,0.7s-7.5,1.2-11.2,2.1
	l-2.6,13.3c3.1-1.5,6.4-2.6,9.8-3.3c3.4-0.7,6.9-1.1,10.5-1.1c4,0,7,0.6,9,1.6c2,1.1,3,2.7,3,4.8c0,0.2,0,0.3,0,0.5
	c0,0.2-0.1,0.5-0.2,1l-0.2,1.4l-10.3,0c-10.1,0-17.9,1.8-23.3,5.5c-5.4,3.7-8.1,9-8.1,15.9c0,4.5,1.5,8.2,4.5,10.8
	c3,2.7,7.1,4,12.3,4c3.7,0,7.2-0.8,10.4-2.3c3.2-1.5,6.2-3.9,9.1-7.2l-1.5,8.1l17.4,0l6.1-31.1C420.7,46.5,421,45.1,421.1,43.7z
	 M401.6,54.6l-0.4,2c-0.8,3.9-2.4,7-4.8,9.1c-2.4,2.2-5.4,3.2-9,3.2c-2.3,0-4.1-0.6-5.4-1.7c-1.3-1.1-2-2.7-2-4.7
	c0-2.6,1.1-4.6,3.3-6c2.2-1.3,5.5-2,9.9-2L401.6,54.6z M439.5,79.9l-1.6,2.9c-1.2,2.4-2.6,4.1-4.2,5c-1.6,1-3.8,1.4-6.6,1.4l-5.5,0
	l-1.8,11.4l10.6,0c5.2,0,9.4-1,12.7-3.1c3.3-2.1,6.9-6.5,10.7-13.2l34.6-59.7l-18.7,0l-19.4,37.8l-7.5-37.8l-16.5,0L439.5,79.9z"/>
</svg>
