<?xml version="1.0" encoding="utf-8"?>
<!-- Generator: Adobe Illustrator 25.2.3, SVG Export Plug-In . SVG Version: 6.00 Build 0)  -->
<svg version="1.1" id="Layer_1" xmlns="http://www.w3.org/2000/svg" xmlns:xlink="http://www.w3.org/1999/xlink" x="0px" y="0px"
	 viewBox="0 0 480 205.9" style="enable-background:new 0 0 480 205.9;" xml:space="preserve">
<style type="text/css">
	.st0{fill:#FFFFFF;}
</style>
<path class="st0" d="M313.4,35c-4.7-4-9.7-7.6-15.1-10.7c-12.1-7-25.4-11.3-39.5-12.8c-3.5-0.4-7-0.5-10.5-0.5
	c-37.6,0-72.2,21.5-88.9,55c-0.2,0-0.5,0-0.7,0c-3.4,0.2-6.7,0.5-10,0.9c-2.3,0.2-4.7,0.5-7.1,1c-0.3,0.1-0.7,0.2-1,0.2
	c-0.5,0.1-1,0.2-1.6,0.3c3.3-9.3,7.9-18.1,13.8-26.1c6.3-8.6,13.8-16.2,22.5-22.5C193,6.9,214,0,235.9,0c3.6,0,7.2,0.2,10.8,0.6
	c16.6,1.7,32.7,7.5,46.6,16.8C300.7,22.3,307.5,28.3,313.4,35z M311.3,143.9c-0.2-0.1-0.3-0.2-0.5-0.3
	c-17.7,31.2-50.7,50.5-86.5,50.5c-5.7,0-11.4-0.5-17.1-1.5c-13.9-2.4-26.9-7.6-38.5-15.4c-5.2-3.5-9.9-7.4-14.3-11.7
	c5.4,7.1,11.8,13.5,18.8,18.9c13.2,10.2,28.8,17,45.3,19.9c5.9,1,11.8,1.5,17.7,1.5c0,0,0,0,0,0c20.6,0,40.5-6.1,57.7-17.8
	c15.7-10.7,28-25.2,35.8-42.3c-1.4,0.3-2.8,0.4-4.3,0.5C319.9,146.7,315.2,145.9,311.3,143.9z M40.7,89.8c-3.6-0.3-7.3-0.3-11.1-0.1
	c-8.5,0.5-15,2.5-19.4,6.1c-4.4,3.6-6.4,8.4-6,14.4c0.3,4.5,1.8,7.9,4.6,10.3c2.8,2.4,7.4,4,13.7,4.9l3.2,0.4c3.3,0.5,5.5,1,6.5,1.6
	c1.1,0.6,1.7,1.5,1.7,2.6c0.1,1.7-0.7,3-2.5,4c-1.8,1-4.5,1.6-8.2,1.8c-3.8,0.2-7.5,0-11.1-0.8c-3.6-0.7-7.1-1.9-10.3-3.6L0,145.4
	c4.1,0.9,8.1,1.6,12.1,1.9s7.8,0.4,11.5,0.2c8.9-0.5,15.7-2.7,20.5-6.6c4.7-3.8,6.9-8.9,6.5-15.2c-0.3-4.2-1.9-7.4-4.8-9.5
	c-3-2.2-8-3.8-15.1-4.9l-3.2-0.4c-3.1-0.5-5.2-1-6.2-1.5c-1.1-0.5-1.6-1.3-1.7-2.2c-0.1-1.7,0.8-3,2.6-4c1.8-1,4.4-1.6,7.9-1.8
	c3-0.2,6.2,0.1,9.7,0.7c3.4,0.6,6.9,1.7,10.4,3.1l1.8-13.7C48,90.6,44.3,90.1,40.7,89.8z M114.9,103.5c0.1-1.3,0.1-2.4,0-3.5
	c-0.3-4.8-1.9-8.4-4.8-10.8c-2.9-2.5-6.8-3.5-11.9-3.2c-3.5,0.2-6.9,1.2-10,2.9c-3.1,1.7-6.2,4.2-9.3,7.6L83,66.9L65.5,68
	l-10.1,76.5l17.5-1l3.6-27.1c0.7-5,2.3-9,4.7-12c2.4-3,5.4-4.5,9-4.8c2.1-0.1,3.8,0.3,5,1.4c1.2,1.1,1.9,2.6,2,4.7
	c0,0.7,0,1.8-0.1,3.1c-0.1,1.3-0.3,2.9-0.6,4.7l-3.8,28.7l17.5-1l4.5-33.5C114.7,106.1,114.9,104.8,114.9,103.5z M177.8,101.3
	c0.1-1.3,0.1-2.5,0-3.6c-0.3-5.7-2.6-9.8-6.6-12.3c-4.1-2.5-10.2-3.6-18.2-3.1c-4.1,0.2-8,0.7-11.8,1.4c-3.8,0.7-7.5,1.6-11,2.7
	l-1.8,13.4c3.1-1.7,6.2-3,9.6-3.9c3.3-0.9,6.8-1.5,10.4-1.7c4-0.2,7,0.1,9.1,1.1c2.1,1,3.2,2.5,3.3,4.7c0,0.2,0,0.3,0,0.5
	c0,0.2,0,0.5-0.1,1l-0.1,1.4l-10.3,0.6c-10.1,0.6-17.7,2.9-22.9,6.9c-5.1,4-7.5,9.5-7.1,16.4c0.3,4.5,2,8.1,5.2,10.5
	c3.2,2.5,7.4,3.6,12.5,3.3c3.7-0.2,7.1-1.2,10.2-2.9c3.1-1.7,6-4.3,8.6-7.7l-1,8.2l17.4-1l4.2-31.4
	C177.6,104.1,177.7,102.6,177.8,101.3z M159,113.3l-0.3,2c-0.6,4-2,7.1-4.3,9.4c-2.3,2.3-5.2,3.6-8.8,3.8c-2.3,0.1-4.1-0.3-5.5-1.4
	c-1.4-1.1-2.1-2.6-2.2-4.5c-0.2-2.6,0.8-4.7,3-6.2c2.1-1.5,5.4-2.3,9.7-2.6L159,113.3z M229.5,78.6c-1.1-0.1-2-0.1-2.8-0.1
	c-0.8,0-1.5,0-2.1,0c-4.2,0.3-8,1.4-11.3,3.4c-3.3,2-6.1,4.8-8.2,8.4l1.3-9.4L189,82l-7.3,55.1l17.5-1.1l3.5-25.4
	c0.7-5.4,2.4-9.7,5.2-12.7c2.8-3,6.4-4.7,10.8-4.9c1.7-0.1,3.3,0,4.7,0.3c1.5,0.3,2.8,0.7,4.1,1.3L229.5,78.6z M287.3,100.2
	c0.1-1.5,0.1-2.8,0-4.1c-0.4-6.6-2.9-11.8-7.4-15.5c-4.6-3.7-10.5-5.3-17.9-4.8c-5.7,0.3-10.8,1.7-15.3,3.9
	c-4.5,2.3-8.3,5.5-11.4,9.6c-2.6,3.4-4.6,7.1-5.8,11.1c-1.2,4-1.7,8.1-1.5,12.2c0.4,7.2,3.1,12.6,7.9,16.2c4.9,3.6,11.5,5.2,20,4.7
	c4.3-0.3,8.6-0.9,12.7-1.9c4.1-1,8.3-2.4,12.5-4.2l1.9-13.7c-4.3,2.4-8.5,4.3-12.5,5.7c-4,1.3-7.8,2.1-11.5,2.3
	c-4.2,0.3-7.5-0.4-9.7-2.1c-2.2-1.6-3.4-4.2-3.7-7.7c0-0.2,0-0.5,0-0.9c0-0.4,0-0.7,0-0.9l40.7-2.5l0.4-2.8
	C287,103.2,287.2,101.6,287.3,100.2z M247.3,99.3c1-3.7,2.7-6.6,5-8.6c2.3-2,5.1-3.1,8.5-3.3c2.7-0.2,4.8,0.5,6.5,1.9
	c1.6,1.4,2.5,3.4,2.7,6c0,0.4,0,0.9,0,1.3c0,0.4-0.1,0.9-0.1,1.3L247.3,99.3z M315.3,127.8c2.7,1.4,5.9,1.9,9.6,1.7
	c4.2-0.3,8.2-1.5,11.7-3.9c3.6-2.3,6.7-5.6,9.4-9.9c2.1-3.4,3.7-7.1,4.7-11.1c1-4,1.4-8.1,1.1-12.3c-0.4-6.7-2.5-11.9-6.3-15.6
	c-3.8-3.7-8.8-5.3-14.9-5c-3.5,0.2-6.6,1.2-9.4,2.8c-2.8,1.7-5.5,4.2-7.9,7.5l3.9-29.5l-17.5,1.1l-10.1,76.5l17.5-1l1.1-8
	C310.3,124.3,312.6,126.5,315.3,127.8z M331.3,87.1c1.6,1.6,2.6,4.1,2.8,7.4c0.4,6.4-0.7,11.7-3.3,15.9c-2.6,4.2-6.1,6.5-10.5,6.8
	c-2.9,0.2-5.1-0.5-6.8-2.2c-1.7-1.6-2.6-3.9-2.8-6.9c-0.4-6.6,0.7-12.1,3.3-16.4c2.6-4.3,6.1-6.6,10.6-6.9
	C327.4,84.7,329.7,85.4,331.3,87.1z M414.1,86.9c0.1-1.3,0.1-2.5,0-3.6c-0.3-5.7-2.6-9.8-6.6-12.3c-4.1-2.5-10.2-3.6-18.2-3.1
	c-4.1,0.2-8,0.7-11.8,1.4s-7.5,1.6-11,2.7l-1.8,13.4c3.1-1.7,6.2-3,9.6-3.9c3.3-0.9,6.8-1.5,10.4-1.7c4-0.2,7,0.1,9.1,1.1
	c2.1,1,3.2,2.5,3.3,4.7c0,0.2,0,0.3,0,0.5c0,0.2,0,0.5-0.1,1l-0.1,1.4L386.5,89c-10.1,0.6-17.7,2.9-22.9,6.9
	c-5.1,4-7.5,9.5-7.1,16.4c0.3,4.5,2,8.1,5.2,10.5c3.2,2.5,7.4,3.6,12.5,3.3c3.7-0.2,7.1-1.2,10.2-2.9c3.1-1.7,6-4.3,8.6-7.7l-1,8.2
	l17.4-1l4.2-31.4C413.9,89.7,414,88.2,414.1,86.9z M395.3,98.9l-0.3,2c-0.6,4-2,7.1-4.3,9.4s-5.2,3.6-8.7,3.8
	c-2.3,0.1-4.1-0.3-5.5-1.4c-1.4-1.1-2.1-2.6-2.2-4.5c-0.2-2.6,0.8-4.7,3-6.2c2.1-1.5,5.4-2.3,9.7-2.6L395.3,98.9z M434.7,121.9
	l-1.4,3c-1.1,2.5-2.4,4.2-3.9,5.3c-1.5,1.1-3.7,1.7-6.5,1.8l-5.5,0.3l-1.1,11.5l10.6-0.6c5.2-0.3,9.4-1.6,12.5-3.9
	c3.1-2.3,6.4-6.9,9.9-13.8L480,63.9L461.4,65l-17,38.9l-9.8-37.3l-16.4,1L434.7,121.9z"/>
</svg>
