<?xml version="1.0" encoding="utf-8"?>
<!-- Generator: Adobe Illustrator 13.0.2, SVG Export Plug-In . SVG Version: 6.00 Build 14948)  -->
<!DOCTYPE svg PUBLIC "-//W3C//DTD SVG 1.1 Basic//EN" "http://www.w3.org/Graphics/SVG/1.1/DTD/svg11-basic.dtd">
<svg version="1.1" baseProfile="basic" id="Layer_1"
	 xmlns="http://www.w3.org/2000/svg" xmlns:xlink="http://www.w3.org/1999/xlink" x="0px" y="0px" width="239.24px"
	 height="48.047px" viewBox="0 0 239.24 48.047" xml:space="preserve">
<path fill="#FFFFFF" d="M51.998,16.944l-0.772,5.977c-1.53-0.619-3.043-1.068-4.539-1.349c-1.496-0.279-2.903-0.38-4.22-0.301
	c-1.502,0.09-2.649,0.354-3.44,0.794c-0.791,0.438-1.165,1.018-1.122,1.741c0.025,0.426,0.272,0.752,0.741,0.979
	c0.469,0.229,1.378,0.444,2.728,0.647l1.396,0.172c3.114,0.467,5.318,1.178,6.612,2.131c1.295,0.953,1.997,2.344,2.107,4.171
	c0.167,2.763-0.788,4.985-2.863,6.667c-2.075,1.683-5.062,2.641-8.957,2.875c-1.63,0.098-3.303,0.07-5.019-0.082
	c-1.716-0.153-3.475-0.432-5.276-0.835l0.789-6.042c1.423,0.725,2.93,1.246,4.52,1.563c1.59,0.318,3.208,0.427,4.852,0.328
	c1.601-0.097,2.794-0.36,3.579-0.791c0.785-0.432,1.156-1.016,1.111-1.752c-0.031-0.511-0.282-0.893-0.752-1.15
	c-0.471-0.256-1.423-0.49-2.858-0.702l-1.396-0.173c-2.755-0.402-4.746-1.122-5.974-2.158c-1.229-1.035-1.901-2.53-2.019-4.485
	c-0.159-2.649,0.721-4.75,2.64-6.303c1.918-1.551,4.741-2.439,8.468-2.663c1.629-0.098,3.241-0.085,4.834,0.041
	C48.76,16.368,50.37,16.602,51.998,16.944z"/>
<path fill="#FFFFFF" d="M79.451,24.046l-1.956,14.666l-7.631,0.457l1.656-12.557c0.122-0.817,0.211-1.509,0.271-2.074
	c0.057-0.565,0.077-1.012,0.057-1.337c-0.054-0.906-0.348-1.593-0.88-2.059c-0.533-0.466-1.26-0.671-2.181-0.616
	c-1.573,0.095-2.886,0.79-3.938,2.082c-1.053,1.293-1.734,3.037-2.043,5.232L61.214,39.69l-7.631,0.458L58.015,6.69l7.652-0.46
	l-1.721,12.903c1.321-1.459,2.669-2.563,4.046-3.316c1.376-0.75,2.837-1.172,4.382-1.266c2.196-0.132,3.923,0.34,5.183,1.417
	c1.259,1.077,1.952,2.656,2.077,4.739c0.028,0.454,0.025,0.959-0.004,1.515C79.599,22.778,79.539,23.386,79.451,24.046z"/>
<path fill="#FFFFFF" d="M106.941,23.156l-1.841,13.742l-7.609,0.457l0.425-3.566c-1.162,1.492-2.417,2.615-3.766,3.373
	c-1.348,0.756-2.837,1.184-4.466,1.281c-2.253,0.135-4.077-0.342-5.472-1.432c-1.396-1.089-2.153-2.625-2.272-4.609
	c-0.183-3.031,0.851-5.423,3.1-7.173c2.248-1.749,5.583-2.756,10.004-3.021l4.485-0.27l0.049-0.601
	c0.03-0.201,0.046-0.344,0.048-0.43c0.002-0.086,0.001-0.163-0.003-0.234c-0.056-0.935-0.541-1.613-1.455-2.035
	c-0.915-0.421-2.243-0.579-3.986-0.475c-1.572,0.094-3.085,0.349-4.54,0.763c-1.454,0.415-2.85,0.989-4.184,1.723l0.799-5.871
	c1.563-0.493,3.17-0.892,4.823-1.197s3.372-0.512,5.157-0.619c3.529-0.212,6.187,0.237,7.974,1.345
	c1.787,1.107,2.756,2.902,2.905,5.382c0.029,0.482,0.029,1.012-0.001,1.588C107.087,21.856,107.028,22.482,106.941,23.156z
	 M95.232,26.74c-1.899,0.113-3.316,0.494-4.251,1.141s-1.368,1.543-1.299,2.691c0.052,0.863,0.38,1.527,0.983,1.988
	c0.604,0.463,1.408,0.662,2.415,0.602c1.559-0.094,2.833-0.643,3.826-1.648s1.614-2.376,1.865-4.111l0.118-0.882L95.232,26.74z"/>
<path fill="#FFFFFF" d="M128.795,18.318c-0.542-0.266-1.137-0.457-1.784-0.575c-0.647-0.118-1.339-0.155-2.076-0.11
	c-1.941,0.116-3.516,0.837-4.723,2.161c-1.208,1.324-1.967,3.176-2.279,5.555l-1.509,11.098l-7.63,0.459l3.203-24.084l7.651-0.46
	l-0.583,4.13c0.916-1.562,2.104-2.789,3.565-3.68c1.462-0.892,3.112-1.393,4.955-1.504c0.269-0.016,0.575-0.02,0.917-0.012
	c0.342,0.008,0.748,0.026,1.219,0.055L128.795,18.318z"/>
<path fill="#FFFFFF" d="M154.753,22.864l-0.182,1.227l-17.812,1.071c0.005,0.085,0.005,0.209,0.001,0.373s-0.004,0.287,0.001,0.373
	c0.093,1.545,0.627,2.672,1.601,3.381c0.973,0.709,2.389,1.008,4.245,0.896c1.601-0.096,3.277-0.438,5.026-1.027
	c1.75-0.588,3.574-1.416,5.472-2.482l-0.813,5.979c-1.815,0.791-3.63,1.409-5.445,1.852c-1.815,0.443-3.672,0.723-5.57,0.837
	c-3.713,0.224-6.631-0.462-8.753-2.056c-2.122-1.592-3.277-3.955-3.465-7.087c-0.109-1.813,0.106-3.593,0.649-5.339
	s1.387-3.366,2.536-4.856c1.356-1.789,3.025-3.183,5.006-4.184c1.981-1,4.21-1.575,6.691-1.724c3.216-0.194,5.822,0.511,7.817,2.111
	c1.994,1.601,3.079,3.854,3.253,6.758c0.034,0.568,0.031,1.168-0.009,1.804C154.96,21.404,154.878,22.103,154.753,22.864z
	 M147.359,19.81c0.031-0.187,0.053-0.377,0.062-0.569c0.01-0.192,0.009-0.381-0.002-0.565c-0.068-1.133-0.462-2.012-1.182-2.638
	c-0.721-0.625-1.662-0.903-2.824-0.833c-1.487,0.089-2.728,0.573-3.72,1.449c-0.993,0.878-1.717,2.127-2.175,3.747L147.359,19.81z"
	/>
<path fill="#FFFFFF" d="M164.173,29.974l-0.495,3.486l-7.63,0.457l4.431-33.458L168.13,0l-1.72,12.902
	c1.079-1.458,2.236-2.555,3.471-3.292c1.236-0.735,2.611-1.148,4.128-1.24c2.678-0.161,4.848,0.562,6.509,2.169
	c1.661,1.606,2.579,3.876,2.756,6.81c0.11,1.828-0.056,3.623-0.498,5.384c-0.442,1.762-1.13,3.381-2.065,4.859
	c-1.182,1.863-2.557,3.305-4.124,4.322c-1.567,1.019-3.279,1.584-5.135,1.695c-1.629,0.098-3.035-0.148-4.214-0.738
	C166.057,32.282,165.035,31.316,164.173,29.974z M171.238,14.084c-1.956,0.117-3.499,1.117-4.63,2.999
	c-1.132,1.881-1.611,4.267-1.437,7.157c0.079,1.303,0.491,2.307,1.237,3.008c0.746,0.703,1.742,1.016,2.989,0.94
	c1.913-0.114,3.44-1.099,4.58-2.952c1.14-1.853,1.626-4.169,1.46-6.946c-0.087-1.445-0.49-2.526-1.208-3.245
	C173.51,14.328,172.513,14.007,171.238,14.084z"/>
<path fill="#FFFFFF" d="M210.251,16.854l-1.84,13.742l-7.609,0.457l0.425-3.566c-1.162,1.492-2.417,2.615-3.765,3.373
	c-1.349,0.756-2.837,1.184-4.466,1.281c-2.253,0.136-4.078-0.342-5.472-1.432c-1.396-1.088-2.152-2.625-2.271-4.608
	c-0.183-3.033,0.851-5.423,3.099-7.173c2.249-1.749,5.583-2.756,10.004-3.021l4.485-0.27l0.05-0.601
	c0.03-0.202,0.046-0.344,0.048-0.43c0.002-0.086,0.001-0.163-0.003-0.234c-0.057-0.935-0.541-1.613-1.456-2.035
	c-0.915-0.421-2.243-0.58-3.985-0.475c-1.572,0.094-3.086,0.349-4.541,0.763c-1.454,0.415-2.849,0.989-4.184,1.723l0.799-5.871
	c1.563-0.492,3.171-0.891,4.823-1.197c1.653-0.306,3.371-0.512,5.157-0.619c3.529-0.212,6.187,0.237,7.974,1.345
	c1.787,1.108,2.756,2.902,2.905,5.382c0.029,0.481,0.029,1.012-0.001,1.589C210.397,15.554,210.339,16.18,210.251,16.854z
	 M198.542,20.438c-1.899,0.114-3.316,0.494-4.251,1.14c-0.936,0.646-1.368,1.543-1.299,2.691c0.052,0.863,0.379,1.527,0.982,1.988
	c0.604,0.463,1.409,0.662,2.415,0.602c1.559-0.093,2.833-0.643,3.826-1.648s1.614-2.375,1.866-4.111l0.117-0.882L198.542,20.438z"/>
<path fill="#FFFFFF" d="M212.205,6.521l7.185-0.432l4.264,16.297L231.1,5.386l8.14-0.489l-13.503,26.964
	c-1.51,3.033-2.953,5.052-4.329,6.052c-1.376,0.999-3.198,1.567-5.465,1.704l-4.612,0.277l0.486-5.043l2.402-0.145
	c1.247-0.074,2.201-0.342,2.863-0.801c0.662-0.46,1.231-1.229,1.707-2.311l0.625-1.317L212.205,6.521z"/>
<path fill="#FFFFFF" d="M5.66,40.984l3.304-0.328l-1.281,7.065l-3.3,0.326L5.66,40.984z M23.212,16.118l-3.258,0.32l-1.305,7.153
	l3.261-0.319L23.212,16.118z M2.487,26.371l-0.592,3.298l4.639-0.456l0.626-3.301L2.487,26.371z M25.3,37.818l0.608-3.344
	l-4.919,0.483l-0.561,3.339L25.3,37.818z M9.877,17.424l-1.288,7.161l-0.127,0.704l-0.091,0.505l-0.625,3.3L7.59,29.926l-0.07,0.379
	l-0.901,4.86l3.3-0.33l0.9-4.853l0.132-0.708l0.092-0.502l0.63-3.301l0.151-0.827l0.068-0.384l1.287-7.161L9.877,17.424z
	 M22.94,24.366L22.5,24.41l-0.813,0.079l-3.258,0.32l-0.493,0.046l-0.719,0.071l-4.333,0.426l-0.631,3.303l4.337-0.425l0.399-0.039
	l0.813-0.081l3.296-0.324l0.495-0.046l0.716-0.07l4.925-0.481l0.59-3.302L22.94,24.366z M17.58,29.313l-0.901,4.858l-0.136,0.731
	l-0.092,0.501l-0.504,3.332l-0.149,0.825l-0.078,0.43l-1.279,7.07l3.261-0.318l1.28-7.075l0.135-0.747l0.09-0.504l0.568-3.339
	l0.149-0.828l0.075-0.409l0.882-4.85L17.58,29.313z M9.19,39.402L9.211,39.4l0.001-0.006l-0.021,0.002L9.19,39.402z M9.19,39.402
	L9.211,39.4l0.001-0.006l-0.021,0.002L9.19,39.402z M10.946,35.942l-0.441,0.043L9.69,36.062l-3.298,0.324l-0.491,0.048L5.224,36.5
	l-4.633,0.457L0,40.295l4.667-0.457l0.411-0.041l0.811-0.079l3.301-0.316l0.001-0.006l0.021-0.002l0.473-0.049l0.701-0.067
	l4.324-0.422l0.557-3.336L10.946,35.942z"/>
</svg>
