<?xml version="1.0" encoding="utf-8"?>
<!-- Generator: Adobe Illustrator 13.0.2, SVG Export Plug-In . SVG Version: 6.00 Build 14948)  -->
<!DOCTYPE svg PUBLIC "-//W3C//DTD SVG 1.1 Basic//EN" "http://www.w3.org/Graphics/SVG/1.1/DTD/svg11-basic.dtd">
<svg version="1.1" baseProfile="basic" id="Layer_1"
	 xmlns="http://www.w3.org/2000/svg" xmlns:xlink="http://www.w3.org/1999/xlink" x="0px" y="0px" width="398.175px"
	 height="81.394px" viewBox="0 0 398.175 81.394" xml:space="preserve">
<polygon fill="none" points="31.256,44.586 22.247,45.467 21.91,47.23 20.159,47.402 18.308,57.378 20.123,57.197 19.822,58.984 
	28.801,58.106 29.099,56.316 30.85,56.142 32.7,46.157 30.925,46.331 "/>
<polygon fill="#FFFFFF" points="4.613,41.183 3.513,47.302 12.602,46.409 13.764,40.286 "/>
<polygon fill="#FFFFFF" points="8.13,81.394 14.252,80.79 16.716,67.191 10.587,67.8 "/>
<polygon fill="#FFFFFF" points="46.931,62.418 48.058,56.219 38.451,57.16 37.41,63.352 "/>
<polygon fill="#FFFFFF" points="43.058,22.165 37.015,22.758 34.506,36.509 40.555,35.917 "/>
<polygon fill="#FFFFFF" points="18.322,24.585 15.845,38.352 15.697,39.176 15.528,40.114 14.367,46.235 14.081,47.778 
	14.04,47.999 12.187,57.987 18.308,57.378 20.159,47.402 20.313,46.569 20.484,45.638 21.654,39.513 21.933,37.98 21.974,37.751 
	24.448,23.987 "/>
<polygon opacity="0.5" fill="#150A5E" points="40.231,37.68 40.229,37.691 40.31,37.684 40.312,37.672 "/>
<polygon opacity="0.5" fill="#150A5E" points="40.231,37.68 40.229,37.691 40.31,37.684 40.312,37.672 "/>
<rect x="34.184" y="38.271" opacity="0.5" fill="#150A5E" width="0.002" height="0.013"/>
<rect x="34.184" y="38.271" opacity="0.5" fill="#150A5E" width="0.002" height="0.013"/>
<polygon fill="#FFFFFF" points="42.071,37.512 41.736,37.545 40.31,37.684 40.229,37.691 40.231,37.68 34.188,38.271 34.185,38.285 
	34.183,38.285 33.271,38.373 32.419,38.456 23.417,39.34 22.247,45.467 31.256,44.586 31.514,44.561 40.054,43.724 40.901,43.64 
	50.52,42.7 51.615,36.576 "/>
<polygon opacity="0.5" fill="#150A5E" points="35.623,63.561 35.678,63.556 35.684,63.521 35.629,63.526 "/>
<polygon opacity="0.5" fill="#150A5E" points="35.623,63.561 35.678,63.556 35.684,63.521 35.629,63.526 "/>
<polygon opacity="0.5" fill="#150A5E" points="29.573,64.162 29.581,64.118 29.567,64.119 29.561,64.163 "/>
<polygon opacity="0.5" fill="#150A5E" points="29.573,64.162 29.581,64.118 29.567,64.119 29.561,64.163 "/>
<polygon fill="#FFFFFF" points="32.7,46.157 30.85,56.142 30.688,57.011 30.529,57.936 29.567,64.119 29.581,64.118 29.573,64.162 
	29.304,65.65 29.249,65.954 26.788,79.564 32.836,78.973 35.3,65.354 35.461,64.463 35.623,63.561 35.629,63.526 35.619,63.521 
	36.652,57.337 36.682,57.334 36.959,55.797 37.008,55.529 38.821,45.56 "/>
<polygon opacity="0.5" fill="#150A5E" points="17.056,65.343 17.05,65.344 17.04,65.398 17.047,65.396 "/>
<polygon opacity="0.5" fill="#150A5E" points="17.056,65.343 17.05,65.344 17.04,65.398 17.047,65.396 "/>
<polygon fill="#FFFFFF" points="19.822,58.984 19.487,59.019 10.947,59.852 10.173,59.929 1.095,60.82 0,67.015 9.141,66.118 
	9.421,66.091 10.923,65.943 11.898,59.776 10.93,65.94 17.04,65.334 17.05,65.344 17.056,65.278 18.024,59.166 17.056,65.343 
	17.965,65.254 18.782,65.174 27.768,64.296 28.801,58.106 "/>
<path fill="#FFFFFF" d="M92.5,27.663l-1.26,9.757c-2.498-1.011-4.969-1.744-7.41-2.203c-2.442-0.456-4.739-0.618-6.89-0.491
	c-2.452,0.148-4.325,0.58-5.616,1.298c-1.292,0.714-1.902,1.661-1.832,2.841c0.042,0.695,0.444,1.228,1.209,1.599
	c0.765,0.373,2.25,0.726,4.453,1.058l2.28,0.28c5.083,0.762,8.683,1.923,10.794,3.479c2.115,1.557,3.26,3.827,3.44,6.81
	c0.271,4.51-1.287,8.139-4.674,10.884c-3.387,2.747-8.263,4.312-14.621,4.693c-2.662,0.159-5.393,0.114-8.194-0.134
	c-2.801-0.25-5.672-0.705-8.613-1.363l1.288-9.863c2.323,1.183,4.783,2.034,7.379,2.551c2.596,0.52,5.236,0.696,7.92,0.535
	c2.614-0.157,4.563-0.588,5.842-1.291c1.282-0.704,1.887-1.657,1.814-2.86c-0.051-0.834-0.46-1.457-1.229-1.878
	c-0.769-0.417-2.323-0.8-4.667-1.146l-2.28-0.282c-4.497-0.656-7.748-1.831-9.752-3.522c-2.006-1.69-3.104-4.132-3.296-7.323
	c-0.26-4.325,1.177-7.754,4.31-10.289c3.131-2.533,7.74-3.982,13.824-4.348c2.66-0.159,5.29-0.139,7.892,0.067
	C87.214,26.721,89.842,27.102,92.5,27.663z"/>
<path fill="#FFFFFF" d="M137.318,39.257l-3.193,23.942l-12.458,0.746l2.704-20.499c0.199-1.334,0.344-2.463,0.442-3.387
	c0.093-0.923,0.126-1.651,0.093-2.183c-0.088-1.479-0.568-2.6-1.437-3.362c-0.871-0.759-2.057-1.093-3.56-1.004
	c-2.568,0.156-4.711,1.288-6.43,3.399c-1.718,2.11-2.831,4.958-3.334,8.542l-2.598,19.343l-12.458,0.748l7.234-54.62l12.492-0.751
	l-2.809,21.063c2.156-2.382,4.357-4.185,6.605-5.412c2.247-1.225,4.631-1.915,7.154-2.066c3.585-0.217,6.405,0.555,8.461,2.312
	c2.056,1.757,3.186,4.337,3.391,7.735c0.045,0.742,0.041,1.565-0.007,2.475C137.559,37.186,137.461,38.179,137.318,39.257z"/>
<path fill="#FFFFFF" d="M182.196,37.803l-3.005,22.435l-12.422,0.746l0.694-5.822c-1.897,2.436-3.946,4.27-6.147,5.506
	c-2.201,1.234-4.631,1.933-7.291,2.092c-3.678,0.221-6.656-0.558-8.933-2.337c-2.278-1.777-3.514-4.286-3.709-7.525
	c-0.298-4.947,1.389-8.853,5.061-11.71c3.67-2.855,9.114-4.498,16.332-4.933l7.321-0.439l0.081-0.98
	c0.049-0.328,0.075-0.562,0.078-0.701c0.004-0.141,0.002-0.265-0.005-0.383c-0.091-1.527-0.883-2.634-2.375-3.322
	c-1.493-0.688-3.662-0.946-6.507-0.774c-2.566,0.152-5.038,0.57-7.411,1.246s-4.652,1.613-6.83,2.813l1.305-9.585
	c2.551-0.804,5.175-1.454,7.874-1.954c2.698-0.498,5.504-0.836,8.418-1.012c5.761-0.344,10.1,0.388,13.018,2.197
	c2.917,1.809,4.5,4.738,4.743,8.786c0.047,0.786,0.047,1.651-0.002,2.594C182.434,35.682,182.338,36.702,182.196,37.803z
	 M163.08,43.653c-3.1,0.185-5.413,0.807-6.939,1.863c-1.527,1.054-2.233,2.518-2.122,4.393c0.085,1.41,0.621,2.493,1.605,3.246
	c0.985,0.755,2.299,1.081,3.942,0.981c2.544-0.152,4.625-1.049,6.246-2.69c1.62-1.642,2.634-3.879,3.044-6.712l0.192-1.439
	L163.08,43.653z"/>
<path fill="#FFFFFF" d="M217.872,29.904c-0.885-0.434-1.857-0.746-2.912-0.938c-1.057-0.192-2.187-0.253-3.389-0.182
	c-3.17,0.191-5.74,1.368-7.71,3.53c-1.971,2.161-3.211,5.185-3.721,9.067L197.677,59.5l-12.457,0.75l5.228-39.318l12.491-0.751
	l-0.953,6.742c1.496-2.547,3.436-4.553,5.82-6.007c2.387-1.454,5.081-2.273,8.089-2.454c0.439-0.025,0.938-0.033,1.496-0.02
	c0.559,0.013,1.222,0.042,1.99,0.09L217.872,29.904z"/>
<path fill="#FFFFFF" d="M260.249,37.326l-0.298,2.002l-29.077,1.749c0.009,0.139,0.009,0.341,0.002,0.609
	c-0.008,0.268-0.008,0.469,0.002,0.608c0.151,2.522,1.023,4.362,2.613,5.52c1.588,1.157,3.898,1.646,6.93,1.464
	c2.613-0.156,5.349-0.715,8.204-1.677c2.856-0.96,5.835-2.313,8.933-4.054l-1.328,9.761c-2.964,1.291-5.927,2.301-8.89,3.022
	c-2.964,0.724-5.994,1.181-9.094,1.366c-6.062,0.365-10.825-0.755-14.288-3.355c-3.465-2.599-5.35-6.457-5.657-11.57
	c-0.178-2.96,0.174-5.865,1.06-8.716s2.265-5.495,4.14-7.928c2.214-2.919,4.938-5.196,8.172-6.831
	c3.233-1.632,6.874-2.571,10.923-2.814c5.25-0.316,9.504,0.834,12.761,3.447c3.256,2.612,5.026,6.291,5.312,11.032
	c0.056,0.926,0.051,1.908-0.015,2.944C260.588,34.942,260.452,36.084,260.249,37.326z M248.179,32.341
	c0.051-0.307,0.086-0.615,0.102-0.93c0.017-0.314,0.015-0.623-0.004-0.923c-0.11-1.85-0.754-3.284-1.93-4.307
	c-1.177-1.021-2.713-1.475-4.609-1.359c-2.428,0.146-4.453,0.936-6.073,2.366c-1.621,1.435-2.804,3.472-3.55,6.118L248.179,32.341z"
	/>
<path fill="#FFFFFF" d="M275.626,48.934l-0.808,5.691l-12.456,0.746l7.233-54.62L282.087,0l-2.809,21.063
	c1.762-2.379,3.65-4.17,5.666-5.372c2.02-1.2,4.264-1.875,6.74-2.024c4.371-0.262,7.914,0.918,10.625,3.541
	c2.711,2.622,4.211,6.327,4.499,11.116c0.18,2.984-0.092,5.914-0.813,8.79c-0.721,2.877-1.844,5.52-3.37,7.934
	c-1.931,3.041-4.175,5.395-6.732,7.057c-2.559,1.663-5.353,2.586-8.384,2.767c-2.659,0.16-4.953-0.242-6.879-1.204
	C278.702,52.701,277.034,51.124,275.626,48.934z M287.161,22.992c-3.193,0.191-5.713,1.823-7.559,4.896
	c-1.848,3.07-2.631,6.965-2.346,11.685c0.129,2.127,0.802,3.766,2.02,4.91c1.217,1.148,2.844,1.658,4.88,1.535
	c3.122-0.187,5.615-1.794,7.477-4.819c1.86-3.024,2.655-6.806,2.384-11.338c-0.143-2.359-0.8-4.126-1.973-5.298
	C290.869,23.391,289.241,22.867,287.161,22.992z"/>
<path fill="#FFFFFF" d="M350.85,27.513l-3.004,22.435l-12.422,0.746l0.694-5.822c-1.896,2.437-3.945,4.27-6.146,5.507
	c-2.202,1.234-4.631,1.933-7.291,2.092c-3.679,0.222-6.657-0.558-8.934-2.337c-2.279-1.776-3.514-4.285-3.709-7.523
	c-0.298-4.95,1.389-8.854,5.06-11.71c3.671-2.855,9.114-4.499,16.332-4.933l7.321-0.44l0.081-0.981
	c0.05-0.329,0.075-0.562,0.078-0.702c0.003-0.14,0.002-0.264-0.005-0.382c-0.092-1.526-0.883-2.633-2.376-3.322
	c-1.493-0.687-3.661-0.946-6.506-0.774c-2.567,0.154-5.039,0.57-7.413,1.246c-2.373,0.676-4.65,1.614-6.83,2.813l1.305-9.585
	c2.552-0.803,5.177-1.453,7.874-1.953c2.698-0.499,5.503-0.836,8.419-1.011c5.76-0.346,10.1,0.387,13.018,2.195
	c2.917,1.809,4.498,4.738,4.742,8.788c0.047,0.784,0.047,1.651-0.002,2.592C351.088,25.393,350.993,26.413,350.85,27.513z
	 M331.735,33.364c-3.1,0.187-5.414,0.807-6.939,1.862c-1.528,1.055-2.234,2.519-2.121,4.394c0.084,1.409,0.619,2.493,1.604,3.246
	c0.985,0.756,2.301,1.08,3.943,0.981c2.544-0.151,4.625-1.049,6.245-2.69c1.62-1.643,2.634-3.878,3.046-6.712l0.191-1.439
	L331.735,33.364z"/>
<path fill="#FFFFFF" d="M354.039,10.646l11.729-0.705l6.959,26.604l12.158-27.753l13.289-0.799l-22.045,44.02
	c-2.465,4.952-4.82,8.247-7.066,9.88c-2.247,1.631-5.221,2.559-8.922,2.782l-7.529,0.452l0.793-8.232l3.922-0.236
	c2.036-0.121,3.593-0.558,4.675-1.307c1.081-0.751,2.01-2.008,2.786-3.772l1.019-2.15L354.039,10.646z"/>
</svg>
