<?xml version="1.0" encoding="utf-8"?>
<!-- Generator: Adobe Illustrator 13.0.2, SVG Export Plug-In . SVG Version: 6.00 Build 14948)  -->
<!DOCTYPE svg PUBLIC "-//W3C//DTD SVG 1.1 Tiny//EN" "http://www.w3.org/Graphics/SVG/1.1/DTD/svg11-tiny.dtd">
<svg version="1.1" baseProfile="tiny" id="Layer_1" xmlns="http://www.w3.org/2000/svg" xmlns:xlink="http://www.w3.org/1999/xlink"
	 x="0px" y="0px" width="480px" height="205.902px" viewBox="0 0 480 205.902" xml:space="preserve">
<path fill="#C61E59" d="M313.358,34.997c-4.656-4.005-9.685-7.574-15.06-10.685c-12.142-7.024-25.427-11.329-39.488-12.796
	c-3.469-0.361-6.986-0.545-10.453-0.545c-37.582,0-72.161,21.505-88.936,55.027c-0.243,0.013-0.481,0.02-0.728,0.036
	c-3.391,0.204-6.706,0.52-9.959,0.93c-2.31,0.151-4.695,0.487-7.122,1.012c-0.337,0.073-0.692,0.168-1.037,0.25
	c-0.523,0.098-1.038,0.21-1.558,0.313c3.299-9.332,7.925-18.117,13.778-26.147c6.281-8.622,13.844-16.198,22.473-22.517
	C193.025,6.874,214,0,235.927,0c3.585,0,7.22,0.191,10.808,0.566c16.645,1.736,32.743,7.545,46.55,16.799
	C300.698,22.331,307.458,28.285,313.358,34.997z M311.286,143.919c-0.166-0.083-0.325-0.181-0.489-0.269
	c-17.662,31.158-50.682,50.459-86.518,50.462c-5.692,0-11.449-0.497-17.108-1.479c-13.928-2.413-26.893-7.603-38.532-15.431
	c-5.153-3.468-9.931-7.369-14.304-11.677c5.434,7.097,11.775,13.49,18.836,18.946c13.152,10.164,28.821,17.046,45.31,19.903
	c5.85,1.013,11.801,1.526,17.69,1.526c0.004,0,0.004,0,0.009,0c20.598,0,40.544-6.15,57.677-17.781
	c15.686-10.652,27.963-25.194,35.769-42.262c-1.405,0.254-2.834,0.433-4.293,0.521C319.903,146.704,315.221,145.886,311.286,143.919
	z M40.692,89.804c-3.644-0.287-7.33-0.317-11.057-0.092c-8.523,0.511-14.98,2.543-19.366,6.089
	c-4.389,3.552-6.403,8.358-6.039,14.417c0.269,4.472,1.807,7.891,4.617,10.26c2.809,2.37,7.364,4.015,13.663,4.937l3.194,0.396
	c3.284,0.483,5.461,1.019,6.54,1.605c1.075,0.589,1.65,1.462,1.721,2.631c0.103,1.684-0.747,3.02-2.542,4.007
	c-1.794,0.984-4.522,1.587-8.183,1.811c-3.762,0.225-7.46-0.023-11.096-0.753c-3.64-0.723-7.085-1.914-10.339-3.573L0,145.357
	c4.121,0.922,8.143,1.559,12.067,1.908c3.924,0.349,7.75,0.412,11.481,0.189c8.907-0.537,15.737-2.729,20.483-6.576
	c4.748-3.846,6.929-8.93,6.548-15.25c-0.251-4.178-1.854-7.359-4.818-9.537c-2.96-2.182-8.003-3.807-15.123-4.877l-3.195-0.391
	c-3.087-0.464-5.166-0.96-6.238-1.481c-1.072-0.521-1.637-1.268-1.696-2.24c-0.098-1.654,0.757-2.98,2.567-3.981
	c1.812-1.006,4.433-1.609,7.869-1.816c3.014-0.182,6.23,0.05,9.653,0.689c3.42,0.642,6.882,1.669,10.382,3.085l1.765-13.67
	C48.019,90.625,44.337,90.089,40.692,89.804z M114.941,103.48c0.068-1.272,0.076-2.428,0.011-3.467
	c-0.285-4.762-1.87-8.375-4.751-10.836c-2.878-2.462-6.83-3.542-11.851-3.24c-3.536,0.213-6.875,1.179-10.025,2.894
	c-3.148,1.722-6.234,4.249-9.255,7.584l3.935-29.512l-17.5,1.053l-10.135,76.522l17.454-1.049l3.639-27.098
	c0.706-5.022,2.266-9.011,4.673-11.968c2.407-2.956,5.409-4.544,9.007-4.762c2.106-0.127,3.769,0.344,4.988,1.408
	c1.217,1.065,1.89,2.637,2.012,4.71c0.047,0.744,0,1.765-0.13,3.058c-0.135,1.292-0.339,2.875-0.619,4.742l-3.787,28.721
	l17.453-1.047l4.473-33.543C114.735,106.143,114.873,104.75,114.941,103.48z M177.81,101.322c0.069-1.319,0.069-2.532,0.003-3.635
	c-0.34-5.67-2.558-9.775-6.645-12.309c-4.087-2.535-10.165-3.561-18.237-3.076c-4.083,0.246-8.015,0.717-11.793,1.417
	c-3.781,0.699-7.458,1.611-11.034,2.738l-1.828,13.427c3.052-1.679,6.245-2.991,9.569-3.941c3.329-0.946,6.792-1.53,10.385-1.745
	c3.986-0.239,7.024,0.122,9.117,1.084c2.09,0.967,3.201,2.517,3.328,4.656c0.012,0.163,0.013,0.339,0.007,0.534
	c-0.005,0.197-0.042,0.524-0.11,0.983l-0.114,1.374l-10.257,0.616c-10.11,0.608-17.74,2.91-22.881,6.912
	c-5.143,4.002-7.507,9.471-7.088,16.406c0.273,4.537,2.003,8.051,5.195,10.54c3.189,2.492,7.362,3.583,12.517,3.275
	c3.727-0.223,7.129-1.201,10.214-2.931c3.085-1.733,5.956-4.301,8.613-7.714l-0.973,8.155l17.402-1.043l4.21-31.431
	C177.609,104.073,177.742,102.644,177.81,101.322z M158.992,113.309l-0.271,2.018c-0.575,3.97-1.997,7.104-4.265,9.404
	c-2.27,2.3-5.184,3.556-8.75,3.769c-2.302,0.14-4.144-0.315-5.524-1.376c-1.381-1.053-2.13-2.572-2.249-4.547
	c-0.156-2.626,0.832-4.676,2.97-6.156c2.141-1.478,5.381-2.349,9.726-2.607L158.992,113.309z M229.51,78.617
	c-1.079-0.067-2.008-0.107-2.789-0.125c-0.783-0.02-1.481-0.009-2.098,0.026c-4.212,0.254-7.988,1.401-11.333,3.44
	c-3.339,2.037-6.057,4.845-8.152,8.417l1.336-9.448l-17.503,1.052l-7.324,55.086l17.451-1.052l3.454-25.38
	c0.712-5.443,2.45-9.679,5.213-12.706c2.761-3.028,6.362-4.679,10.802-4.944c1.684-0.102,3.266-0.016,4.748,0.252
	c1.478,0.27,2.839,0.708,4.079,1.315L229.51,78.617z M287.328,100.156c0.092-1.453,0.098-2.827,0.022-4.125
	c-0.4-6.643-2.881-11.795-7.443-15.457c-4.562-3.661-10.522-5.272-17.876-4.83c-5.674,0.342-10.776,1.658-15.306,3.943
	c-4.527,2.29-8.347,5.479-11.448,9.57c-2.628,3.409-4.561,7.113-5.798,11.108c-1.242,3.991-1.734,8.063-1.486,12.21
	c0.431,7.164,3.071,12.569,7.925,16.209c4.852,3.646,11.529,5.214,20.017,4.702c4.346-0.261,8.59-0.898,12.743-1.914
	c4.148-1.012,8.3-2.425,12.453-4.235l1.862-13.672c-4.342,2.437-8.512,4.33-12.517,5.679c-4,1.348-7.831,2.128-11.492,2.348
	c-4.248,0.254-7.483-0.429-9.71-2.052c-2.229-1.62-3.45-4.199-3.66-7.733c-0.017-0.193-0.017-0.476-0.005-0.852
	c0.012-0.374,0.012-0.659,0-0.853l40.734-2.451l0.419-2.805C287.05,103.206,287.238,101.61,287.328,100.156z M247.346,99.314
	c1.047-3.705,2.704-6.561,4.974-8.568c2.269-2.006,5.107-3.113,8.509-3.316c2.657-0.161,4.811,0.474,6.459,1.905
	c1.644,1.43,2.548,3.44,2.704,6.032c0.024,0.422,0.027,0.854,0.005,1.294c-0.023,0.439-0.072,0.875-0.144,1.303L247.346,99.314z
	 M315.316,127.838c2.699,1.352,5.912,1.913,9.639,1.69c4.249-0.254,8.163-1.549,11.746-3.879c3.584-2.326,6.728-5.625,9.434-9.885
	c2.136-3.382,3.712-7.086,4.721-11.113c1.01-4.029,1.389-8.134,1.139-12.316c-0.404-6.709-2.506-11.901-6.303-15.574
	c-3.798-3.676-8.759-5.328-14.887-4.961c-3.468,0.208-6.613,1.154-9.441,2.835c-2.823,1.684-5.472,4.193-7.937,7.529l3.932-29.51
	l-17.5,1.052l-10.135,76.523l17.452-1.046l1.132-7.971C310.281,124.277,312.615,126.486,315.316,127.838z M331.308,87.065
	c1.645,1.643,2.567,4.116,2.765,7.42c0.379,6.352-0.732,11.65-3.338,15.887c-2.608,4.239-6.101,6.491-10.477,6.752
	c-2.853,0.174-5.13-0.543-6.838-2.151c-1.706-1.602-2.649-3.899-2.825-6.88c-0.403-6.61,0.695-12.065,3.282-16.368
	c2.588-4.304,6.119-6.59,10.593-6.858C327.382,84.691,329.663,85.425,331.308,87.065z M414.097,86.907
	c0.068-1.319,0.068-2.532,0.005-3.633c-0.342-5.672-2.558-9.777-6.646-12.311c-4.09-2.533-10.167-3.561-18.236-3.075
	c-4.086,0.245-8.015,0.717-11.795,1.417c-3.78,0.7-7.458,1.612-11.032,2.737l-1.828,13.428c3.053-1.679,6.245-2.994,9.569-3.941
	c3.325-0.947,6.789-1.53,10.386-1.746c3.985-0.241,7.023,0.122,9.114,1.086c2.094,0.966,3.199,2.516,3.329,4.655
	c0.009,0.164,0.01,0.339,0.007,0.536c-0.005,0.195-0.041,0.522-0.109,0.983l-0.115,1.374l-10.257,0.615
	c-10.11,0.608-17.738,2.914-22.878,6.911c-5.145,4.004-7.507,9.471-7.091,16.407c0.272,4.537,2.001,8.053,5.195,10.54
	c3.189,2.492,7.361,3.587,12.517,3.275c3.726-0.223,7.13-1.201,10.214-2.932c3.085-1.732,5.953-4.302,8.612-7.714l-0.973,8.155
	l17.401-1.044l4.212-31.43C413.896,89.659,414.028,88.228,414.097,86.907z M395.279,98.893l-0.269,2.018
	c-0.576,3.97-1.999,7.102-4.269,9.403s-5.184,3.558-8.748,3.771c-2.3,0.14-4.145-0.315-5.523-1.376
	c-1.381-1.053-2.128-2.572-2.249-4.547c-0.157-2.626,0.832-4.677,2.972-6.155c2.14-1.479,5.381-2.349,9.727-2.608L395.279,98.893z
	 M434.651,121.905l-1.426,3.012c-1.09,2.474-2.392,4.233-3.906,5.285c-1.514,1.05-3.694,1.662-6.548,1.83l-5.495,0.332
	l-1.111,11.533l10.551-0.634c5.183-0.313,9.351-1.613,12.501-3.897c3.144-2.287,6.443-6.903,9.898-13.84L480,63.854l-18.619,1.118
	l-17.032,38.883l-9.753-37.275l-16.43,0.99L434.651,121.905z"/>
</svg>
