<?xml version="1.0" encoding="utf-8"?>
<!-- Generator: Adobe Illustrator 26.1.0, SVG Export Plug-In . SVG Version: 6.00 Build 0)  -->
<svg version="1.1" id="Layer_1" xmlns="http://www.w3.org/2000/svg" xmlns:xlink="http://www.w3.org/1999/xlink" x="0px" y="0px"
	 viewBox="0 0 3290.3 715.6" style="enable-background:new 0 0 3290.3 715.6;" xml:space="preserve">
<style type="text/css">
	.st0{fill:#7A9108;}
</style>
<path class="st0" d="M400,189.3l-17.3,92.5c-23.3-11-46.5-19.4-69.6-25.1c-23.1-5.7-44.9-8.5-65.6-8.4c-23.5,0.1-41.6,3.2-54.4,9.4
	c-12.7,6.1-19.1,14.8-19,26.2c0,6.7,3.6,12,10.7,15.9c7.1,4,21.1,8.1,42,12.5l21.6,3.9c48.2,10,81.9,23.1,101.3,39.1
	s29.1,38.3,29.2,66.9c0.2,43.2-16.7,77.1-50.5,101.5c-33.8,24.4-81.3,36.7-142.2,36.9c-25.5,0.1-51.6-1.8-78.2-5.7
	s-53.8-9.8-81.6-17.7l17.5-93.5c21.6,12.6,44.6,22,69.1,28.4s49.7,9.5,75.4,9.4c25.1-0.1,43.9-3.2,56.5-9.2s18.9-14.8,18.9-26.3
	c0-8-3.6-14.2-10.7-18.6s-21.8-8.9-44-13.5l-21.6-3.9c-42.6-8.7-73-21.7-91.3-38.9C78,353.9,68.8,330,68.7,299.3
	c-0.1-41.5,15.4-73.5,46.8-96c31.3-22.5,76.1-33.9,134.4-34.1c25.5-0.1,50.6,1.5,75.4,4.9C350,177.4,374.9,182.5,400,189.3z"/>
<path class="st0" d="M814,324.3l-43.5,227l-119.4,0.4L688,357.3c2.6-12.7,4.6-23.4,6.1-32.1c1.4-8.8,2.1-15.7,2.1-20.8
	c0-14.2-4-25.1-11.9-32.9c-7.9-7.7-19.1-11.6-33.5-11.5c-24.6,0.1-45.7,9.8-63.3,29s-29.7,45.8-36.5,79.8l-35.3,183.4l-119.4,0.4
	l98.6-517.9l119.8-0.4L576.5,234c21.9-21.6,43.9-37.6,66-48.1s45.3-15.8,69.5-15.9c34.4-0.1,60.9,8.8,79.6,26.7
	c18.7,17.9,28.1,43.2,28.2,75.7c0,7.1-0.5,15-1.4,23.6C817.4,304.7,815.9,314.1,814,324.3z"/>
<path class="st0" d="M1233.6,334.7l-40.9,212.7l-119.1,0.4l9.8-55.3c-19.4,22.3-40,38.6-61.7,49.3c-21.7,10.6-45.3,15.9-70.8,16
	c-35.3,0.1-63.3-8.9-84.1-27.2c-20.8-18.2-31.3-42.9-31.4-73.9c-0.2-47.4,18-83.8,54.7-109.1c36.6-25.3,89.5-38.1,158.7-38.3
	l70.2-0.2l1.3-9.3c0.6-3.1,1-5.3,1.1-6.6c0.1-1.3,0.2-2.5,0.2-3.7c0-14.6-7-25.6-20.9-33s-34.5-11-61.8-10.9
	c-24.6,0.1-48.4,2.7-71.5,7.9c-23,5.2-45.3,12.9-66.8,23.2l17.7-90.9c24.8-6.3,50.2-11.1,76.3-14.4c26.1-3.3,53-5,81-5.1
	c55.2-0.2,96.3,9.2,123.2,28c26.9,18.9,40.4,47.7,40.6,86.5c0,7.5-0.5,15.8-1.4,24.8C1237,314.6,1235.5,324.3,1233.6,334.7z
	 M1047.7,380.3c-29.7,0.1-52.2,4.8-67.3,14c-15.2,9.3-22.7,22.9-22.6,40.8c0,13.5,4.6,24.2,13.6,31.9c9,7.8,21.4,11.6,37.1,11.5
	c24.4-0.1,44.8-7.5,61.1-22.3c16.4-14.8,27.3-35.6,32.7-62.5l2.6-13.7L1047.7,380.3z"/>
<path class="st0" d="M1568.7,278.5c-8.2-4.6-17.3-8.1-27.3-10.5s-20.8-3.6-32.3-3.6c-30.4,0.1-55.6,10-75.6,29.6
	s-33.5,47.8-40.4,84.6l-33.3,171.8l-119.4,0.4l71.2-372.8l119.8-0.4l-12.8,63.9c15.7-23.5,35.3-41.7,58.8-54.3
	c23.6-12.6,49.8-19,78.6-19.1c4.2,0,9,0.2,14.3,0.6c5.3,0.4,11.6,1.1,19,1.9L1568.7,278.5z"/>
<path class="st0" d="M1964.6,372.4l-3.9,19l-278.8,1c0,1.3-0.1,3.3-0.3,5.8c-0.2,2.6-0.3,4.5-0.3,5.8c0.1,24.2,7.4,42.2,22,54.1
	s36.4,17.8,65.4,17.7c25-0.1,51.5-3.9,79.3-11.6c27.8-7.6,57-18.9,87.5-33.9l-18,92.5c-29,10.7-57.9,18.8-86.6,24.1
	s-57.9,8-87.6,8.1c-58.1,0.2-103-13.1-134.7-39.8s-47.6-64.6-47.8-113.6c-0.1-28.4,4.8-55.9,14.8-82.7s24.6-51.3,43.8-73.5
	c22.7-26.7,50-47,81.8-60.9c31.8-13.8,67.1-20.8,105.9-21c50.3-0.2,90.4,13.1,120.1,39.8s44.6,62.8,44.8,108.3
	c0,8.9-0.5,18.3-1.7,28.1C1969.1,349.8,1967.2,360.6,1964.6,372.4z M1851.9,318.2c0.7-2.9,1.2-5.8,1.5-8.8s0.5-6,0.5-8.8
	c-0.1-17.7-5.4-31.8-16.1-42.2c-10.7-10.4-25.1-15.6-43.3-15.5c-23.3,0.1-43.1,6.5-59.3,19.3c-16.3,12.8-28.7,31.7-37.2,56.5
	L1851.9,318.2z"/>
<path class="st0" d="M2105.2,491.6l-10.8,53.9l-119.4,0.4l98.7-518l119.7-0.4l-38.2,199.7c18.1-21.8,37.1-37.9,57-48.3
	s41.7-15.6,65.5-15.7c41.9-0.1,75.1,13.1,99.6,39.6s36.8,62.7,37,108.6c0.1,28.6-4.1,56.5-12.5,83.6s-20.6,51.7-36.5,74
	c-20.1,28-42.8,49.3-68.1,63.8c-25.4,14.5-52.5,21.8-81.6,21.9c-25.5,0.1-47.2-5-65.1-15.2C2132.6,529.3,2117.5,513.3,2105.2,491.6z
	 M2229.5,250c-30.6,0.1-55.6,14.3-74.9,42.7c-19.3,28.3-28.9,65.1-28.7,110.4c0.1,20.4,5.6,36.4,16.6,48s26.3,17.4,45.8,17.3
	c30-0.1,54.7-14.1,74.1-42c19.4-27.9,29.1-63.6,28.9-107c-0.1-22.6-5.4-39.9-16-51.7C2264.7,255.8,2249.4,249.9,2229.5,250z"/>
<path class="st0" d="M2820.6,327.7l-40.9,212.7l-119.1,0.4l9.8-55.3c-19.4,22.2-40,38.7-61.7,49.3s-45.3,16-70.8,16
	c-35.3,0.1-63.3-8.9-84.1-27.2c-20.8-18.2-31.2-42.8-31.4-73.9c-0.2-47.5,18.1-83.8,54.7-109.1c36.6-25.3,89.5-38,158.7-38.3
	l70.2-0.2l1.3-9.3c0.6-3.1,1-5.3,1.1-6.7c0.1-1.3,0.2-2.5,0.2-3.7c-0.1-14.6-7-25.6-20.9-33s-34.5-11-61.7-10.9
	c-24.6,0.1-48.4,2.7-71.5,7.9c-23,5.2-45.3,12.9-66.8,23.2l17.6-90.9c24.8-6.3,50.3-11.1,76.3-14.4c26.1-3.3,53-5,81-5.1
	c55.2-0.2,96.3,9.2,123.2,28c26.9,18.9,40.4,47.7,40.6,86.5c0,7.5-0.5,15.8-1.4,24.8C2824,307.5,2822.5,317.2,2820.6,327.7z
	 M2634.8,373.2c-29.7,0.1-52.2,4.8-67.3,14c-15.1,9.3-22.7,22.9-22.6,40.8c0,13.5,4.5,24.2,13.5,31.9c9,7.8,21.4,11.6,37.1,11.5
	c24.4-0.1,44.8-7.5,61.1-22.3c16.4-14.8,27.3-35.6,32.7-62.5l2.6-13.6L2634.8,373.2z"/>
<path class="st0" d="M2845.2,168.2l112.4-0.4l52.1,258l131.2-258.6l127.4-0.5l-234.5,408.7c-26.2,46-50.5,76.2-72.9,90.6
	c-22.4,14.4-51.3,21.6-86.7,21.8l-72.2,0.3l12-78.2l37.6-0.1c19.5-0.1,34.6-3.4,45.4-10c10.7-6.6,20.3-18.1,28.7-34.5l10.9-20
	L2845.2,168.2z"/>
</svg>
